<svg width="6" height="9" viewBox="0 0 6 9" fill="none" xmlns="http://www.w3.org/2000/svg">
<path fill-rule="evenodd" clip-rule="evenodd" d="M0.849438 1.01191C0.700026 1.16137 0.616091 1.36405 0.616091 1.57538C0.616091 1.78671 0.700026 1.98939 0.849438 2.13885L3.47392 4.76333L0.849438 7.38781C0.70426 7.53812 0.623929 7.73944 0.625744 7.94841C0.62756 8.15738 0.711379 8.35727 0.859147 8.50504C1.00691 8.65281 1.20681 8.73663 1.41578 8.73844C1.62474 8.74026 1.82606 8.65993 1.97638 8.51475L5.16433 5.3268C5.31374 5.17734 5.39767 4.97466 5.39767 4.76333C5.39767 4.552 5.31374 4.34932 5.16433 4.19986L1.97638 1.01191C1.82692 0.8625 1.62424 0.778564 1.41291 0.778564C1.20158 0.778564 0.998895 0.8625 0.849438 1.01191Z" fill="#CACACA"/>
</svg>
