<svg width="27" height="24" viewBox="0 0 27 24" fill="none" xmlns="http://www.w3.org/2000/svg">
<path fill-rule="evenodd" clip-rule="evenodd" d="M5.77904 1.2089C5.62063 0.803317 5.30777 0.477147 4.90914 0.301975C4.71129 0.215474 4.49834 0.168799 4.28245 0.164615C4.06656 0.160432 3.85196 0.198822 3.65091 0.277594C3.44986 0.356365 3.2663 0.473973 3.11071 0.623702C2.95512 0.77343 2.83056 0.952344 2.74413 1.15022C1.33531 4.37226 0.554462 7.93293 0.554462 11.6711C0.550145 15.2917 1.29569 18.8739 2.74413 22.1921C2.92706 22.5782 3.25311 22.8779 3.65322 23.0277C4.05333 23.1775 4.49605 23.1657 4.88759 22.9947C5.27913 22.8238 5.58872 22.5071 5.75077 22.1117C5.91283 21.7164 5.91461 21.2736 5.75574 20.8769C4.52611 18.0593 3.84225 14.9474 3.84225 11.6711C3.83688 8.50343 4.48784 5.36896 5.7541 2.46534C5.92848 2.06636 5.93745 1.61449 5.77904 1.2089ZM21.6335 1.2113C21.4738 1.61535 21.4805 2.06622 21.6522 2.46534H21.6538C22.8851 5.28297 23.569 8.39486 23.569 11.6711C23.5739 14.839 22.9224 17.9735 21.6555 20.8769C21.5612 21.0759 21.5079 21.2917 21.4986 21.5117C21.4894 21.7316 21.5244 21.9511 21.6016 22.1573C21.6788 22.3634 21.7966 22.552 21.948 22.7117C22.0995 22.8715 22.2815 22.9992 22.4832 23.0873C22.6849 23.1754 22.9023 23.2221 23.1224 23.2246C23.3426 23.2271 23.5609 23.1853 23.7646 23.1018C23.9683 23.0183 24.1531 22.8948 24.3082 22.7385C24.4632 22.5822 24.5852 22.3964 24.6671 22.1921C26.0759 18.97 26.8568 15.4094 26.8568 11.6711C26.8606 8.05049 26.1145 4.46829 24.6655 1.15022C24.4896 0.752932 24.1635 0.441431 23.7586 0.28381C23.3538 0.12619 22.9029 0.135271 22.5047 0.309069C22.1065 0.482866 21.7933 0.807244 21.6335 1.2113ZM12.3582 7.07211C12.3582 6.32797 12.9615 5.72473 13.7056 5.72473C14.4498 5.72473 15.053 6.32797 15.053 7.07211V10.3473H18.3282C19.0723 10.3473 19.6756 10.9505 19.6756 11.6947C19.6756 12.4388 19.0723 13.042 18.3282 13.042H15.053V16.3172C15.053 17.0613 14.4498 17.6646 13.7056 17.6646C12.9615 17.6646 12.3582 17.0613 12.3582 16.3172V13.042H9.0831C8.33896 13.042 7.73572 12.4388 7.73572 11.6947C7.73572 10.9505 8.33896 10.3473 9.08309 10.3473H12.3582V7.07211Z" fill="#8261C2"/>
</svg>
