<svg width="22" height="19" viewBox="0 0 22 19" fill="none" xmlns="http://www.w3.org/2000/svg">
<path fill-rule="evenodd" clip-rule="evenodd" d="M3.67531 0.212376C4.0006 0.355318 4.25589 0.621477 4.38516 0.952441C4.51443 1.2834 4.50711 1.65213 4.36481 1.97771C3.33153 4.3471 2.80033 6.90487 2.80472 9.48976C2.80472 12.1632 3.36275 14.7026 4.36615 17.0018C4.49579 17.3254 4.49433 17.6868 4.3621 18.0094C4.22986 18.332 3.97723 18.5904 3.65773 18.7299C3.33823 18.8695 2.97696 18.8791 2.65047 18.7569C2.32397 18.6346 2.05791 18.39 1.90864 18.075C0.726692 15.3673 0.118318 12.4442 0.121841 9.48976C0.121841 6.43933 0.759024 3.53377 1.90864 0.904557C1.97916 0.743085 2.08081 0.597089 2.20777 0.474909C2.33473 0.352729 2.48452 0.256759 2.64858 0.19248C2.81264 0.128202 2.98776 0.0968747 3.16392 0.100288C3.34009 0.103702 3.51386 0.14179 3.67531 0.212376ZM14.824 5.46545C14.2206 5.46558 13.625 5.6014 13.0811 5.86286C12.5373 6.12432 12.0593 6.50472 11.6824 6.9759L11.2424 7.52589L11.0935 7.15163C10.8944 6.65404 10.5508 6.22749 10.107 5.92696C9.66329 5.62642 9.1397 5.46568 8.60375 5.46545H8.17047C7.8147 5.46545 7.4735 5.60678 7.22193 5.85834C6.97036 6.10991 6.82903 6.45111 6.82903 6.80688C6.82903 7.16265 6.97036 7.50385 7.22193 7.75542C7.4735 8.00699 7.8147 8.14832 8.17047 8.14832H8.60375L9.3174 9.93243L7.92901 11.6696C7.80328 11.8266 7.64383 11.9534 7.46248 12.0405C7.28113 12.1275 7.08252 12.1727 6.88135 12.1726H6.82903C6.47326 12.1726 6.13206 12.314 5.88049 12.5655C5.62892 12.8171 5.48759 13.1583 5.48759 13.5141C5.48759 13.8698 5.62892 14.211 5.88049 14.4626C6.13206 14.7142 6.47326 14.8555 6.82903 14.8555H6.88135C7.48474 14.8554 8.08039 14.7196 8.6242 14.4581C9.16801 14.1966 9.64607 13.8162 10.023 13.345L10.463 12.7951L10.6119 13.1693C10.8111 13.6671 11.1548 14.0938 11.5989 14.3944C12.0429 14.6949 12.5668 14.8555 13.1029 14.8555H13.5362C13.892 14.8555 14.2332 14.7142 14.4848 14.4626C14.7363 14.211 14.8777 13.8698 14.8777 13.5141C14.8777 13.1583 14.7363 12.8171 14.4848 12.5655C14.2332 12.314 13.892 12.1726 13.5362 12.1726H13.1029L12.3893 10.3885L13.7777 8.65136C13.9034 8.49432 14.0629 8.36757 14.2442 8.28049C14.4256 8.19342 14.6242 8.14824 14.8253 8.14832H14.8777C15.2334 8.14832 15.5746 8.00699 15.8262 7.75542C16.0778 7.50385 16.2191 7.16265 16.2191 6.80688C16.2191 6.45111 16.0778 6.10991 15.8262 5.85834C15.5746 5.60678 15.2334 5.46545 14.8777 5.46545H14.8253H14.824ZM17.3379 1.97771C17.1977 1.65202 17.1923 1.28411 17.3226 0.954394C17.453 0.624682 17.7086 0.359985 18.0335 0.218164C18.3585 0.0763434 18.7263 0.0689332 19.0567 0.197553C19.3871 0.326173 19.6532 0.580362 19.7967 0.904557C20.9791 3.61214 21.5879 6.53526 21.5848 9.48976C21.5848 12.5402 20.9477 15.4457 19.798 18.075C19.7313 18.2417 19.6316 18.3933 19.5051 18.5209C19.3786 18.6484 19.2278 18.7492 19.0616 18.8174C18.8954 18.8855 18.7172 18.9195 18.5376 18.9175C18.358 18.9155 18.1806 18.8774 18.016 18.8055C17.8514 18.7336 17.7028 18.6294 17.5793 18.499C17.4557 18.3687 17.3595 18.2148 17.2966 18.0466C17.2336 17.8784 17.205 17.6992 17.2125 17.5197C17.2201 17.3403 17.2636 17.1641 17.3405 17.0018C18.3743 14.6325 18.906 12.0747 18.902 9.48976C18.902 6.81627 18.3439 4.27693 17.3392 1.97771H17.3379Z" fill="#8261C2"/>
</svg>
