<svg width="24" height="18" viewBox="0 0 24 18" fill="none" xmlns="http://www.w3.org/2000/svg">
<path fill-rule="evenodd" clip-rule="evenodd" d="M1.81452 1.10645C1.28885 1.63212 0.99353 2.34508 0.99353 3.08848V14.3006C0.99353 15.044 1.28885 15.7569 1.81452 16.2826C2.34018 16.8083 3.05314 17.1036 3.79655 17.1036H20.6147C21.3581 17.1036 22.071 16.8083 22.5967 16.2826C23.1224 15.7569 23.4177 15.044 23.4177 14.3006V5.8915C23.4177 5.1481 23.1224 4.43514 22.5967 3.90947C22.071 3.3838 21.3581 3.08848 20.6147 3.08848H13.6071L10.8041 0.285461H3.79655C3.05314 0.285461 2.34018 0.580779 1.81452 1.10645ZM11.3311 7.05902C11.3311 6.57608 11.7226 6.18458 12.2056 6.18458C12.6885 6.18458 13.08 6.57608 13.08 7.05902V9.18461H15.2056C15.6885 9.18461 16.08 9.57611 16.08 10.059C16.08 10.542 15.6885 10.9335 15.2056 10.9335H13.08V13.059C13.08 13.542 12.6885 13.9335 12.2056 13.9335C11.7226 13.9335 11.3311 13.542 11.3311 13.059V10.9335H9.20556C8.72262 10.9335 8.33112 10.542 8.33112 10.059C8.33112 9.57611 8.72262 9.18461 9.20556 9.18461H11.3311V7.05902Z" fill="#3C6B95"/>
</svg>
