<svg width="21" height="21" viewBox="0 0 21 21" fill="none" xmlns="http://www.w3.org/2000/svg">
<path d="M11.066 1.003C10.8302 0.767258 10.5104 0.634827 10.1769 0.634827C9.84351 0.634827 9.52372 0.767258 9.28791 1.003L0.485558 9.80535C0.256498 10.0425 0.129751 10.3602 0.132616 10.6899C0.135481 11.0196 0.267729 11.335 0.500876 11.5681C0.734022 11.8013 1.04941 11.9335 1.37912 11.9364C1.70883 11.9392 2.02647 11.8125 2.26363 11.5834L2.63207 11.215V19.4967C2.63207 19.8302 2.76456 20.1501 3.00038 20.3859C3.2362 20.6217 3.55605 20.7542 3.88955 20.7542H6.40451C6.73802 20.7542 7.05786 20.6217 7.29368 20.3859C7.52951 20.1501 7.66199 19.8302 7.66199 19.4967V16.9818C7.66199 16.6483 7.79448 16.3284 8.0303 16.0926C8.26612 15.8568 8.58597 15.7243 8.91947 15.7243H11.4344C11.7679 15.7243 12.0878 15.8568 12.3236 16.0926C12.5594 16.3284 12.6919 16.6483 12.6919 16.9818V19.4967C12.6919 19.8302 12.8244 20.1501 13.0602 20.3859C13.296 20.6217 13.6159 20.7542 13.9494 20.7542H16.4643C16.7978 20.7542 17.1177 20.6217 17.3535 20.3859C17.5893 20.1501 17.7218 19.8302 17.7218 19.4967V11.215L18.0903 11.5834C18.3274 11.8125 18.6451 11.9392 18.9748 11.9364C19.3045 11.9335 19.6199 11.8013 19.853 11.5681C20.0862 11.335 20.2184 11.0196 20.2213 10.6899C20.2241 10.3602 20.0974 10.0425 19.8683 9.80535L11.066 1.003Z" fill="#3C6B95"/>
</svg>
