<svg width="16" height="12" viewBox="0 0 16 12" fill="none" xmlns="http://www.w3.org/2000/svg">
<path fill-rule="evenodd" clip-rule="evenodd" d="M1.29341 1.30244C0.948205 1.64764 0.754272 2.11584 0.754272 2.60403V9.96692C0.754272 10.4551 0.948205 10.9233 1.29341 11.2685C1.63861 11.6137 2.10681 11.8076 2.595 11.8076H13.6393C14.1275 11.8076 14.5957 11.6137 14.9409 11.2685C15.2861 10.9233 15.4801 10.4551 15.4801 9.96692V4.44475C15.4801 3.95656 15.2861 3.48837 14.9409 3.14316C14.5957 2.79796 14.1275 2.60403 13.6393 2.60403H9.03753L7.1968 0.763306H2.595C2.10681 0.763306 1.63861 0.957238 1.29341 1.30244ZM6.32545 6.01534V6.73203C6.13537 6.73203 5.95308 6.80754 5.81868 6.94194C5.68427 7.07634 5.60876 7.25864 5.60876 7.44871V9.24042C5.60876 9.4305 5.68427 9.61279 5.81868 9.7472C5.95308 9.8816 6.13537 9.95711 6.32545 9.95711H9.90887C10.0989 9.95711 10.2812 9.8816 10.4156 9.7472C10.55 9.61279 10.6256 9.4305 10.6256 9.24042V7.44871C10.6256 7.25864 10.55 7.07634 10.4156 6.94194C10.2812 6.80754 10.0989 6.73203 9.90887 6.73203V6.01534C9.90887 5.54015 9.7201 5.08442 9.38409 4.74841C9.04808 4.4124 8.59235 4.22363 8.11716 4.22363C7.64197 4.22363 7.18624 4.4124 6.85023 4.74841C6.51422 5.08442 6.32545 5.54015 6.32545 6.01534ZM9.19219 6.73203V6.01534C9.19219 5.73023 9.07893 5.45679 8.87732 5.25519C8.67571 5.05358 8.40227 4.94032 8.11716 4.94032C7.83205 4.94032 7.55861 5.05358 7.357 5.25519C7.1554 5.45679 7.04213 5.73023 7.04213 6.01534V6.73203H9.19219Z" fill="#3C6B95"/>
</svg>
