<svg width="23" height="17" viewBox="0 0 23 17" fill="none" xmlns="http://www.w3.org/2000/svg">
<path fill-rule="evenodd" clip-rule="evenodd" d="M4.88457 0.298269C5.2751 0.688795 5.27509 1.32196 4.88457 1.71248C4.05171 2.54533 3.39104 3.53407 2.9403 4.62225C2.48956 5.71042 2.25757 6.87672 2.25757 8.05456C2.25757 9.23239 2.48956 10.3987 2.9403 11.4869C3.39104 12.575 4.05171 13.5638 4.88457 14.3966C5.27509 14.7872 5.2751 15.4203 4.88457 15.8108C4.49405 16.2014 3.86089 16.2014 3.47036 15.8109C2.45178 14.7923 1.6438 13.5831 1.09255 12.2522C0.541294 10.9214 0.257568 9.49504 0.257568 8.05456C0.257568 6.61408 0.541294 5.1877 1.09255 3.85687C1.6438 2.52605 2.45178 1.31683 3.47036 0.29826C3.86089 -0.0922619 4.49405 -0.0922581 4.88457 0.298269ZM17.5687 0.298269C17.9592 -0.0922581 18.5924 -0.0922619 18.9829 0.29826C20.0015 1.31683 20.8095 2.52605 21.3608 3.85687C21.912 5.1877 22.1957 6.61408 22.1957 8.05456C22.1957 9.49504 21.912 10.9214 21.3608 12.2522C20.8095 13.5831 20.0015 14.7923 18.9829 15.8109C18.5924 16.2014 17.9592 16.2014 17.5687 15.8108C17.1782 15.4203 17.1782 14.7872 17.5687 14.3966C18.4016 13.5638 19.0623 12.575 19.513 11.4869C19.9637 10.3987 20.1957 9.23239 20.1957 8.05456C20.1957 6.87672 19.9637 5.71042 19.513 4.62225C19.0623 3.53407 18.4016 2.54533 17.5687 1.71248C17.1782 1.32196 17.1782 0.688795 17.5687 0.298269ZM8.01694 3.43175C8.40753 3.82221 8.40762 4.45538 8.01716 4.84596C7.16635 5.69702 6.68839 6.85116 6.68839 8.05456C6.68839 9.25796 7.16635 10.4121 8.01716 11.2632C8.40762 11.6537 8.40753 12.2869 8.01694 12.6774C7.62636 13.0678 6.99319 13.0677 6.60273 12.6772C5.37698 11.451 4.68839 9.78829 4.68839 8.05456C4.68839 6.32083 5.37698 4.65808 6.60273 3.43196C6.99319 3.04138 7.62636 3.04128 8.01694 3.43175ZM14.4364 3.43175C14.8269 3.04128 15.4601 3.04138 15.8506 3.43196C17.0763 4.65808 17.7649 6.32083 17.7649 8.05456C17.7649 9.78829 17.0763 11.451 15.8506 12.6772C15.4601 13.0677 14.8269 13.0678 14.4364 12.6774C14.0458 12.2869 14.0457 11.6537 14.4361 11.2632C15.287 10.4121 15.7649 9.25796 15.7649 8.05456C15.7649 6.85116 15.287 5.69702 14.4361 4.84596C14.0457 4.45538 14.0458 3.82221 14.4364 3.43175Z" fill="#3C6B95"/>
<path fill-rule="evenodd" clip-rule="evenodd" d="M11.1467 5.35303C10.7937 5.35303 10.5076 5.63916 10.5076 5.99213V7.54567H8.95404C8.60108 7.54567 8.31494 7.8318 8.31494 8.18477C8.31494 8.53774 8.60108 8.82388 8.95404 8.82388H10.5076V10.3774C10.5076 10.7304 10.7937 11.0165 11.1467 11.0165C11.4996 11.0165 11.7858 10.7304 11.7858 10.3774V8.82388H13.3393C13.6923 8.82388 13.9784 8.53774 13.9784 8.18477C13.9784 7.83181 13.6923 7.54567 13.3393 7.54567H11.7858V5.99213C11.7858 5.63916 11.4996 5.35303 11.1467 5.35303Z" fill="#3C6B95"/>
</svg>
