<svg width="8" height="9" viewBox="0 0 8 9" fill="none" xmlns="http://www.w3.org/2000/svg">
<path fill-rule="evenodd" clip-rule="evenodd" d="M7.58245 4.85004C7.67974 4.94734 7.73439 5.07928 7.73439 5.21686C7.73439 5.35444 7.67974 5.48639 7.58245 5.58369L4.46872 8.69675C4.3714 8.79402 4.23943 8.84866 4.10182 8.84866C3.96421 8.84866 3.83224 8.79402 3.73492 8.69675L0.621199 5.58369C0.571634 5.53582 0.532099 5.47857 0.504901 5.41527C0.477703 5.35197 0.463387 5.28389 0.462788 5.215C0.462189 5.1461 0.47532 5.07778 0.501413 5.01402C0.527507 4.95026 0.566041 4.89233 0.614767 4.84361C0.663493 4.79489 0.721435 4.75637 0.785212 4.73028C0.84899 4.70419 0.917326 4.69107 0.986232 4.69166C1.05514 4.69226 1.12324 4.70658 1.18655 4.73377C1.24986 4.76096 1.30713 4.80049 1.355 4.85004L3.58287 7.07744V1.06612C3.58287 0.928509 3.63754 0.796539 3.73487 0.699237C3.83219 0.601935 3.96419 0.547272 4.10182 0.547272C4.23946 0.547272 4.37146 0.601935 4.46878 0.699237C4.5661 0.796539 4.62078 0.928509 4.62078 1.06612V7.07744L6.84865 4.85004C6.94596 4.75277 7.07794 4.69813 7.21555 4.69813C7.35315 4.69813 7.48513 4.75277 7.58245 4.85004Z" fill="#2C79EE"/>
</svg>
