<svg width="13" height="13" viewBox="0 0 13 13" fill="none" xmlns="http://www.w3.org/2000/svg">
<path fill-rule="evenodd" clip-rule="evenodd" d="M6.70562 0.724731C5.96148 0.724731 5.35824 1.32797 5.35824 2.07211V5.34727H2.0831C1.33896 5.34727 0.735718 5.95052 0.735718 6.69465C0.735718 7.43879 1.33896 8.04203 2.0831 8.04203H5.35824V11.3172C5.35824 12.0613 5.96148 12.6646 6.70562 12.6646C7.44976 12.6646 8.053 12.0613 8.053 11.3172V8.04203H11.3282C12.0723 8.04203 12.6756 7.43879 12.6756 6.69465C12.6756 5.95052 12.0723 5.34728 11.3282 5.34728H8.053V2.07211C8.053 1.32797 7.44976 0.724731 6.70562 0.724731Z" fill="#3C6B95"/>
</svg>
