<svg width="8" height="9" viewBox="0 0 8 9" fill="none" xmlns="http://www.w3.org/2000/svg">
<path fill-rule="evenodd" clip-rule="evenodd" d="M7.49303 4.54589C7.59032 4.4486 7.64497 4.31665 7.64497 4.17907C7.64497 4.04149 7.59032 3.90955 7.49303 3.81225L4.37931 0.699187C4.28199 0.601919 4.15001 0.547277 4.01241 0.547277C3.8748 0.547277 3.74282 0.601919 3.64551 0.699187L0.531783 3.81225C0.482217 3.86011 0.442682 3.91736 0.415484 3.98066C0.388286 4.04396 0.37397 4.11205 0.373372 4.18094C0.372773 4.24983 0.385903 4.31815 0.411997 4.38192C0.43809 4.44568 0.476624 4.50361 0.52535 4.55232C0.574076 4.60104 0.632018 4.63957 0.695796 4.66565C0.759573 4.69174 0.827909 4.70487 0.896815 4.70427C0.965722 4.70367 1.03382 4.68936 1.09713 4.66217C1.16045 4.63498 1.21771 4.59545 1.26558 4.54589L3.49345 2.3185V8.32982C3.49345 8.46743 3.54813 8.5994 3.64545 8.6967C3.74277 8.794 3.87477 8.84866 4.01241 8.84866C4.15004 8.84866 4.28204 8.794 4.37936 8.6967C4.47668 8.5994 4.53136 8.46743 4.53136 8.32982V2.3185L6.75923 4.54589C6.85655 4.64316 6.98852 4.6978 7.12613 4.6978C7.26374 4.6978 7.39571 4.64316 7.49303 4.54589Z" fill="#0DB88F"/>
</svg>
