<svg width="17" height="17" viewBox="0 0 17 17" fill="none" xmlns="http://www.w3.org/2000/svg">
<path fill-rule="evenodd" clip-rule="evenodd" d="M14.3528 13.9044C12.8525 15.4047 10.8177 16.2475 8.69592 16.2475C6.57419 16.2475 4.53937 15.4047 3.03906 13.9044C1.53879 12.4041 0.695923 10.3693 0.695923 8.24754C0.695923 6.12581 1.53879 4.09098 3.03906 2.59069C4.53937 1.0904 6.57419 0.247543 8.69592 0.247543C10.8177 0.247543 12.8525 1.0904 14.3528 2.59069C15.8531 4.09098 16.6959 6.12581 16.6959 8.24754C16.6959 10.3693 15.8531 12.4041 14.3528 13.9044ZM12.6836 6.38001C12.6859 6.6422 12.5851 6.8948 12.403 7.08341L8.40295 11.0834C8.21542 11.2709 7.96112 11.3762 7.69595 11.3762C7.43079 11.3762 7.17648 11.2709 6.98895 11.0834L4.98895 9.08341C4.80679 8.89481 4.70602 8.6422 4.70828 8.38001C4.71057 8.11781 4.81573 7.867 5.00116 7.68159C5.18655 7.49618 5.43738 7.39101 5.69955 7.38873C5.96176 7.38646 6.21436 7.48725 6.40295 7.66941L7.69595 8.96241L10.989 5.66941C11.1776 5.48725 11.4302 5.38645 11.6924 5.38873C11.9546 5.39101 12.2054 5.49618 12.3908 5.68159C12.5762 5.867 12.6814 6.11781 12.6836 6.38001Z" fill="#2C79EE"/>
</svg>
