<svg width="43" height="43" viewBox="0 0 43 43" fill="none" xmlns="http://www.w3.org/2000/svg">
<ellipse cx="21.9712" cy="21.5" rx="21" ry="21.5" fill="#13F27A"/>
<path d="M22.0314 28.476L22.0314 16.9272C21.0625 16.9272 19.5704 16.9078 19.1248 17.0435C18.3614 17.2758 16.2599 17.5341 17.3615 23.593C18.2916 28.7085 20.8493 28.476 22.0314 28.476Z" stroke="black" stroke-width="2"/>
<path d="M22.0586 28.476L22.0586 16.9272C23.0275 16.9272 24.5195 16.9078 24.9652 17.0435C25.7285 17.2758 27.8301 17.5341 26.7285 23.593C25.7984 28.7085 23.2406 28.476 22.0586 28.476Z" stroke="black" stroke-width="2"/>
<path d="M24.4513 17.3487V15.2071C24.4513 14.1025 23.5558 13.2071 22.4513 13.2071H21.6651C20.5605 13.2071 19.6651 14.1025 19.6651 15.2071V17.3487" stroke="black" stroke-width="2"/>
<path d="M19.6481 10.5203L21.4114 13.0393H22.6903L24.4149 10.5203" stroke="black" stroke-width="2" stroke-linecap="round"/>
<path d="M17.0905 19.7952L14.1451 18.9814L12.5562 16.7917" stroke="black" stroke-width="2" stroke-linecap="round"/>
<path d="M27.0267 19.7952L29.9721 18.9814L31.561 16.7917" stroke="black" stroke-width="2" stroke-linecap="round"/>
<path d="M17.2261 22.6243H14.1063L12.6337 24.8527" stroke="black" stroke-width="2" stroke-linecap="round"/>
<path d="M26.8911 22.6243H30.0109L31.4835 24.8527" stroke="black" stroke-width="2" stroke-linecap="round"/>
<path d="M17.8269 25.55L15.521 27.1002V29.8711" stroke="black" stroke-width="2" stroke-linecap="round"/>
<path d="M26.2903 25.55L28.5962 27.1002V29.8711" stroke="black" stroke-width="2" stroke-linecap="round"/>
</svg>
