<?xml version="1.0" encoding="UTF-8"?>
<svg width="112px" height="37px" viewBox="0 0 112 37" version="1.1" xmlns="http://www.w3.org/2000/svg" xmlns:xlink="http://www.w3.org/1999/xlink">
    <!-- Generator: Sketch 52.2 (67145) - http://www.bohemiancoding.com/sketch -->
    <title>logo-horizontalwhite copy 5</title>
    <desc>Created with Sketch.</desc>
    <g id="Page-1" stroke="none" stroke-width="1" fill="none" fill-rule="evenodd">
        <g id="Artboard" transform="translate(-251.000000, -186.000000)" fill="#888888" fill-rule="nonzero">
            <g id="logo-horizontalwhite-copy-5" transform="translate(251.000000, 186.000000)">
                <path d="M28.459635,14.4267688 C27.865432,15.0210466 27.133095,15.3931128 26.365977,15.5434212 C27.434921,18.420527 26.741597,21.7129467 24.547004,23.907389 C23.032351,25.4220413 20.994115,26.2237113 18.930625,26.2237113 C18.001707,26.2237113 17.068177,26.0589618 16.174643,25.7256067 C16.025847,26.4968069 15.652949,27.2334542 15.055723,27.8307563 C13.465009,29.4213943 10.886025,29.4213943 9.295311,27.8307563 C7.704673,26.2401182 7.704673,23.660983 9.295311,22.0703449 C9.889136,21.4765964 10.620868,21.1046815 11.387305,20.9541462 C10.297569,18.0679675 10.986584,14.7558898 13.191006,12.5514672 C15.393463,10.3487835 18.70176,9.6590887 21.586124,10.7447419 C21.738323,9.9832195 22.109028,9.2567793 22.699223,8.6663575 C24.289937,7.0757194 26.868996,7.0757194 28.459635,8.6663575 C30.050348,10.2570712 30.050348,12.8361308 28.459635,14.4267688 Z M18.869005,0.257025 C8.927933,0.257025 0.869043,8.3159151 0.869043,18.2570628 C0.869043,28.1981348 8.927933,36.257025 18.869005,36.257025 C28.810153,36.257025 36.869043,28.1981348 36.869043,18.2570628 C36.869043,8.3159151 28.810153,0.257025 18.869005,0.257025 Z M20.995703,20.3560124 C19.832022,21.5198442 17.945153,21.5198442 16.781396,20.3560124 C15.617716,19.192332 15.617716,17.3055379 16.781396,16.1417818 C17.945153,14.9781014 19.832022,14.9781014 20.995703,16.1417818 C22.159459,17.3055379 22.159459,19.192332 20.995703,20.3560124 Z M23.653697,9.6208311 C23.041046,10.2334059 22.760163,11.1102302 22.902306,11.9663379 C22.95198,12.2465407 22.921964,12.5348334 22.797362,12.8038461 C22.63662,13.1509619 22.35052,13.4000897 22.017845,13.5225744 C21.684415,13.6452105 21.304258,13.6405984 20.956689,13.4795536 C19.005477,12.5759641 16.672748,12.9912781 15.151745,14.5122813 C13.630968,16.0330577 13.215881,18.3654845 14.11879,20.316394 C14.282028,20.6691046 14.283842,21.0547802 14.155838,21.3913864 C14.031539,21.7180879 13.785133,21.9985931 13.442932,22.1570672 C13.254517,22.244243 13.056349,22.2856761 12.861356,22.2856761 C12.768736,22.2856761 12.677629,22.2731252 12.587731,22.2549793 C11.697222,22.1330238 10.864552,22.409673 10.260446,23.0140067 C9.752361,23.5220159 9.472536,24.197572 9.472536,24.9162247 C9.472536,25.6346505 9.752361,26.3101311 10.260446,26.8184427 C11.309429,27.8668969 13.015974,27.8668969 14.064731,26.8184427 C14.67723,26.2054898 14.958189,25.3287411 14.81597,24.4730115 C14.808258,24.426059 14.809997,24.3803918 14.81597,24.3357075 C14.799715,24.1091865 14.838426,23.8755581 14.940648,23.6549344 C15.100709,23.3091041 15.385449,23.0606567 15.716535,22.9377939 C16.050798,22.8137214 16.432391,22.817653 16.781321,22.979227 C18.732684,23.8830434 21.065262,23.4672757 22.586265,21.9465749 C24.107117,20.4257229 24.522204,18.0932206 23.619144,16.1423867 C23.459763,15.7981441 23.454092,15.4221463 23.573099,15.0912106 C23.694223,14.754302 23.944485,14.4640435 24.295078,14.3017134 C24.541257,14.1876212 24.803617,14.1534464 25.054332,14.1860334 C25.093195,14.1814969 25.132662,14.1800604 25.173188,14.1858066 C26.021357,14.306628 26.853572,14.0295251 27.45783,13.4250403 C28.506663,12.3762081 28.506663,10.6696632 27.45783,9.6208311 C26.409074,8.5718477 24.702453,8.5718477 23.653697,9.6208311 Z M71.677312,23.7241912 C71.778021,23.7157988 71.853629,23.7115646 71.903984,23.7115646 L71.903984,26.3564031 C71.316209,26.4738977 70.854471,26.5327206 70.518546,26.5327206 C69.393425,26.5327206 68.516072,26.2472254 67.886409,25.6763104 C67.256672,25.1053955 66.94184,24.2153399 66.94184,23.0062947 L66.94184,8.1702944 L70.115556,8.1702944 L70.115556,22.4773421 C70.115556,22.8971925 70.199556,23.2120235 70.367406,23.421911 C70.535331,23.631874 70.871181,23.7367421 71.374956,23.7367421 C71.475741,23.7367421 71.576526,23.7325837 71.677312,23.7241912 Z M73.421585,26.3815805 L76.620553,26.3815805 L76.620553,13.283578 L73.421585,13.283578 L73.421585,26.3815805 Z M87.10517,13.283578 L90.253784,13.283578 L90.253784,26.3815805 L87.634123,26.3815805 L87.40745,24.6687601 C87.088461,25.3068905 86.593003,25.8064316 85.921302,26.1675347 C85.249602,26.5284865 84.493977,26.7090382 83.654352,26.7090382 C82.260597,26.7090382 81.156571,26.2808708 80.342048,25.4244606 C79.527675,24.5679748 79.120451,23.4345375 79.120451,22.0239974 L79.120451,13.283578 L82.268989,13.283578 L82.268989,21.3187273 C82.268989,22.9811172 83.02469,23.8123499 84.53594,23.8123499 C85.17407,23.8123499 85.711415,23.5940701 86.14805,23.1574348 C86.786181,22.5697349 87.10517,21.5874376 87.10517,20.2104673 L87.10517,13.283578 Z M111.493996,17.5404515 L111.493996,26.3815805 L108.37056,26.3815805 L108.37056,18.2457216 C108.37056,17.3893114 108.223654,16.7511812 107.929766,16.3313308 C107.635879,15.9115559 107.11116,15.7016685 106.355535,15.7016685 C105.532695,15.7016685 104.898799,16.0585376 104.453771,16.7722001 C104.008818,17.485787 103.786229,18.3044689 103.786229,19.2280189 L103.786229,26.3815805 L100.662944,26.3815805 L100.662944,18.2457216 C100.662944,17.3893114 100.515962,16.7511812 100.22215,16.3313308 C99.928263,15.9115559 99.403468,15.7016685 98.647768,15.7016685 C97.825079,15.7016685 97.186873,16.0585376 96.733453,16.7722001 C96.280108,17.485787 96.053436,18.3044689 96.053436,19.2280189 L96.053436,26.3815805 L92.929999,26.3815805 L92.929999,13.283578 L95.54966,13.283578 L95.80151,15.0215758 C96.641135,13.6446055 97.883826,12.9561205 99.529431,12.9561205 C101.326176,12.9561205 102.577259,13.669783 103.282529,15.0971081 C104.10537,13.669783 105.423517,12.9561205 107.237123,12.9561205 C108.597308,12.9561205 109.646821,13.3716612 110.385661,14.2029695 C111.124501,15.0342024 111.493996,16.1466964 111.493996,17.5404515 Z M73.3208,11.4699724 L76.696086,11.4699724 L76.696086,8.2206492 L73.3208,8.2206492 L73.3208,11.4699724 Z M50.581888,14.2659509 C51.371083,15.1390704 51.765756,16.2641909 51.765756,17.6411612 L51.765756,26.3815805 L48.617143,26.3815805 L48.617143,18.2960764 C48.617143,17.4900211 48.453452,16.8813022 48.125994,16.4699199 C47.798536,16.0585376 47.240248,15.8528086 46.450977,15.8528086 C45.577707,15.8528086 44.910241,16.226387 44.448503,16.973695 C43.986691,17.7209275 43.755784,18.5563943 43.755784,19.4798686 L43.755784,26.3815805 L40.607246,26.3815805 L40.607246,8.1954718 L43.755784,8.1954718 L43.755784,14.6689407 C44.125204,14.1315958 44.637372,13.7117454 45.292287,13.4094652 C45.947202,13.1072606 46.627295,12.9561205 47.332565,12.9561205 C48.709535,12.9561205 49.792618,13.3926801 50.581888,14.2659509 Z M56.507503,18.5227488 C56.524288,17.7167691 56.75096,17.0366764 57.187595,16.4824708 C57.691295,15.8108462 58.421742,15.4749206 59.378938,15.4749206 C60.235424,15.4749206 60.898656,15.7268459 61.368861,16.230621 C61.889421,16.801536 62.158056,17.565629 62.174916,18.5227488 L56.507503,18.5227488 Z M59.404115,12.9561205 C57.691295,12.9561205 56.29754,13.5102503 55.22285,14.6185859 C53.963374,15.9115559 53.333712,17.6579462 53.333712,19.8578323 C53.333712,22.0575673 54.005412,23.8039575 55.348812,25.0969274 C56.473933,26.1716175 57.850828,26.7090382 59.479648,26.7090382 C61.377253,26.7090382 62.846617,26.0960853 63.887661,24.870255 C64.542576,24.0810603 64.911996,23.275005 64.995997,22.4521647 L61.973346,22.4521647 C61.855776,22.8887244 61.645964,23.2582201 61.343684,23.5604245 C60.923833,23.980275 60.285779,24.1901624 59.429293,24.1901624 C58.707313,24.1901624 58.060791,23.9215278 57.4898,23.3841071 C56.8181,22.7460524 56.49911,21.8896422 56.53268,20.8149521 L65.298201,20.8149521 C65.298201,20.6301666 65.306669,20.3363545 65.323379,19.9333646 C65.373809,18.1197589 64.995997,16.600041 64.189941,15.3742108 C63.115251,13.7621002 61.520001,12.9561205 59.404115,12.9561205 Z" id="Fill-1-Copy"></path>
            </g>
        </g>
    </g>
</svg>