<svg xmlns="http://www.w3.org/2000/svg" id="prefix__Logo_YOSENSI_menu" width="204.003" height="53.229" viewBox="0 0 204.003 53.229">
    <defs>
        <style>
            .prefix__cls-1{fill:#fff;fill-rule:evenodd}
        </style>
    </defs>
    <g id="prefix___105553341171936">
        <path id="prefix__Path_825" d="M1.33 1.33v50.549h201.343V1.33H1.33zM0 0h204v53.229H0z" class="prefix__cls-1" data-name="Path 825"/>
        <path id="prefix__Path_826" d="M129.987 24.226h-5.509V.546h5.509zM119.575 5.379a2.192 2.192 0 0 1-.508.581 1.179 1.179 0 0 1-.7.192 1.6 1.6 0 0 1-.8-.241c-.291-.148-.606-.34-.966-.532a9.006 9.006 0 0 0-1.256-.532 5.179 5.179 0 0 0-1.6-.241 3.433 3.433 0 0 0-2.3.65 2.215 2.215 0 0 0-.749 1.764 1.578 1.578 0 0 0 .458 1.183 4.443 4.443 0 0 0 1.183.823 15.821 15.821 0 0 0 1.69.631c.631.192 1.281.409 1.931.631a18.934 18.934 0 0 1 1.931.823 6.511 6.511 0 0 1 1.69 1.207 5.525 5.525 0 0 1 1.183 1.789 6.164 6.164 0 0 1 .458 2.538 8.512 8.512 0 0 1-.557 3.07 7.184 7.184 0 0 1-1.641 2.488 8.01 8.01 0 0 1-2.661 1.665 9.914 9.914 0 0 1-3.6.606 12.372 12.372 0 0 1-2.247-.217 14 14 0 0 1-2.222-.631 13.013 13.013 0 0 1-2.005-.966 8.143 8.143 0 0 1-1.646-1.256l1.621-2.611a1.367 1.367 0 0 1 1.207-.65 1.839 1.839 0 0 1 .99.315c.34.217.7.434 1.109.675a8.7 8.7 0 0 0 1.424.675 5.115 5.115 0 0 0 1.912.315 3.693 3.693 0 0 0 2.321-.65 2.475 2.475 0 0 0 .823-2.079 1.916 1.916 0 0 0-.458-1.355 4.054 4.054 0 0 0-1.183-.872 11.929 11.929 0 0 0-1.69-.606c-.631-.172-1.281-.365-1.931-.581a18.569 18.569 0 0 1-1.931-.774A6.383 6.383 0 0 1 107.2 12a5.678 5.678 0 0 1-1.183-1.887 7.244 7.244 0 0 1-.458-2.779 6.319 6.319 0 0 1 .532-2.587 7.377 7.377 0 0 1 1.572-2.271A7.982 7.982 0 0 1 110.2.9a9.62 9.62 0 0 1 3.454-.606 12.646 12.646 0 0 1 2.124.168 13.236 13.236 0 0 1 1.956.508 10.161 10.161 0 0 1 1.739.8 7.945 7.945 0 0 1 1.427 1.062l-1.33 2.538zM84.735.57a4.447 4.447 0 0 1 .606.03 1.121 1.121 0 0 1 .434.123 1.02 1.02 0 0 1 .365.266 4 4 0 0 1 .409.434l11.233 14.2c-.049-.458-.074-.892-.1-1.33s-.025-.823-.025-1.207V.57h4.834v23.68H99.64a2.851 2.851 0 0 1-1.064-.192 2.136 2.136 0 0 1-.847-.724L86.568 9.247c.025.409.049.823.074 1.207s.025.774.025 1.109v12.688h-4.835V.57h2.9zm-5.992 0V4.8h-9.716v5.509h7.445v4.06h-7.445v5.652h9.717v4.228H63.5V.566h15.243zM59.1 5.379a2.192 2.192 0 0 1-.508.581 1.179 1.179 0 0 1-.7.192 1.6 1.6 0 0 1-.8-.241c-.291-.148-.606-.34-.966-.532a9.006 9.006 0 0 0-1.256-.532 5.179 5.179 0 0 0-1.6-.241 3.433 3.433 0 0 0-2.3.65 2.215 2.215 0 0 0-.749 1.764 1.578 1.578 0 0 0 .466 1.18 4.443 4.443 0 0 0 1.183.823 15.821 15.821 0 0 0 1.69.631c.631.192 1.281.409 1.931.631a18.934 18.934 0 0 1 1.931.823 6.511 6.511 0 0 1 1.69 1.207 5.525 5.525 0 0 1 1.188 1.791 6.164 6.164 0 0 1 .458 2.538 8.512 8.512 0 0 1-.557 3.07 7.184 7.184 0 0 1-1.645 2.486 8.01 8.01 0 0 1-2.656 1.667 9.914 9.914 0 0 1-3.6.606 12.373 12.373 0 0 1-2.247-.217 14 14 0 0 1-2.222-.631 13.013 13.013 0 0 1-2.005-.966 8.143 8.143 0 0 1-1.653-1.259l1.621-2.611A1.367 1.367 0 0 1 47 18.141a1.839 1.839 0 0 1 .99.315c.34.217.7.434 1.109.675a8.7 8.7 0 0 0 1.424.675 5.115 5.115 0 0 0 1.912.315 3.693 3.693 0 0 0 2.321-.65 2.475 2.475 0 0 0 .823-2.079 1.916 1.916 0 0 0-.458-1.355 4.054 4.054 0 0 0-1.183-.872 11.929 11.929 0 0 0-1.69-.606c-.631-.172-1.281-.365-1.931-.581a18.569 18.569 0 0 1-1.931-.774A6.383 6.383 0 0 1 46.721 12a5.678 5.678 0 0 1-1.183-1.887 7.244 7.244 0 0 1-.458-2.779 6.319 6.319 0 0 1 .532-2.587 7.618 7.618 0 0 1 1.572-2.271A7.982 7.982 0 0 1 49.722.9a9.62 9.62 0 0 1 3.454-.606A12.646 12.646 0 0 1 55.3.462a13.236 13.236 0 0 1 1.955.508 10.162 10.162 0 0 1 1.739.8 7.945 7.945 0 0 1 1.424 1.064l-1.33 2.536zm112.888 7.347a12.818 12.818 0 0 0-.675-4.326 8.993 8.993 0 0 0-1.887-3.262 7.669 7.669 0 0 0-2.9-2.03 10.437 10.437 0 0 0-7.514 0 7.914 7.914 0 0 0-2.922 2.03 9.4 9.4 0 0 0-1.906 3.262 12.719 12.719 0 0 0-.675 4.326 12.621 12.621 0 0 0 .675 4.326 9.358 9.358 0 0 0 1.907 3.237 7.954 7.954 0 0 0 2.922 2.03 9.843 9.843 0 0 0 3.745.7 9.971 9.971 0 0 0 3.769-.7 7.63 7.63 0 0 0 2.9-2.03 9.973 9.973 0 0 0 1.887-3.237 12.62 12.62 0 0 0 .675-4.326zm1.715.025a13.971 13.971 0 0 1-.8 4.834 10.571 10.571 0 0 1-2.247 3.7 9.858 9.858 0 0 1-3.454 2.365 11.592 11.592 0 0 1-4.469.847 11.307 11.307 0 0 1-4.42-.847 9.945 9.945 0 0 1-3.454-2.365 11.039 11.039 0 0 1-2.247-3.7 13.971 13.971 0 0 1-.8-4.834 13.971 13.971 0 0 1 .8-4.834 10.571 10.571 0 0 1 2.247-3.7 10.258 10.258 0 0 1 3.454-2.39 11.522 11.522 0 0 1 4.42-.847 11.664 11.664 0 0 1 4.469.847 9.891 9.891 0 0 1 3.454 2.37 10.911 10.911 0 0 1 2.247 3.72 13.972 13.972 0 0 1 .8 4.834zm-27.934 11.475h-1.69V1.245h1.69zm-105.518-11.5a12.818 12.818 0 0 0-.675-4.326 9.314 9.314 0 0 0-1.862-3.262 7.669 7.669 0 0 0-2.9-2.03 10.437 10.437 0 0 0-7.514 0 7.914 7.914 0 0 0-2.922 2.03A9.482 9.482 0 0 0 22.469 8.4a12.719 12.719 0 0 0-.675 4.326 12.621 12.621 0 0 0 .675 4.326 9.292 9.292 0 0 0 1.912 3.237 7.954 7.954 0 0 0 2.922 2.03 9.861 9.861 0 0 0 3.745.7 9.971 9.971 0 0 0 3.769-.7 7.631 7.631 0 0 0 2.9-2.03 9.505 9.505 0 0 0 1.862-3.237 13.244 13.244 0 0 0 .675-4.326zm1.715.025a13.972 13.972 0 0 1-.8 4.834 10.571 10.571 0 0 1-2.247 3.7 9.858 9.858 0 0 1-3.454 2.365 11.592 11.592 0 0 1-4.465.842 11.325 11.325 0 0 1-4.42-.847 9.945 9.945 0 0 1-3.454-2.365 11.039 11.039 0 0 1-2.247-3.7 13.972 13.972 0 0 1-.8-4.834 13.972 13.972 0 0 1 .8-4.834 10.571 10.571 0 0 1 2.247-3.7 10.258 10.258 0 0 1 3.454-2.39A11.522 11.522 0 0 1 31 .984a11.646 11.646 0 0 1 4.469.847A9.891 9.891 0 0 1 38.921 4.2a10.911 10.911 0 0 1 2.247 3.72 13.972 13.972 0 0 1 .8 4.834zm-31.485 2.005v9.495h-1.69v-9.495L.311 1.25H1.76a.579.579 0 0 1 .365.1 1.1 1.1 0 0 1 .266.315l6.572 10.558a4.688 4.688 0 0 1 .384.724c.1.241.217.458.291.7.1-.241.192-.483.291-.7a5.726 5.726 0 0 1 .384-.724l6.549-10.559a1.027 1.027 0 0 1 .241-.291.59.59 0 0 1 .365-.123h1.454l-8.436 13.506z" class="prefix__cls-1" data-name="Path 826" transform="translate(15.013 14.216)"/>
        <path id="prefix__Path_827" d="M3.012 3.451a2.789 2.789 0 0 1 .217-1.089 2.418 2.418 0 0 1 .606-.862 3.305 3.305 0 0 1 .9-.606 2.834 2.834 0 0 1 1.13-.222 2.781 2.781 0 0 1 1.108.217 2.83 2.83 0 0 1 .917.611 2.506 2.506 0 0 1 .606.867 2.687 2.687 0 0 1 .217 1.089A2.789 2.789 0 0 1 8.5 4.54a3.1 3.1 0 0 1-.606.892 3.062 3.062 0 0 1-.916.581 2.8 2.8 0 0 1-1.109.217 2.9 2.9 0 0 1-1.133-.217 2.874 2.874 0 0 1-.9-.581 2.6 2.6 0 0 1-.606-.892 2.772 2.772 0 0 1-.218-1.089z" class="prefix__cls-1" data-name="Path 827" transform="translate(145.392 32.454)"/>
        <path id="prefix__Path_828" fill="none" fill-rule="evenodd" stroke="#5eb030" stroke-miterlimit="22.926" stroke-width="0.009px" d="M3.012 3.451a2.789 2.789 0 0 1 .217-1.089 2.418 2.418 0 0 1 .606-.862 3.305 3.305 0 0 1 .9-.606 2.834 2.834 0 0 1 1.13-.222 2.781 2.781 0 0 1 1.108.217 2.83 2.83 0 0 1 .917.611 2.506 2.506 0 0 1 .606.867 2.687 2.687 0 0 1 .217 1.089A2.789 2.789 0 0 1 8.5 4.54a3.1 3.1 0 0 1-.606.892 3.062 3.062 0 0 1-.916.581 2.8 2.8 0 0 1-1.109.217 2.9 2.9 0 0 1-1.133-.217 2.874 2.874 0 0 1-.9-.581 2.6 2.6 0 0 1-.606-.892 2.772 2.772 0 0 1-.218-1.089z" data-name="Path 828" transform="translate(145.392 32.454)"/>
        <path id="prefix__Path_829" fill="#46c805" fill-rule="evenodd" d="M5.86.672a2.9 2.9 0 0 0-1.133.217 2.494 2.494 0 0 0-.892.606 2.48 2.48 0 0 0-.606.872 2.783 2.783 0 0 0 .606 3.07 3.276 3.276 0 0 0 .892.581 2.921 2.921 0 0 0 1.133.217 2.781 2.781 0 0 0 1.109-.217 3.332 3.332 0 0 0 .916-.581 2.6 2.6 0 0 0 .606-.892 2.843 2.843 0 0 0 0-2.178 2.848 2.848 0 0 0-.605-.867 3.126 3.126 0 0 0-.917-.611A2.887 2.887 0 0 0 5.86.672z" data-name="Path 829" transform="translate(145.421 32.454)"/>
    </g>
</svg>
