<?xml version="1.0" encoding="UTF-8"?>
<!DOCTYPE svg PUBLIC "-//W3C//DTD SVG 20010904//EN"
 "http://www.w3.org/TR/2001/REC-SVG-20010904/DTD/svg10.dtd">
<svg version="1.0" xmlns="http://www.w3.org/2000/svg"
 width="100.000000pt" height="100.000000pt" viewBox="0 0 100.000000 100.000000"
 preserveAspectRatio="xMidYMid meet">
  <g transform="translate(0.000000,100.000000) scale(0.100000,-0.100000)"
  fill="#000000" stroke="none">
  <path d="M102 979 c-26 -13 -55 -39 -70 -62 l-27 -41 0 -376 0 -376 27 -41
  c16 -24 44 -49 70 -62 43 -20 58 -21 398 -21 340 0 355 1 398 21 26 13 54 38
  70 62 l27 41 0 376 0 376 -27 41 c-16 24 -44 49 -70 62 -43 20 -58 21 -399 21
  -342 0 -355 -1 -397 -21z m242 -245 c12 -11 16 -36 16 -92 l0 -77 21 42 c99
  200 392 173 454 -42 46 -156 -71 -308 -235 -307 -95 0 -178 51 -219 135 l-21
  42 0 -75 c0 -41 -4 -81 -9 -89 -14 -22 -106 -27 -136 -7 l-25 16 0 220 c0 215
  0 219 22 234 30 21 112 21 132 0z"/>
  <path d="M596 633 c-15 -21 -26 -43 -26 -48 0 -7 -21 -10 -60 -7 -73 5 -76 -4
  -21 -59 21 -22 35 -39 31 -39 -8 0 -40 -72 -40 -90 0 -16 32 -12 71 8 l36 18
  36 -33 c52 -47 60 -44 55 27 -4 50 -2 60 12 60 9 0 31 13 50 29 l35 29 -30 12
  c-16 6 -44 12 -62 13 -17 0 -29 5 -26 10 6 10 -16 95 -28 103 -4 2 -19 -12
  -33 -33z m24 -92 c0 -6 -4 -13 -10 -16 -5 -3 -10 1 -10 9 0 9 5 16 10 16 6 0
  10 -4 10 -9z m-42 -29 c2 -7 -2 -10 -12 -6 -9 3 -16 11 -16 16 0 13 23 5 28
  -10z m82 -6 c0 -9 -30 -14 -35 -6 -4 6 3 10 14 10 12 0 21 -2 21 -4z m-75 -35
  c-3 -6 -11 -11 -17 -11 -6 0 -6 6 2 15 14 17 26 13 15 -4z m45 -12 c0 -5 -4
  -9 -10 -9 -5 0 -10 7 -10 16 0 8 5 12 10 9 6 -3 10 -10 10 -16z"/>
  </g>
</svg>
