<?xml version="1.0" encoding="UTF-8"?>
<svg width="129px" height="130px" viewBox="0 0 129 130" version="1.1" xmlns="http://www.w3.org/2000/svg" xmlns:xlink="http://www.w3.org/1999/xlink">
    <!-- Generator: Sketch 63.1 (92452) - https://sketch.com -->
    <title>Group 29 Copy</title>
    <desc>Created with Sketch.</desc>
    <defs>
        <path d="M23.1755597,0 L105.512167,0 C118.311675,0 128.687727,10.3760515 128.687727,23.1755597 L128.687727,105.512167 C128.687727,118.311675 118.311675,128.687727 105.512167,128.687727 L23.1755597,128.687727 C10.3760515,128.687727 0,118.311675 0,105.512167 L0,23.1755597 C0,10.3760515 10.3760515,0 23.1755597,0 Z" id="path-1"></path>
        <polygon id="path-3" points="2.42772495e-05 0 78.5413184 0 78.5413184 78.6928354 2.42772495e-05 78.6928354"></polygon>
    </defs>
    <g id="Page-2" stroke="none" stroke-width="1" fill="none" fill-rule="evenodd">
        <g id="Group-29-Copy" transform="translate(0.000000, 0.784894)">
            <mask id="mask-2" fill="white">
                <use xlink:href="#path-1"></use>
            </mask>
            <use id="Rectangle-Copy-53" fill="#E7862A" xlink:href="#path-1"></use>
            <g id="Group-3" mask="url(#mask-2)">
                <g transform="translate(25.063371, 24.945412)">
                    <mask id="mask-4" fill="white">
                        <use xlink:href="#path-3"></use>
                    </mask>
                    <g id="Clip-2" stroke="none" fill="none"></g>
                    <path d="M74.0843999,38.7204914 C74.0631672,35.6339648 71.5796492,33.1815881 68.5237921,33.2297156 C65.5540453,33.2764275 63.1538067,35.7750443 63.1535708,38.8195773 C63.1533349,41.8077257 65.6318985,44.2216476 68.6846887,44.206853 C71.731581,44.19145 74.1051607,41.7801232 74.0843999,38.7204914 L74.0843999,38.7204914 Z M9.79202507,44.2065488 C12.8422201,44.2284893 15.329041,41.8204654 15.3404067,38.8342043 C15.3519251,35.7976925 12.9528661,33.2884594 9.98288343,33.2301874 C6.93032916,33.1704999 4.43359975,35.6221689 4.40694092,38.7058644 C4.38075392,41.7685632 6.7458406,44.1846084 9.79202507,44.2065488 L9.79202507,44.2065488 Z M39.4243789,4.57419858 C36.3689936,4.55613601 33.9005745,6.93891661 33.8658944,9.94027648 C33.8307425,12.9831581 36.3270001,15.4867291 39.3896989,15.4796665 C42.4113478,15.4730458 44.8089912,13.1379209 44.8479179,10.1639276 C44.8889677,7.03021721 42.524117,4.59293936 39.4243789,4.57419858 L39.4243789,4.57419858 Z M52.0743488,41.1742836 L52.0743488,62.1071291 C56.2463381,61.072153 63.7775762,52.1414441 64.1840644,48.0017757 C63.0625061,46.9899197 61.8555452,46.1370729 60.9635359,45.0306134 C60.0453397,43.892069 59.4340739,42.5055738 58.6576649,41.1742836 L52.0743488,41.1742836 Z M14.1881373,48.0841114 C15.4304861,53.2752702 22.9732842,61.8558755 26.8194696,62.395186 L26.8194696,41.146917 L19.8485388,41.146917 C19.059862,42.5022709 18.4563815,43.8927767 17.5344106,45.0237718 C16.6131474,46.1538232 15.3731578,47.0241279 14.1881373,48.0841114 L14.1881373,48.0841114 Z M41.8859564,19.8347139 C41.3761358,21.6626133 41.5426945,64.6637819 42.1225831,65.6499227 C43.7931246,65.2873154 45.5254769,64.9110248 47.3260097,64.5198714 C47.3783837,63.6910884 47.450103,63.0758119 47.4505748,62.4607715 C47.4576524,54.9316566 47.4515185,47.4025418 47.4545855,39.8734269 C47.4557651,37.0294249 48.0042764,36.4750156 50.8043975,36.4677021 C53.0005663,36.46204 55.1964991,36.4719486 57.392432,36.4606245 C57.8520019,36.4580294 58.3115719,36.392444 58.8560727,36.3490349 C59.8372592,33.4802614 61.45755,31.1373511 64.1064471,29.7980397 C63.5503863,24.3183521 54.0051088,14.5824521 48.6285178,13.951841 C47.2335295,16.8722807 44.9097286,18.8598972 41.8859564,19.8347139 L41.8859564,19.8347139 Z M30.1218619,13.7654651 C24.2939581,14.702063 14.6967784,24.4617907 14.3084559,29.7838846 C17.0814463,31.1071535 18.6418138,33.5472624 19.6706559,36.3808839 C20.260925,36.4139126 20.7263929,36.4603886 21.1923327,36.46204 C23.4670624,36.4702972 25.742264,36.4639274 28.0172297,36.4672303 C30.816643,36.4714768 31.4264933,37.0702389 31.427437,39.8286023 C31.4295602,47.477564 31.4262574,55.1267615 31.4333349,62.7757231 C31.4338068,63.3494778 31.5012796,63.9227607 31.5498789,64.6916203 C33.3707007,65.0403084 35.1039966,65.3722462 37.030982,65.7409874 L37.030982,19.8472176 C33.8515034,18.8476294 31.4498493,16.894457 30.1218619,13.7654651 L30.1218619,13.7654651 Z M51.9146317,68.0572389 C51.9146317,69.2625484 51.9191142,70.3532014 51.913688,71.4436184 C51.9056668,73.0521132 51.9521428,74.6641469 51.8613141,76.2681593 C51.7733163,77.8172026 50.7874113,78.7615858 49.5240658,78.6889228 C48.25553,78.6160239 47.5055439,77.7277893 47.470392,76.1577493 C47.4345324,74.5497262 47.4696843,72.9402877 47.4458565,71.3317928 C47.438543,70.8424971 47.3382775,70.3548528 47.2641989,69.7270727 C45.3700063,70.0391933 43.6185446,70.327958 41.7783774,70.6311138 C41.71869,71.2428514 41.637062,71.7363937 41.6280971,72.2313515 C41.6026179,73.6041634 41.6500376,74.9795704 41.5894064,76.350495 C41.5268879,77.7662441 40.6384174,78.6742959 39.4316924,78.6799579 C38.1190398,78.6860918 37.24614,77.8046989 37.1940019,76.3224206 C37.1461104,74.9505524 37.1845652,73.5758531 37.1656917,72.2030412 C37.1593219,71.7420558 37.0932646,71.2822499 37.0418343,70.6693326 C35.2363471,70.357212 33.4846495,70.0542922 31.569696,69.723298 C31.5142551,70.3003555 31.4385251,70.74695 31.4340427,71.1937803 C31.4170565,72.8810721 31.4491415,74.5688357 31.4121022,76.2554197 C31.3790736,77.74336 30.5120717,78.6827889 29.2515572,78.6905743 C27.9976484,78.6983596 27.0487827,77.760818 27.0091483,76.3115684 C26.9499327,74.155034 26.9895671,71.9959045 26.9718732,69.8379545 C26.9673907,69.2962848 26.9041645,68.7550869 26.8607554,68.1072537 C18.3004391,64.1494787 12.4378552,57.7022878 9.29848279,48.899447 C3.44344825,47.6875318 -0.184748068,44.4842253 0.00728989311,38.3453804 C0.186116397,32.626707 3.73763908,29.6626223 9.2699366,28.62222 C12.8313679,18.7919525 19.5576508,11.9894678 29.3468684,8.46719905 C29.7828465,7.37159182 30.1006292,6.40078566 30.5429771,5.49013882 C32.3619116,1.74587042 36.2328684,-0.223344395 39.8315749,0.0201238797 C44.2989346,0.322100034 47.6168976,2.98420857 48.8557076,7.08495039 C49.1390462,8.02249198 49.6000317,8.57359846 50.5592778,8.95295601 C59.4260526,12.4594182 65.6175075,18.6586584 69.0376234,27.5796945 C69.3308705,28.3438358 69.7378306,28.7861837 70.5953957,28.953686 C75.3309952,29.878488 78.5687458,33.9273277 78.5413184,38.803063 C78.5135407,43.638928 75.1922749,47.6667709 70.4741334,48.5873263 C70.2450561,48.6323868 70.0181022,48.6894792 69.535884,48.7982378 C66.415621,57.4876017 60.6610879,64.0371813 51.9146317,68.0572389 L51.9146317,68.0572389 Z" id="Fill-1" stroke="none" fill="#FEFEFE" fill-rule="evenodd" mask="url(#mask-4)"></path>
                </g>
            </g>
        </g>
    </g>
</svg>