<?xml version="1.0" encoding="UTF-8"?>
<svg width="130px" height="130px" viewBox="0 0 130 130" version="1.1" xmlns="http://www.w3.org/2000/svg" xmlns:xlink="http://www.w3.org/1999/xlink">
    <!-- Generator: Sketch 63.1 (92452) - https://sketch.com -->
    <title>Group 43</title>
    <desc>Created with Sketch.</desc>
    <defs>
        <path d="M23.1758453,0 L105.513468,0 C118.313134,0 128.689313,10.3761794 128.689313,23.1758453 L128.689313,105.513468 C128.689313,118.313134 118.313134,128.689313 105.513468,128.689313 L23.1758453,128.689313 C10.3761794,128.689313 1.26476607e-12,118.313134 1.26476607e-12,105.513468 L1.26476607e-12,23.1758453 C1.26476607e-12,10.3761794 10.3761794,0 23.1758453,0 Z" id="path-1"></path>
    </defs>
    <g id="Page-2" stroke="none" stroke-width="1" fill="none" fill-rule="evenodd">
        <g id="Group-30" transform="translate(0.000000, 0.784894)">
            <g id="Rectangle-Copy-53" transform="translate(0.158792, 0.000000)">
                <g id="Group-43" transform="translate(0.386264, 0.000000)">
                    <mask id="mask-2" fill="white">
                        <use xlink:href="#path-1"></use>
                    </mask>
                    <use id="Mask" fill="#0089D6" xlink:href="#path-1"></use>
                    <path d="M72.4254962,35.3977957 C72.4438103,35.3659467 79.0746568,46.8139212 88.4991031,63.1485088 C97.3224423,78.4412423 104.596858,91.050156 104.664471,91.1683114 L104.78741,91.3831427 L44.8095465,91.3754221 L62.9820952,88.1652006 C72.976997,86.3995685 81.2322149,84.9385173 81.3270276,84.9184107 L81.499416,84.8818517 L72.0632434,73.6578209 C66.8733525,67.4846028 62.6270756,62.4098529 62.6270756,62.3805995 C62.6270756,62.3252138 72.3707207,35.4933212 72.4254962,35.3977957 Z M69.8205855,31.1261515 C69.841428,31.1184291 69.7581177,31.3281108 69.635451,31.5923321 C69.5127843,31.8565534 63.8862711,43.9248318 57.1320881,58.4107275 L44.8517584,84.748719 L35.9218871,84.7599147 C31.0104591,84.7660786 26.9920159,84.758185 26.9920159,84.7423947 C26.9920159,84.7265981 31.4382947,77.008207 36.8726352,67.5904146 L46.7532529,50.4671569 L58.2679707,40.8039824 C64.6010654,35.4892376 69.799743,31.1343122 69.8205855,31.1261515 Z" id="Combined-Shape" fill="#FFFFFF" mask="url(#mask-2)"></path>
                </g>
            </g>
        </g>
    </g>
</svg>