<?xml version="1.0" encoding="UTF-8"?>
<svg width="4000px" height="2850px" viewBox="0 0 4000 2850" version="1.1" xmlns="http://www.w3.org/2000/svg" xmlns:xlink="http://www.w3.org/1999/xlink">
    <!-- Generator: Sketch 63.1 (92452) - https://sketch.com -->
    <title>Artboard</title>
    <desc>Created with Sketch.</desc>
    <g id="Artboard" stroke="none" stroke-width="1" fill="none" fill-rule="evenodd">
        <rect fill="#F0F2F5" x="0" y="0" width="4000" height="2850"></rect>
        <path d="M3819.17073,-478 C3367.8598,-478 3002,-112.140204 3002,339.170725 C3002,790.481655 3367.8598,1156.34145 3819.17073,1156.34145 C4270.48165,1156.34145 4636.34145,790.481655 4636.34145,339.170725 C4636.34145,-112.140204 4270.48165,-478 3819.17073,-478 Z M3819.17073,-67 C4043.49262,-67 4225.34145,114.848828 4225.34145,339.170725 C4225.34145,563.492622 4043.49262,745.34145 3819.17073,745.34145 C3594.84883,745.34145 3413,563.492622 3413,339.170725 C3413,114.848828 3594.84883,-67 3819.17073,-67 Z" id="Oval" fill="#E4EAF2" fill-rule="nonzero"></path>
        <path d="M117.170725,1355.17073 C-114.236585,1355.17073 -301.829275,1542.76341 -301.829275,1774.17073 C-301.829275,2005.57804 -114.236585,2193.17073 117.170725,2193.17073 C348.578035,2193.17073 536.170725,2005.57804 536.170725,1774.17073 C536.170725,1542.76341 348.578035,1355.17073 117.170725,1355.17073 Z M117.170725,1565.90882 C232.1906,1565.90882 325.432632,1659.15085 325.432632,1774.17073 C325.432632,1889.1906 232.1906,1982.43263 117.170725,1982.43263 C2.15084974,1982.43263 -91.0911822,1889.1906 -91.0911822,1774.17073 C-91.0911822,1659.15085 2.15084974,1565.90882 117.170725,1565.90882 Z" id="Oval-Copy" fill="#E4EAF2" fill-rule="nonzero"></path>
        <path d="M3088,1961 C3162.00616,1961 3222,2020.99384 3222,2095 L3222,2342 L3469,2342 C3543.00616,2342 3603,2401.99384 3603,2476 C3603,2550.00616 3543.00616,2610 3469,2610 L3222,2610 L3222,2857 C3222,2931.00616 3162.00616,2991 3088,2991 C3013.99384,2991 2954,2931.00616 2954,2857 L2954,2610 L2707,2610 C2632.99384,2610 2573,2550.00616 2573,2476 C2573,2401.99384 2632.99384,2342 2707,2342 L2954,2341.999 L2954,2095 C2954,2020.99384 3013.99384,1961 3088,1961 Z" id="Combined-Shape" fill="#E4EAF2"></path>
        <path d="M848,297 C879.326878,297 904.72233,322.395452 904.72233,353.72233 L904.722,458.277 L1009.27767,458.27767 C1040.60455,458.27767 1066,483.673122 1066,515 C1066,546.326878 1040.60455,571.72233 1009.27767,571.72233 L904.722,571.722 L904.72233,676.27767 C904.72233,707.604548 879.326878,733 848,733 C816.673122,733 791.27767,707.604548 791.27767,676.27767 L791.277,571.722 L686.72233,571.72233 C655.395452,571.72233 630,546.326878 630,515 C630,483.673122 655.395452,458.27767 686.72233,458.27767 L791.277,458.277 L791.27767,353.72233 C791.27767,322.395452 816.673122,297 848,297 Z" id="Combined-Shape-Copy" fill="#E4EAF2"></path>
    </g>
</svg>