<svg width="9" height="6" viewBox="0 0 9 6" fill="none" xmlns="http://www.w3.org/2000/svg">
<path fill-rule="evenodd" clip-rule="evenodd" d="M0.644236 0.822491C0.793693 0.673079 0.996373 0.589144 1.20771 0.589144C1.41904 0.589144 1.62172 0.673079 1.77118 0.822491L4.39566 3.44697L7.02014 0.822491C7.17045 0.677313 7.37177 0.596981 7.58074 0.598797C7.7897 0.600613 7.9896 0.684431 8.13737 0.832199C8.28513 0.979967 8.36895 1.17986 8.37077 1.38883C8.37258 1.5978 8.29225 1.79912 8.14708 1.94943L4.95913 5.13738C4.80967 5.28679 4.60699 5.37073 4.39566 5.37073C4.18432 5.37073 3.98164 5.28679 3.83219 5.13738L0.644236 1.94943C0.494824 1.79997 0.410889 1.59729 0.410888 1.38596C0.410888 1.17463 0.494824 0.971948 0.644236 0.822491Z" fill="#6F87A0"/>
</svg>
