<svg width="47" height="44" viewBox="0 0 47 44" fill="none" xmlns="http://www.w3.org/2000/svg">
<path fill-rule="evenodd" clip-rule="evenodd" d="M10.4289 22C10.4289 16.2403 5.75973 11.5711 0 11.5711V0.235291C12.0203 0.235291 21.7647 9.97968 21.7647 22C21.7647 34.0203 12.0203 43.7647 0 43.7647V32.4289C5.75973 32.4289 10.4289 27.7597 10.4289 22Z" fill="#40A9FF"/>
<path fill-rule="evenodd" clip-rule="evenodd" d="M35.8211 22C35.8211 27.7597 40.4903 32.4289 46.25 32.4289L46.25 43.7647C34.2297 43.7647 24.4853 34.0203 24.4853 22C24.4853 9.97969 34.2297 0.235301 46.25 0.235302L46.25 11.5711C40.4903 11.5711 35.8211 16.2403 35.8211 22Z" fill="#36CFC9"/>
</svg>
