<svg width="60" height="60" viewBox="0 0 60 60" fill="none" xmlns="http://www.w3.org/2000/svg">
<path d="M11.2863 0.1297H48.9861C54.8467 0.1297 59.5976 4.88063 59.5976 10.7412V48.441C59.5976 54.3016 54.8467 59.0525 48.9861 59.0525H11.2863C5.42573 59.0525 0.674805 54.3016 0.674805 48.441V10.7412C0.674805 4.88063 5.42573 0.1297 11.2863 0.1297Z" fill="#0A2749"/>
<path fill-rule="evenodd" clip-rule="evenodd" d="M42.8345 42.2504C39.477 45.6079 34.9233 47.4941 30.1752 47.4941C25.427 47.4941 20.8733 45.6079 17.5159 42.2504C14.1584 38.893 12.2722 34.3393 12.2722 29.5911C12.2722 24.843 14.1584 20.2893 17.5159 16.9318C20.8733 13.5744 25.427 11.6882 30.1752 11.6882C34.9233 11.6882 39.477 13.5744 42.8345 16.9318C46.1919 20.2893 48.0781 24.843 48.0781 29.5911C48.0781 34.3393 46.1919 38.893 42.8345 42.2504ZM27.9189 19.611C29.2841 18.8187 30.8346 18.4016 32.413 18.4018C33.7894 18.4021 35.1471 18.7198 36.3807 19.3302C37.6143 19.9406 38.6905 20.8272 39.5258 21.9212C40.361 23.0152 40.9327 24.287 41.1964 25.6378C41.4602 26.9887 41.4089 28.3821 41.0465 29.7099C40.6842 31.0377 40.0205 32.2641 39.1072 33.2937C38.1938 34.3233 37.0553 35.1284 35.7802 35.6464C34.505 36.1645 33.1276 36.3815 31.755 36.2807C30.3823 36.1798 29.0514 35.7638 27.8657 35.0649L22.8059 40.1248C22.3859 40.5444 21.8165 40.78 21.2229 40.7798C20.929 40.7797 20.6379 40.7217 20.3664 40.6091C20.0949 40.4965 19.8482 40.3316 19.6404 40.1237C19.4326 39.9157 19.2678 39.6689 19.1554 39.3973C19.0431 39.1257 18.9853 38.8346 18.9854 38.5407C18.9856 37.947 19.2216 37.3778 19.6415 36.9582L24.7013 31.9006C23.8995 30.541 23.4714 28.9935 23.4605 27.4151C23.4496 25.8367 23.8562 24.2835 24.6392 22.9129C25.4222 21.5423 26.5537 20.4032 27.9189 19.611ZM29.2481 24.1884C28.4087 25.0278 27.9371 26.1662 27.9371 27.3533C27.9371 28.5403 28.4087 29.6787 29.2481 30.5181C30.0874 31.3574 31.2258 31.829 32.4129 31.829C33.5999 31.829 34.7383 31.3574 35.5777 30.5181C36.4171 29.6787 36.8886 28.5403 36.8886 27.3533C36.8886 26.1662 36.4171 25.0278 35.5777 24.1884C34.7383 23.3491 33.5999 22.8775 32.4129 22.8775C31.2258 22.8775 30.0874 23.3491 29.2481 24.1884Z" fill="#4091F7"/>
</svg>
