<svg width="71" height="71" viewBox="0 0 71 71" fill="none" xmlns="http://www.w3.org/2000/svg">
<path d="M59.9062 9.98438H38.8281C38.218 9.98438 37.7188 10.4836 37.7188 11.0938V32.1719C37.7188 32.782 38.218 33.2812 38.8281 33.2812H59.9062C60.5164 33.2812 61.0156 32.782 61.0156 32.1719V11.0938C61.0156 10.4836 60.5164 9.98438 59.9062 9.98438ZM56.3008 28.5664H42.4336V14.6992H56.3008V28.5664ZM32.1719 37.7188H11.0938C10.4836 37.7188 9.98438 38.218 9.98438 38.8281V59.9062C9.98438 60.5164 10.4836 61.0156 11.0938 61.0156H32.1719C32.782 61.0156 33.2812 60.5164 33.2812 59.9062V38.8281C33.2812 38.218 32.782 37.7188 32.1719 37.7188ZM28.5664 56.3008H14.6992V42.4336H28.5664V56.3008ZM32.1719 9.98438H11.0938C10.4836 9.98438 9.98438 10.4836 9.98438 11.0938V32.1719C9.98438 32.782 10.4836 33.2812 11.0938 33.2812H32.1719C32.782 33.2812 33.2812 32.782 33.2812 32.1719V11.0938C33.2812 10.4836 32.782 9.98438 32.1719 9.98438ZM28.5664 28.5664H14.6992V14.6992H28.5664V28.5664ZM59.9062 37.7188H38.8281C38.218 37.7188 37.7188 38.218 37.7188 38.8281V59.9062C37.7188 60.5164 38.218 61.0156 38.8281 61.0156H59.9062C60.5164 61.0156 61.0156 60.5164 61.0156 59.9062V38.8281C61.0156 38.218 60.5164 37.7188 59.9062 37.7188ZM56.3008 56.3008H42.4336V42.4336H56.3008V56.3008Z" fill="#4091F7"/>
<path d="M14.6992 14.6992H28.5664V28.5664H14.6992V14.6992ZM42.4336 14.6992H56.3008V28.5664H42.4336V14.6992ZM14.6992 42.4336H28.5664V56.3008H14.6992V42.4336ZM42.4336 42.4336H56.3008V56.3008H42.4336V42.4336Z" fill="#E6F7FF"/>
</svg>
