<?xml version="1.0" encoding="UTF-8"?>
<svg width="88px" height="87px" viewBox="0 0 88 87" version="1.1" xmlns="http://www.w3.org/2000/svg" xmlns:xlink="http://www.w3.org/1999/xlink">
    <title>Combined Shape</title>
    <g id="Page-1" stroke="none" stroke-width="1" fill="none" fill-rule="evenodd">
        <path d="M71.2515226,0 C80.0880786,-1.623249e-15 87.2515226,7.163444 87.2515226,16 L87.2515226,70.7515226 C87.2515226,79.5880786 80.0880786,86.7515226 71.2515226,86.7515226 L16.5,86.7515226 C7.663444,86.7515226 0.5,79.5880786 0.5,70.7515226 L0.5,16 C0.5,7.163444 7.663444,-1.92946468e-15 16.5,0 L71.2515226,0 Z M43.8757613,10.8757613 C25.9265069,10.8757613 11.3757613,25.4265069 11.3757613,43.3757613 C11.3757613,61.3250157 25.9265069,75.8757613 43.8757613,75.8757613 C61.8250157,75.8757613 76.3757613,61.3250157 76.3757613,43.3757613 C76.3757613,25.4265069 61.8250157,10.8757613 43.8757613,10.8757613 Z M43.8757613,18.8757613 C57.4067377,18.8757613 68.3757613,29.8447849 68.3757613,43.3757613 C68.3757613,56.9067377 57.4067377,67.8757613 43.8757613,67.8757613 C30.3447849,67.8757613 19.3757613,56.9067377 19.3757613,43.3757613 C19.3757613,29.8447849 30.3447849,18.8757613 43.8757613,18.8757613 Z M43.8757613,28.3757613 C35.5914901,28.3757613 28.8757613,35.0914901 28.8757613,43.3757613 C28.8757613,51.6600325 35.5914901,58.3757613 43.8757613,58.3757613 C52.1600325,58.3757613 58.8757613,51.6600325 58.8757613,43.3757613 C58.8757613,35.0914901 52.1600325,28.3757613 43.8757613,28.3757613 Z M43.8757613,36.3757613 C47.7417545,36.3757613 50.8757613,39.5097681 50.8757613,43.3757613 C50.8757613,47.2417545 47.7417545,50.3757613 43.8757613,50.3757613 C40.0097681,50.3757613 36.8757613,47.2417545 36.8757613,43.3757613 C36.8757613,39.5097681 40.0097681,36.3757613 43.8757613,36.3757613 Z" id="Combined-Shape" fill="#38A2FF"></path>
    </g>
</svg>