<svg width="16" height="12" viewBox="0 0 16 12" fill="none" xmlns="http://www.w3.org/2000/svg">
<path fill-rule="evenodd" clip-rule="evenodd" d="M3.59713 0.260042C3.76363 0.426597 3.85717 0.652464 3.85717 0.887973C3.85717 1.12348 3.76363 1.34935 3.59713 1.5159C3.01975 2.09323 2.56174 2.77863 2.24926 3.53297C1.93678 4.2873 1.77595 5.09581 1.77595 5.91231C1.77595 6.72881 1.93678 7.53731 2.24926 8.29165C2.56174 9.04599 3.01975 9.73139 3.59713 10.3087C3.68196 10.3906 3.74962 10.4886 3.79617 10.597C3.84271 10.7054 3.86721 10.8219 3.86824 10.9398C3.86926 11.0578 3.84679 11.1747 3.80213 11.2839C3.75748 11.393 3.69153 11.4922 3.60814 11.5756C3.52474 11.659 3.42558 11.7249 3.31643 11.7696C3.20727 11.8142 3.09032 11.8367 2.97239 11.8357C2.85446 11.8347 2.73792 11.8102 2.62956 11.7636C2.5212 11.7171 2.4232 11.6494 2.34127 11.5646C1.59899 10.8223 1.01019 9.94111 0.608475 8.9713C0.20676 8.00148 0 6.96203 0 5.91231C0 4.86258 0.20676 3.82314 0.608475 2.85332C1.01019 1.8835 1.59899 1.0023 2.34127 0.260042C2.50782 0.0935371 2.73369 0 2.9692 0C3.2047 0 3.43057 0.0935371 3.59713 0.260042V0.260042ZM12.3899 0.260042C12.5565 0.0935371 12.7824 0 13.0179 0C13.2534 0 13.4792 0.0935371 13.6458 0.260042C14.3881 1.0023 14.9769 1.8835 15.3786 2.85332C15.7803 3.82314 15.9871 4.86258 15.9871 5.91231C15.9871 6.96203 15.7803 8.00148 15.3786 8.9713C14.9769 9.94111 14.3881 10.8223 13.6458 11.5646C13.5639 11.6494 13.4659 11.7171 13.3575 11.7636C13.2491 11.8102 13.1326 11.8347 13.0147 11.8357C12.8967 11.8367 12.7798 11.8142 12.6706 11.7696C12.5615 11.7249 12.4623 11.659 12.3789 11.5756C12.2955 11.4922 12.2296 11.393 12.1849 11.2839C12.1403 11.1747 12.1178 11.0578 12.1188 10.9398C12.1198 10.8219 12.1443 10.7054 12.1909 10.597C12.2374 10.4886 12.3051 10.3906 12.3899 10.3087C12.9673 9.73139 13.4253 9.04599 13.7378 8.29165C14.0503 7.53731 14.2111 6.72881 14.2111 5.91231C14.2111 5.09581 14.0503 4.2873 13.7378 3.53297C13.4253 2.77863 12.9673 2.09323 12.3899 1.5159C12.2234 1.34935 12.1299 1.12348 12.1299 0.887973C12.1299 0.652464 12.2234 0.426597 12.3899 0.260042V0.260042ZM6.10974 2.77177C6.27624 2.93832 6.36978 3.16419 6.36978 3.3997C6.36978 3.6352 6.27624 3.86107 6.10974 4.02763C5.86227 4.27505 5.66597 4.5688 5.53203 4.8921C5.3981 5.2154 5.32917 5.56192 5.32917 5.91186C5.32917 6.26181 5.3981 6.60832 5.53203 6.93162C5.66597 7.25492 5.86227 7.54867 6.10974 7.7961C6.1922 7.87862 6.2576 7.97657 6.30221 8.08437C6.34681 8.19216 6.36975 8.30769 6.36971 8.42434C6.36966 8.541 6.34665 8.65651 6.30196 8.76427C6.25728 8.87204 6.19181 8.96994 6.10929 9.0524C6.02677 9.13487 5.92882 9.20027 5.82103 9.24487C5.71323 9.28948 5.59771 9.31241 5.48105 9.31237C5.36439 9.31233 5.24888 9.28931 5.14112 9.24463C5.03336 9.19995 4.93545 9.13448 4.85299 9.05196C4.02046 8.21919 3.55278 7.08985 3.55278 5.91231C3.55278 4.73476 4.02046 3.60543 4.85299 2.77265C4.93547 2.69008 5.03343 2.62456 5.14125 2.57987C5.24907 2.53517 5.36465 2.51217 5.48136 2.51217C5.59808 2.51217 5.71366 2.53517 5.82148 2.57987C5.9293 2.62456 6.02725 2.69008 6.10974 2.77265V2.77177ZM9.87732 2.77177C9.95981 2.68919 10.0578 2.62368 10.1656 2.57898C10.2734 2.53428 10.389 2.51128 10.5057 2.51128C10.6224 2.51128 10.738 2.53428 10.8458 2.57898C10.9536 2.62368 11.0516 2.68919 11.1341 2.77177C11.5466 3.18415 11.8738 3.67375 12.097 4.21261C12.3203 4.75147 12.4352 5.32903 12.4352 5.91231C12.4352 6.49558 12.3203 7.07314 12.097 7.612C11.8738 8.15086 11.5466 8.64047 11.1341 9.05285C10.9674 9.21951 10.7414 9.31313 10.5057 9.31313C10.27 9.31313 10.044 9.21951 9.87732 9.05285C9.71067 8.88619 9.61704 8.66016 9.61704 8.42447C9.61704 8.18879 9.71067 7.96275 9.87732 7.7961C10.3768 7.29643 10.6574 6.61883 10.6574 5.91231C10.6574 5.20578 10.3768 4.52818 9.87732 4.02852C9.79475 3.94603 9.72924 3.84807 9.68454 3.74025C9.63984 3.63243 9.61684 3.51686 9.61684 3.40014C9.61684 3.28342 9.63984 3.16785 9.68454 3.06003C9.72924 2.95221 9.79475 2.85425 9.87732 2.77177V2.77177ZM7.99353 5.02414C8.22909 5.02414 8.45499 5.11772 8.62156 5.28428C8.78812 5.45084 8.88169 5.67675 8.88169 5.91231V5.92119C8.88169 6.15674 8.78812 6.38265 8.62156 6.54921C8.45499 6.71578 8.22909 6.80935 7.99353 6.80935C7.75798 6.80935 7.53207 6.71578 7.36551 6.54921C7.19894 6.38265 7.10537 6.15674 7.10537 5.92119V5.91231C7.10537 5.67675 7.19894 5.45084 7.36551 5.28428C7.53207 5.11772 7.75798 5.02414 7.99353 5.02414V5.02414Z" fill="white"/>
</svg>
