<svg width="33" height="26" viewBox="0 0 33 26" fill="none" xmlns="http://www.w3.org/2000/svg">
<path fill-rule="evenodd" clip-rule="evenodd" d="M16.5074 0C21.5421 0 25.8402 3.14967 27.527 7.579C30.676 8.40767 33 11.2677 33 14.6667C33 18.7183 29.7037 22 25.6376 22H24.1607C23.9987 22 23.8661 21.868 23.8661 21.7067V19.5067C23.8661 19.3453 23.9987 19.2133 24.1607 19.2133H25.6376C26.2371 19.2149 26.8309 19.0981 27.3847 18.8696C27.9385 18.6411 28.4413 18.3056 28.864 17.8823C29.7258 17.0243 30.2009 15.8803 30.2009 14.6667C30.2009 12.606 28.805 10.7983 26.8088 10.263L25.4166 9.89633L24.9084 8.558C24.5916 7.72567 24.1497 6.941 23.5935 6.23333C23.0448 5.533 22.3965 4.917 21.6636 4.40367C20.1499 3.344 18.3673 2.783 16.5074 2.783C14.6474 2.783 12.8648 3.344 11.3511 4.40367C10.6206 4.91535 9.97024 5.53193 9.42121 6.23333C8.86507 6.941 8.4231 7.722 8.10636 8.558L7.59442 9.9L6.19855 10.263C5.24096 10.516 4.37913 11.0843 3.76406 11.8653C3.16373 12.6317 2.83225 13.541 2.79911 14.509C2.75859 15.7483 3.21897 16.9437 4.08449 17.831C4.95368 18.722 6.12121 19.2133 7.36239 19.2133H8.83929C9.00134 19.2133 9.13393 19.3453 9.13393 19.5067V21.7067C9.13393 21.868 9.00134 22 8.83929 22H7.36239C3.29632 22 0 18.7183 0 14.6667C0 11.264 2.33136 8.40033 5.48772 7.57533C7.17455 3.146 11.4727 0 16.5074 0ZM17.9211 20.2029H20.6994C20.9507 20.2029 21.0894 20.486 20.9357 20.6772L16.7362 25.8871C16.7082 25.9223 16.6723 25.9507 16.6314 25.9703C16.5905 25.9898 16.5455 26 16.5 26C16.4545 26 16.4095 25.9898 16.3686 25.9703C16.3277 25.9507 16.2918 25.9223 16.2638 25.8871L12.0643 20.6772C11.9106 20.486 12.0493 20.2029 12.3006 20.2029H15.0714V11.2941C15.0714 11.1324 15.2064 11 15.3714 11H17.6211C17.7861 11 17.9211 11.1324 17.9211 11.2941V20.2029Z" fill="white"/>
</svg>
