<?xml version="1.0" encoding="UTF-8"?>
<svg width="268px" height="298px" viewBox="0 0 268 298" version="1.1" xmlns="http://www.w3.org/2000/svg" xmlns:xlink="http://www.w3.org/1999/xlink">
    <!-- Generator: Sketch 54.1 (76490) - https://sketchapp.com -->
    <title>Group 49</title>
    <desc>Created with Sketch.</desc>
    <g id="Page-1" stroke="none" stroke-width="1" fill="none" fill-rule="evenodd">
        <g id="Group-49" transform="translate(15.325650, -1.936082)">
            <g id="Path-+-Path-+-Path-Copy-30-Mask">
                <path d="M134.950835,14.7216878 L228.65167,68.8198903 C238.707205,74.6254561 244.90167,85.3545842 244.90167,96.9657159 L244.90167,205.162121 C244.90167,216.773252 238.707205,227.502381 228.65167,233.307946 L134.950835,287.406149 C124.8953,293.211715 112.50637,293.211715 102.450835,287.406149 L8.75,233.307946 C-1.30553499,227.502381 -7.5,216.773252 -7.5,205.162121 L-7.5,96.9657159 C-7.5,85.3545842 -1.30553499,74.6254561 8.75,68.8198903 L102.450835,14.7216878 C112.50637,8.916122 124.8953,8.916122 134.950835,14.7216878 Z" id="Mask" stroke="#E2E7EF" stroke-width="15" fill="#FFFFFF"></path>
                <path d="M159.23971,175.869736 L72.6619607,125.884049 C68.6397467,123.561823 66.1619607,119.270171 66.1619607,114.625719 L66.1619607,14.6543452 C66.1619607,10.2360672 69.7436827,6.65434522 74.1619607,6.65434522 C75.566254,6.65434522 76.9458071,7.02399534 78.1619607,7.72614199 L164.73971,57.7118287 C168.761924,60.034055 171.23971,64.3257063 171.23971,68.9701589 L171.23971,168.941532 C171.23971,173.35981 167.657988,176.941532 163.23971,176.941532 C161.835416,176.941532 160.455863,176.571882 159.23971,175.869736 Z" id="Path" fill="#E2E7EF" transform="translate(118.700835, 91.797939) rotate(120.000000) translate(-118.700835, -91.797939) "></path>
            </g>
        </g>
    </g>
</svg>