<svg width="48" height="39" viewBox="0 0 48 39" fill="none" xmlns="http://www.w3.org/2000/svg">
<path d="M4.47253 7.4548C4.47253 3.33763 7.81016 0 11.9273 0H35.5505C39.6676 0 43.0053 3.33763 43.0053 7.4548V31.0779C43.0053 35.1951 39.6677 38.5327 35.5505 38.5327H11.9273C7.81016 38.5327 4.47253 35.1951 4.47253 31.0779V7.4548Z" fill="#A6B8CC"/>
<circle cx="43.0052" cy="19.2664" r="4.47288" fill="#A6B8CC"/>
<circle cx="4.47276" cy="19.2664" r="4.47288" fill="#A6B8CC"/>
<circle cx="43.0052" cy="19.2664" r="1.71882" fill="white"/>
<circle cx="4.47285" cy="19.2664" r="1.71882" fill="white"/>
<path fill-rule="evenodd" clip-rule="evenodd" d="M19.5971 15.26C19.7636 15.4266 19.8572 15.6525 19.8572 15.888C19.8572 16.1235 19.7636 16.3493 19.5971 16.5159C19.0197 17.0932 18.5617 17.7786 18.2493 18.533C17.9368 19.2873 17.7759 20.0958 17.7759 20.9123C17.7759 21.7288 17.9368 22.5373 18.2493 23.2916C18.5617 24.046 19.0197 24.7314 19.5971 25.3087C19.682 25.3906 19.7496 25.4886 19.7962 25.597C19.8427 25.7054 19.8672 25.8219 19.8682 25.9398C19.8693 26.0578 19.8468 26.1747 19.8021 26.2839C19.7575 26.393 19.6915 26.4922 19.6081 26.5756C19.5247 26.659 19.4256 26.7249 19.3164 26.7696C19.2073 26.8142 19.0903 26.8367 18.9724 26.8357C18.8545 26.8347 18.7379 26.8102 18.6296 26.7636C18.5212 26.7171 18.4232 26.6494 18.3413 26.5646C17.599 25.8223 17.0102 24.9411 16.6085 23.9713C16.2068 23.0015 16 21.962 16 20.9123C16 19.8626 16.2068 18.8231 16.6085 17.8533C17.0102 16.8835 17.599 16.0023 18.3413 15.26C18.5078 15.0935 18.7337 15 18.9692 15C19.2047 15 19.4306 15.0935 19.5971 15.26V15.26ZM28.3899 15.26C28.5565 15.0935 28.7824 15 29.0179 15C29.2534 15 29.4792 15.0935 29.6458 15.26C30.3881 16.0023 30.9769 16.8835 31.3786 17.8533C31.7803 18.8231 31.9871 19.8626 31.9871 20.9123C31.9871 21.962 31.7803 23.0015 31.3786 23.9713C30.9769 24.9411 30.3881 25.8223 29.6458 26.5646C29.5639 26.6494 29.4659 26.7171 29.3575 26.7636C29.2491 26.8102 29.1326 26.8347 29.0147 26.8357C28.8967 26.8367 28.7798 26.8142 28.6706 26.7696C28.5615 26.7249 28.4623 26.659 28.3789 26.5756C28.2955 26.4922 28.2296 26.393 28.1849 26.2839C28.1403 26.1747 28.1178 26.0578 28.1188 25.9398C28.1198 25.8219 28.1443 25.7054 28.1909 25.597C28.2374 25.4886 28.3051 25.3906 28.3899 25.3087C28.9673 24.7314 29.4253 24.046 29.7378 23.2916C30.0503 22.5373 30.2111 21.7288 30.2111 20.9123C30.2111 20.0958 30.0503 19.2873 29.7378 18.533C29.4253 17.7786 28.9673 17.0932 28.3899 16.5159C28.2234 16.3493 28.1299 16.1235 28.1299 15.888C28.1299 15.6525 28.2234 15.4266 28.3899 15.26V15.26ZM22.1097 17.7718C22.2762 17.9383 22.3698 18.1642 22.3698 18.3997C22.3698 18.6352 22.2762 18.8611 22.1097 19.0276C21.8623 19.2751 21.666 19.5688 21.532 19.8921C21.3981 20.2154 21.3292 20.5619 21.3292 20.9119C21.3292 21.2618 21.3981 21.6083 21.532 21.9316C21.666 22.2549 21.8623 22.5487 22.1097 22.7961C22.1922 22.8786 22.2576 22.9766 22.3022 23.0844C22.3468 23.1922 22.3697 23.3077 22.3697 23.4243C22.3697 23.541 22.3466 23.6565 22.302 23.7643C22.2573 23.872 22.1918 23.9699 22.1093 24.0524C22.0268 24.1349 21.9288 24.2003 21.821 24.2449C21.7132 24.2895 21.5977 24.3124 21.481 24.3124C21.3644 24.3123 21.2489 24.2893 21.1411 24.2446C21.0334 24.2 20.9354 24.1345 20.853 24.052C20.0205 23.2192 19.5528 22.0899 19.5528 20.9123C19.5528 19.7348 20.0205 18.6054 20.853 17.7727C20.9355 17.6901 21.0334 17.6246 21.1412 17.5799C21.2491 17.5352 21.3646 17.5122 21.4814 17.5122C21.5981 17.5122 21.7137 17.5352 21.8215 17.5799C21.9293 17.6246 22.0273 17.6901 22.1097 17.7727V17.7718ZM25.8773 17.7718C25.9598 17.6892 26.0578 17.6237 26.1656 17.579C26.2734 17.5343 26.389 17.5113 26.5057 17.5113C26.6224 17.5113 26.738 17.5343 26.8458 17.579C26.9536 17.6237 27.0516 17.6892 27.1341 17.7718C27.5466 18.1841 27.8738 18.6738 28.097 19.2126C28.3203 19.7515 28.4352 20.329 28.4352 20.9123C28.4352 21.4956 28.3203 22.0731 28.097 22.612C27.8738 23.1509 27.5466 23.6405 27.1341 24.0529C26.9674 24.2195 26.7414 24.3131 26.5057 24.3131C26.27 24.3131 26.044 24.2195 25.8773 24.0529C25.7107 23.8862 25.617 23.6602 25.617 23.4245C25.617 23.1888 25.7107 22.9628 25.8773 22.7961C26.3768 22.2964 26.6574 21.6188 26.6574 20.9123C26.6574 20.2058 26.3768 19.5282 25.8773 19.0285C25.7947 18.946 25.7292 18.8481 25.6845 18.7403C25.6398 18.6324 25.6168 18.5169 25.6168 18.4001C25.6168 18.2834 25.6398 18.1678 25.6845 18.06C25.7292 17.9522 25.7947 17.8543 25.8773 17.7718V17.7718ZM23.9935 20.0241C24.2291 20.0241 24.455 20.1177 24.6216 20.2843C24.7881 20.4508 24.8817 20.6768 24.8817 20.9123V20.9212C24.8817 21.1567 24.7881 21.3827 24.6216 21.5492C24.455 21.7158 24.2291 21.8094 23.9935 21.8094C23.758 21.8094 23.5321 21.7158 23.3655 21.5492C23.1989 21.3827 23.1054 21.1567 23.1054 20.9212V20.9123C23.1054 20.6768 23.1989 20.4508 23.3655 20.2843C23.5321 20.1177 23.758 20.0241 23.9935 20.0241V20.0241Z" fill="white"/>
</svg>
