<svg width="48" height="39" viewBox="0 0 48 39" fill="none" xmlns="http://www.w3.org/2000/svg">
<path d="M4.47253 7.4548C4.47253 3.33763 7.81016 0 11.9273 0H35.5505C39.6676 0 43.0053 3.33763 43.0053 7.4548V31.0779C43.0053 35.1951 39.6677 38.5327 35.5505 38.5327H11.9273C7.81016 38.5327 4.47253 35.1951 4.47253 31.0779V7.4548Z" fill="#12CB9E"/>
<circle cx="43.0052" cy="19.2664" r="4.47288" fill="#12CB9E"/>
<circle cx="4.47276" cy="19.2664" r="4.47288" fill="#12CB9E"/>
<circle cx="43.0052" cy="19.2664" r="1.71882" fill="white"/>
<circle cx="4.47285" cy="19.2664" r="1.71882" fill="white"/>
<path d="M29.4529 26.7911C30.5595 26.7896 31.6235 26.3641 32.4259 25.602C33.2282 24.8399 33.708 23.7993 33.7664 22.6942C33.8248 21.5892 33.4575 20.5037 32.7399 19.6613C32.0224 18.8189 31.0092 18.2835 29.9089 18.1654C30.2329 16.8949 30.0389 15.5477 29.3696 14.4202C28.7003 13.2927 27.6105 12.4773 26.34 12.1533C25.0695 11.8293 23.7223 12.0233 22.5948 12.6926C21.4673 13.3619 20.6519 14.4517 20.3279 15.7222C19.5723 15.617 18.8031 15.6684 18.0682 15.8732C17.3333 16.078 16.6484 16.4318 16.0561 16.9126C15.4638 17.3935 14.9768 17.991 14.6253 18.6681C14.2739 19.3453 14.0655 20.0875 14.0131 20.8486C13.9608 21.6097 14.0656 22.3734 14.3211 23.0923C14.5765 23.8111 14.9772 24.4697 15.4981 25.0271C16.019 25.5845 16.649 26.0287 17.3489 26.3322C18.0489 26.6357 18.8038 26.7919 19.5667 26.7911H29.4529Z" fill="white"/>
</svg>
