<svg width="48" height="39" viewBox="0 0 48 39" fill="none" xmlns="http://www.w3.org/2000/svg">
<path d="M4.47253 7.4548C4.47253 3.33763 7.81016 0 11.9273 0H35.5505C39.6676 0 43.0053 3.33763 43.0053 7.4548V31.0779C43.0053 35.1951 39.6677 38.5327 35.5505 38.5327H11.9273C7.81016 38.5327 4.47253 35.1951 4.47253 31.0779V7.4548Z" fill="#2C79EE"/>
<circle cx="43.0052" cy="19.2664" r="4.47288" fill="#2C79EE"/>
<circle cx="4.47276" cy="19.2664" r="4.47288" fill="#2C79EE"/>
<circle cx="43.0052" cy="19.2664" r="1.71882" fill="white"/>
<circle cx="4.47285" cy="19.2664" r="1.71882" fill="white"/>
<path d="M17 14.8407C17 14.3525 17.1939 13.8843 17.5391 13.5391C17.8843 13.1939 18.3525 13 18.8407 13H23.4425L25.2833 14.8407H29.8851C30.3733 14.8407 30.8414 15.0347 31.1866 15.3799C31.5319 15.7251 31.7258 16.1933 31.7258 16.6814V22.2036C31.7258 22.6918 31.5319 23.16 31.1866 23.5052C30.8414 23.8504 30.3733 24.0443 29.8851 24.0443H18.8407C18.3525 24.0443 17.8843 23.8504 17.5391 23.5052C17.1939 23.16 17 22.6918 17 22.2036V14.8407Z" fill="white"/>
</svg>
