<svg width="49" height="40" viewBox="0 0 49 40" fill="none" xmlns="http://www.w3.org/2000/svg">
<path d="M5.13275 8.04446C5.13275 3.92729 8.47038 0.589661 12.5876 0.589661H36.2107C40.3279 0.589661 43.6655 3.92729 43.6655 8.04446V31.6676C43.6655 35.7848 40.3279 39.1224 36.2107 39.1224H12.5876C8.47038 39.1224 5.13275 35.7848 5.13275 31.6676V8.04446Z" fill="#9F59F7"/>
<path fill-rule="evenodd" clip-rule="evenodd" d="M18.0568 11.642C18.3442 11.7683 18.5698 12.0035 18.684 12.2959C18.7983 12.5883 18.7918 12.9141 18.6661 13.2018C17.7531 15.2953 17.2837 17.5553 17.2876 19.8393C17.2876 22.2015 17.7807 24.4452 18.6672 26.4767C18.7818 26.7627 18.7805 27.082 18.6637 27.367C18.5468 27.6521 18.3236 27.8804 18.0413 28.0037C17.759 28.127 17.4398 28.1355 17.1513 28.0275C16.8628 27.9194 16.6277 27.7033 16.4958 27.4249C15.4515 25.0325 14.914 22.4497 14.9171 19.8393C14.9171 17.144 15.4801 14.5767 16.4958 12.2536C16.5582 12.1109 16.648 11.9819 16.7601 11.874C16.8723 11.766 17.0047 11.6812 17.1496 11.6244C17.2946 11.5676 17.4493 11.5399 17.605 11.5429C17.7606 11.546 17.9142 11.5796 18.0568 11.642ZM27.9075 16.2835C27.3744 16.2836 26.8481 16.4036 26.3676 16.6346C25.8871 16.8656 25.4647 17.2017 25.1317 17.6181L24.7429 18.104L24.6113 17.7733C24.4354 17.3337 24.1318 16.9568 23.7398 16.6913C23.3477 16.4257 22.885 16.2837 22.4115 16.2835H22.0286C21.7143 16.2835 21.4128 16.4083 21.1905 16.6306C20.9683 16.8529 20.8434 17.1544 20.8434 17.4687C20.8434 17.7831 20.9683 18.0846 21.1905 18.3068C21.4128 18.5291 21.7143 18.654 22.0286 18.654H22.4115L23.042 20.2304L21.8153 21.7653C21.7042 21.9041 21.5633 22.0161 21.4031 22.093C21.2428 22.1699 21.0674 22.2099 20.8896 22.2098H20.8434C20.529 22.2098 20.2276 22.3347 20.0053 22.5569C19.783 22.7792 19.6581 23.0807 19.6581 23.3951C19.6581 23.7094 19.783 24.0109 20.0053 24.2332C20.2276 24.4554 20.529 24.5803 20.8434 24.5803H20.8896C21.4228 24.5802 21.9491 24.4602 22.4296 24.2292C22.9101 23.9982 23.3324 23.662 23.6655 23.2457L24.0543 22.7597L24.1858 23.0904C24.3618 23.5303 24.6656 23.9073 25.0579 24.1729C25.4502 24.4384 25.9131 24.5803 26.3869 24.5803H26.7697C27.084 24.5803 27.3855 24.4554 27.6078 24.2332C27.8301 24.0109 27.955 23.7094 27.955 23.3951C27.955 23.0807 27.8301 22.7792 27.6078 22.5569C27.3855 22.3347 27.084 22.2098 26.7697 22.2098H26.3869L25.7563 20.6334L26.983 19.0985C27.0941 18.9597 27.235 18.8477 27.3953 18.7708C27.5555 18.6938 27.731 18.6539 27.9087 18.654H27.955C28.2693 18.654 28.5708 18.5291 28.7931 18.3068C29.0153 18.0846 29.1402 17.7831 29.1402 17.4687C29.1402 17.1544 29.0153 16.8529 28.7931 16.6306C28.5708 16.4083 28.2693 16.2835 27.955 16.2835H27.9087H27.9075ZM30.1287 13.2018C30.0049 12.914 30.0001 12.5889 30.1153 12.2976C30.2305 12.0063 30.4563 11.7724 30.7434 11.6471C31.0305 11.5218 31.3556 11.5152 31.6475 11.6289C31.9394 11.7425 32.1745 11.9671 32.3013 12.2536C33.3461 14.6459 33.884 17.2287 33.8813 19.8393C33.8813 22.5345 33.3183 25.1018 32.3025 27.4249C32.2435 27.5723 32.1555 27.7063 32.0437 27.8189C31.9319 27.9316 31.7987 28.0207 31.6518 28.0809C31.5049 28.1411 31.3475 28.1712 31.1888 28.1694C31.0301 28.1676 30.8734 28.1339 30.7279 28.0704C30.5824 28.0069 30.4512 27.9148 30.342 27.7996C30.2328 27.6845 30.1479 27.5485 30.0922 27.3999C30.0366 27.2512 30.0113 27.0929 30.018 26.9344C30.0247 26.7758 30.0631 26.6202 30.1311 26.4767C31.0445 24.3833 31.5143 22.1233 31.5107 19.8393C31.5107 17.477 31.0177 15.2333 30.1299 13.2018H30.1287Z" fill="white"/>
<circle cx="43.6654" cy="19.8561" r="4.47288" fill="#9E59F7"/>
<circle cx="5.1331" cy="19.8561" r="4.47288" fill="#9E59F7"/>
<circle cx="43.6655" cy="19.856" r="1.71882" fill="white"/>
<circle cx="5.13313" cy="19.856" r="1.71882" fill="white"/>
</svg>
