<svg width="23" height="17" viewBox="0 0 23 17" fill="none" xmlns="http://www.w3.org/2000/svg">
<path fill-rule="evenodd" clip-rule="evenodd" d="M5.34112 0.752523C5.73164 1.14305 5.73164 1.77621 5.34111 2.16674C4.50825 2.99959 3.84759 3.98833 3.39685 5.0765C2.94611 6.16468 2.71411 7.33098 2.71411 8.50881C2.71411 9.68665 2.94611 10.8529 3.39685 11.9411C3.84759 13.0293 4.50825 14.018 5.34111 14.8509C5.73164 15.2414 5.73164 15.8746 5.34112 16.2651C4.95059 16.6556 4.31743 16.6556 3.9269 16.2651C2.90832 15.2465 2.10034 14.0373 1.54909 12.7065C0.997837 11.3757 0.714111 9.94929 0.714111 8.50881C0.714111 7.06833 0.997837 5.64196 1.54909 4.31113C2.10034 2.9803 2.90832 1.77108 3.9269 0.752514C4.31743 0.361992 4.95059 0.361996 5.34112 0.752523ZM18.0253 0.752523C18.4158 0.361996 19.049 0.361992 19.4395 0.752514C20.4581 1.77108 21.266 2.9803 21.8173 4.31113C22.3685 5.64196 22.6523 7.06833 22.6523 8.50881C22.6523 9.94929 22.3685 11.3757 21.8173 12.7065C21.266 14.0373 20.4581 15.2465 19.4395 16.2651C19.049 16.6556 18.4158 16.6556 18.0253 16.2651C17.6347 15.8746 17.6348 15.2414 18.0253 14.8509C18.8581 14.018 19.5188 13.0293 19.9695 11.9411C20.4203 10.8529 20.6523 9.68665 20.6523 8.50881C20.6523 7.33098 20.4203 6.16468 19.9695 5.0765C19.5188 3.98833 18.8581 2.99959 18.0253 2.16674C17.6348 1.77621 17.6347 1.14305 18.0253 0.752523ZM8.47349 3.886C8.86407 4.27646 8.86416 4.90963 8.4737 5.30021C7.62289 6.15128 7.14494 7.30541 7.14494 8.50881C7.14494 9.71222 7.62289 10.8664 8.4737 11.7174C8.86416 12.108 8.86407 12.7412 8.47349 13.1316C8.0829 13.5221 7.44974 13.522 7.05927 13.1314C5.83352 11.9053 5.14494 10.2425 5.14494 8.50881C5.14494 6.77508 5.83352 5.11233 7.05927 3.88621C7.44974 3.49563 8.0829 3.49553 8.47349 3.886ZM14.8929 3.886C15.2835 3.49553 15.9166 3.49563 16.3071 3.88621C17.5329 5.11233 18.2214 6.77508 18.2214 8.50881C18.2214 10.2425 17.5329 11.9053 16.3071 13.1314C15.9166 13.522 15.2835 13.5221 14.8929 13.1316C14.5023 12.7412 14.5022 12.108 14.8927 11.7174C15.7435 10.8664 16.2214 9.71222 16.2214 8.50881C16.2214 7.30541 15.7435 6.15128 14.8927 5.30021C14.5022 4.90963 14.5023 4.27646 14.8929 3.886ZM10.1928 7.01847C10.5881 6.6232 11.1242 6.40115 11.6832 6.40115C12.2422 6.40115 12.7783 6.6232 13.1735 7.01847C13.5688 7.41373 13.7909 7.94982 13.7909 8.50881C13.7909 9.0678 13.5688 9.60389 13.1735 9.99916C12.7783 10.3944 12.2422 10.6165 11.6832 10.6165C11.1242 10.6165 10.5881 10.3944 10.1928 9.99916C9.79758 9.60389 9.57553 9.0678 9.57553 8.50881C9.57553 7.94982 9.79758 7.41373 10.1928 7.01847Z" fill="#A6B8CC"/>
</svg>
