<svg width="19" height="21" viewBox="0 0 19 21" fill="none" xmlns="http://www.w3.org/2000/svg">
<path d="M9.59387 0.386719C7.58404 0.386719 5.65653 1.18512 4.23536 2.60629C2.8142 4.02745 2.0158 5.95497 2.0158 7.9648V12.494L1.12285 13.3869C0.946264 13.5635 0.826017 13.7886 0.777306 14.0335C0.728595 14.2785 0.753606 14.5324 0.849178 14.7632C0.944751 14.9939 1.10659 15.1912 1.31424 15.3299C1.5219 15.4687 1.76603 15.5428 2.0158 15.5429H17.172C17.4217 15.5428 17.6659 15.4687 17.8735 15.3299C18.0812 15.1912 18.243 14.9939 18.3386 14.7632C18.4341 14.5324 18.4592 14.2785 18.4104 14.0335C18.3617 13.7886 18.2415 13.5635 18.0649 13.3869L17.172 12.494V7.9648C17.172 5.95497 16.3736 4.02745 14.9524 2.60629C13.5312 1.18512 11.6037 0.386719 9.59387 0.386719ZM9.59387 20.5949C8.58896 20.5949 7.6252 20.1957 6.91462 19.4851C6.20404 18.7746 5.80484 17.8108 5.80484 16.8059H13.3829C13.3829 17.8108 12.9837 18.7746 12.2731 19.4851C11.5625 20.1957 10.5988 20.5949 9.59387 20.5949Z" fill="#D8E2EC"/>
</svg>
