<svg width="62" height="62" viewBox="0 0 62 62" fill="none" xmlns="http://www.w3.org/2000/svg">
<path fill-rule="evenodd" clip-rule="evenodd" d="M11.144 0H50.7357C56.8904 0 61.8797 4.98934 61.8797 11.144V50.7357C61.8797 56.8904 56.8904 61.8797 50.7357 61.8797H11.144C4.98934 61.8797 0 56.8904 0 50.7357V11.144C0 4.98934 4.98934 0 11.144 0Z" fill="#0A2749"/>
<g clip-path="url(#clip0)">
<path d="M24.1213 10C24.1213 11.8769 24.011 13.772 24.1765 15.6307C24.3419 17.4529 25.3529 18.9836 26.5845 20.3502C28.3493 22.3182 30.4632 23.8671 32.5588 25.4524C34.8566 27.1836 37.1176 28.9329 39.0478 31.0649C41.6581 33.9622 43.147 37.2787 43.0551 41.2147C43.0551 41.5245 43.0551 41.816 43.0735 42.1258C43.0735 42.1805 43.1103 42.2351 43.147 42.3991C44.6544 42.3991 46.1985 42.3991 47.9816 42.3991C47.2095 43.3102 46.6029 44.0391 45.9595 44.768C44.3235 46.6631 42.6875 48.54 41.0515 50.4351C40.9044 50.6173 40.7757 50.8178 40.647 51.0182C40.5919 51.0182 40.5184 51.0182 40.4632 51.0182C40.261 50.7267 40.0588 50.4169 39.8382 50.1618C37.8529 47.8476 35.8493 45.5516 33.864 43.2556C33.6801 43.0551 33.5147 42.8365 33.239 42.4902C34.636 42.4902 35.9228 42.4902 37.2463 42.4902C37.4853 40.2671 37.1176 38.2809 35.9595 36.4769C34.7095 34.5271 32.9632 33.0511 31.1618 31.6298C28.6434 29.6071 26.0515 27.6756 23.625 25.5436C21.2353 23.448 19.4338 20.8787 18.6985 17.7262C18.4228 16.56 18.3309 15.3391 18.2573 14.1364C18.2022 12.7333 18.2573 11.3667 18.239 10C20.2059 10 22.1728 10 24.1213 10Z" fill="white"/>
<path d="M20.261 51C18.9007 49.3782 17.5221 47.7564 16.1434 46.1347C15.1323 44.9502 14.1213 43.784 12.9816 42.472C14.6544 42.472 16.1801 42.472 17.8713 42.472C17.5404 37.6249 19.2132 33.616 22.6507 30.2631C24.1581 31.4293 25.6287 32.5773 27.2096 33.7982C24.7279 36.1124 23.239 38.8276 23.6801 42.3991C24.9669 42.3991 26.2353 42.3991 27.7243 42.3991C26.5478 43.7658 25.5 44.9867 24.4522 46.1893C23.2206 47.6107 21.9706 49.032 20.7573 50.4716C20.6287 50.6173 20.5368 50.8178 20.4265 51C20.3897 51 20.3346 51 20.261 51Z" fill="white"/>
<path d="M42.6875 10C42.6324 11.968 42.6875 13.9542 42.5221 15.904C42.2463 19.3116 40.5919 22.0996 38.2573 24.596C36.7316 23.4298 35.2426 22.2818 33.7169 21.1156C34.2132 20.5142 34.6728 19.9858 35.114 19.4209C36.3456 17.8173 36.9154 16.0133 36.9338 14.0089C36.9338 12.6787 36.9706 11.3484 37.0073 10.0182C38.9007 10 40.7941 10 42.6875 10Z" fill="white"/>
</g>
<defs>
<clipPath id="clip0">
<rect width="35" height="41" fill="white" transform="translate(13 10)"/>
</clipPath>
</defs>
</svg>
