<?xml version="1.0" encoding="UTF-8"?>
<svg width="87px" height="87px" viewBox="0 0 87 87" version="1.1" xmlns="http://www.w3.org/2000/svg" xmlns:xlink="http://www.w3.org/1999/xlink">
    <title>functions</title>
    <g id="Page-1" stroke="none" stroke-width="1" fill="none" fill-rule="evenodd">
        <g id="functions" fill="#1890FF" fill-rule="nonzero">
            <path d="M70.7515226,0 C79.5880786,0 86.7515226,7.163444 86.7515226,16 L86.7515226,70.7515226 C86.7515226,79.5880786 79.5880786,86.7515226 70.7515226,86.7515226 L16,86.7515226 C7.163444,86.7515226 1.42108547e-14,79.5880786 1.42108547e-14,70.7515226 L1.42108547e-14,16 C1.42108547e-14,7.163444 7.163444,0 16,0 L70.7515226,0 Z M67.6300646,55.8008147 L45.7367458,55.8008147 C45.2514489,55.8008147 44.8491455,56.226848 44.8491455,56.7475554 L44.8491455,62.4280001 C44.8491455,62.9487075 45.2514489,63.3747408 45.7367458,63.3747408 L67.6300646,63.3747408 C68.1152385,63.3747408 68.5176648,62.9487075 68.5176648,62.4280001 L68.5176648,56.7475554 C68.5176648,56.226848 68.1152385,55.8008147 67.6300646,55.8008147 Z M20.7775852,23.4637156 C20.6143032,23.5397007 20.4763495,23.6609327 20.3799541,23.813026 C20.2835586,23.9651193 20.2329019,24.1416803 20.2338577,24.321684 L20.2338577,31.7417956 C20.2338577,32.0258178 20.3521666,32.286233 20.5770483,32.4636547 L33.5711268,43.3749035 L20.5770483,54.2861524 C20.4713084,54.3746788 20.3858558,54.4849679 20.3265923,54.6095197 C20.2674518,54.7341944 20.2357298,54.8700578 20.2338577,55.0080115 L20.2338577,62.4280001 C20.2338577,63.2327297 21.1688227,63.6706895 21.7842042,63.1499821 L44.5059828,44.0967626 C44.9556231,43.7180663 44.9556231,43.0198142 44.5059828,42.6411179 L21.7842042,23.5998249 C21.6469883,23.4832651 21.4792799,23.4083866 21.3008746,23.3842877 C21.1223464,23.3600659 20.9407443,23.3877304 20.7775852,23.4637156 Z" id="Combined-Shape"></path>
        </g>
    </g>
</svg>