<svg width="77" height="77" viewBox="0 0 77 77" fill="none" xmlns="http://www.w3.org/2000/svg">
<path d="M38.885 53.9962C38.885 54.4197 39.2122 54.7662 39.6069 54.7662H57.4131C57.8077 54.7662 58.135 54.4197 58.135 53.9962V49.3762C58.135 48.9527 57.8077 48.6062 57.4131 48.6062H39.6069C39.2122 48.6062 38.885 48.9527 38.885 49.3762V53.9962ZM20.1259 54.5834L38.6059 39.0871C38.9716 38.7791 38.9716 38.2112 38.6059 37.9032L20.1259 22.4166C20.0143 22.3218 19.8779 22.2609 19.7328 22.2413C19.5876 22.2216 19.4399 22.2441 19.3072 22.3059C19.1744 22.3677 19.0622 22.4663 18.9838 22.59C18.9054 22.7137 18.8642 22.8573 18.865 23.0037V29.0386C18.865 29.2696 18.9612 29.4814 19.1441 29.6257L29.7124 38.5L19.1441 47.3743C19.0581 47.4463 18.9886 47.536 18.9404 47.6373C18.8923 47.7387 18.8665 47.8492 18.865 47.9614V53.9962C18.865 54.6507 19.6254 55.0069 20.1259 54.5834ZM73.92 0H3.08C1.37637 0 0 1.37637 0 3.08V73.92C0 75.6236 1.37637 77 3.08 77H73.92C75.6236 77 77 75.6236 77 73.92V3.08C77 1.37637 75.6236 0 73.92 0ZM70.07 70.07H6.93V6.93H70.07V70.07Z" fill="#4091F7"/>
</svg>
