<svg width="255" height="255" viewBox="0 0 255 255" fill="none" xmlns="http://www.w3.org/2000/svg">
<path d="M169.921 0.676758H51.0082C22.9623 0.676758 0.227539 23.4115 0.227539 51.4574V203.799C0.227539 231.845 22.9623 254.58 51.0082 254.58H203.35C231.396 254.58 254.131 231.845 254.131 203.799V84.8876L169.921 0.676758Z" fill="#5AC25C"/>
<path fill-rule="evenodd" clip-rule="evenodd" d="M206.555 71.4028H47.8022V183.854H206.555V71.4028ZM136.279 92.2617H185.38V119.388H136.279V92.2617ZM136.279 135.869H185.38V162.995H136.279V135.869ZM118.08 135.869H68.9795V162.995H118.08V135.869ZM68.9815 92.2638H118.082V119.39H68.9815V92.2638Z" fill="white"/>
<path fill-rule="evenodd" clip-rule="evenodd" d="M254.135 84.9344H170.044V0.891113H170.198L254.135 84.8285V84.9344Z" fill="#43933C"/>
</svg>
