<?xml version="1.0" encoding="UTF-8"?>
<svg width="84px" height="84px" viewBox="0 0 84 84" version="1.1" xmlns="http://www.w3.org/2000/svg" xmlns:xlink="http://www.w3.org/1999/xlink">
    <!-- Generator: Sketch 63.1 (92452) - https://sketch.com -->
    <title>Group 28 Copy 2</title>
    <desc>Created with Sketch.</desc>
    <defs>
        <path d="M15,0 L68.2910156,0 C76.5752869,0 83.2910156,6.71572875 83.2910156,15 L83.2910156,68.2910156 C83.2910156,76.5752869 76.5752869,83.2910156 68.2910156,83.2910156 L15,83.2910156 C6.71572875,83.2910156 0,76.5752869 0,68.2910156 L0,15 C0,6.71572875 6.71572875,0 15,0 Z" id="path-1"></path>
    </defs>
    <g id="Page-2" stroke="none" stroke-width="1" fill="none" fill-rule="evenodd">
        <g id="Desktop-HD-Copy-7" transform="translate(-1673.000000, -2010.000000)">
            <g id="Group-4" transform="translate(1353.500000, 1676.000000)">
                <g id="Group-28-Copy-2" transform="translate(319.750000, 334.000000)">
                    <mask id="mask-2" fill="white">
                        <use xlink:href="#path-1"></use>
                    </mask>
                    <path stroke="#EAEAEA" d="M68.2910156,0.5 L15,0.5 C10.9959356,0.5 7.37093556,2.12296778 4.74695167,4.74695167 C2.12296778,7.37093556 0.5,10.9959356 0.5,15 L0.5,68.2910156 C0.5,72.2950801 2.12296778,75.9200801 4.74695167,78.544064 C7.37093556,81.1680478 10.9959356,82.7910156 15,82.7910156 L68.2910156,82.7910156 C72.2950801,82.7910156 75.9200801,81.1680478 78.544064,78.544064 C81.1680478,75.9200801 82.7910156,72.2950801 82.7910156,68.2910156 L82.7910156,15 C82.7910156,10.9959356 81.1680478,7.37093556 78.544064,4.74695167 C75.9200801,2.12296778 72.2950801,0.5 68.2910156,0.5 Z"></path>
                    <g id="Cloud_Logo_Nav" mask="url(#mask-2)">
                        <g transform="translate(14.610189, 20.085696)" id="Group">
                            <g>
                                <path d="M34.0230225,11.8715622 L35.6564878,11.8715622 L40.3125067,7.2155432 L40.540806,5.23802133 C31.8750801,-2.41161203 18.6497997,-1.58523298 11.0001663,7.08049292 C8.87473228,9.48567399 7.33451606,12.3506691 6.49205959,15.4503944 C7.0097523,15.2381726 7.58532371,15.2028022 8.1255248,15.3539299 L17.4375627,13.8169292 C17.4375627,13.8169292 17.9102387,13.0323514 18.1578309,13.0805837 C22.2993726,8.53067563 29.2705391,8.00011259 34.0551774,11.8715622 L34.0230225,11.8715622 Z" id="Path" fill="#EA4335" fill-rule="nonzero"></path>
                                <path d="M46.9460475,15.4503944 C45.8752918,11.5082126 43.6791171,7.96475067 40.6244085,5.25731423 L34.0905477,11.7911751 C36.8494318,14.0452285 38.4218029,17.4439937 38.3542777,21.0067485 L38.3542777,22.1675378 C41.566545,22.1675378 44.171086,24.7720788 44.171086,27.984346 C44.171086,31.1966132 41.566545,33.8011542 38.3542777,33.8011542 L26.7206613,33.8011542 L25.559872,34.9780209 L25.559872,41.9556184 L26.7206613,43.1164076 L38.3542777,43.1164076 C46.7081018,43.1807173 53.5345716,36.4603584 53.5988813,28.1065344 C53.6374671,23.0325026 51.139037,18.2864502 46.9460475,15.4503944 Z" id="Path" fill="#4285F4" fill-rule="nonzero"></path>
                                <path d="M15.0709675,43.0424515 L26.7045839,43.0424515 L26.7045839,33.7304136 L15.0709675,33.7304136 C14.2413729,33.7304136 13.4246403,33.5503466 12.6690019,33.2062899 L11.0355367,33.7143362 L6.34736287,38.3703552 L5.93899656,40.0038204 C8.56604594,41.9909887 11.7750977,43.0585289 15.0709675,43.0424515 Z" id="Path" fill="#34A853" fill-rule="nonzero"></path>
                                <path d="M15.0709675,12.8360809 C6.7139279,12.8844392 -0.0160774135,19.6980471 0.0318971882,28.0550866 C0.0610941715,32.720752 2.23797597,37.1131014 5.93899656,39.9555881 L12.6850793,33.2095054 C9.75899002,31.887942 8.45671952,28.4409446 9.77828292,25.5148553 C11.0998463,22.588766 14.5468438,21.2864955 17.472933,22.6080589 C18.7623416,23.1900613 19.7945116,24.2254467 20.3797294,25.5148553 L27.1258121,18.7687726 C24.2576016,15.0130888 19.7945116,12.8169141 15.0709675,12.8360809 Z" id="Path" fill="#FBBC05" fill-rule="nonzero"></path>
                            </g>
                        </g>
                    </g>
                </g>
            </g>
        </g>
    </g>
</svg>