<svg width="48" height="47" viewBox="0 0 48 47" fill="none" xmlns="http://www.w3.org/2000/svg">
<rect x="0.422241" y="0.0420532" width="46.7694" height="46.7694" rx="10" fill="#3252FB"/>
<path d="M23.8069 9.21317C15.9611 9.21317 9.59338 15.5808 9.59338 23.4267C9.59338 31.2726 15.9611 37.6403 23.8069 37.6403C31.6528 37.6403 38.0205 31.2726 38.0205 23.4267C38.0205 15.5808 31.6528 9.21317 23.8069 9.21317ZM34.4103 19.3332L30.4589 20.9678C29.734 19.0347 28.2131 17.4997 26.2659 16.789L27.9004 12.8376C30.8853 13.9747 33.259 16.3484 34.4103 19.3332ZM23.8069 27.6908C21.4475 27.6908 19.5429 25.7862 19.5429 23.4267C19.5429 21.0673 21.4475 19.1627 23.8069 19.1627C26.1664 19.1627 28.071 21.0673 28.071 23.4267C28.071 25.7862 26.1664 27.6908 23.8069 27.6908ZM19.7277 12.8234L21.3906 16.7748C19.4292 17.4855 17.8799 19.0347 17.155 20.9962L13.2036 19.3474C14.3549 16.3484 16.7286 13.9747 19.7277 12.8234ZM13.2036 27.506L17.155 25.8715C17.8799 27.8329 19.415 29.368 21.3764 30.0787L19.7134 34.03C16.7286 32.8787 14.3549 30.5051 13.2036 27.506ZM27.9004 34.03L26.2659 30.0787C28.2131 29.3538 29.7482 27.8187 30.4589 25.8572L34.4103 27.5202C33.259 30.5051 30.8853 32.8787 27.9004 34.03Z" fill="white"/>
</svg>
