<svg width="59" height="59" viewBox="0 0 59 59" fill="none" xmlns="http://www.w3.org/2000/svg">
<mask id="mask0" mask-type="alpha" maskUnits="userSpaceOnUse" x="0" y="0" width="59" height="59">
<path d="M10.6115 0H48.3113C54.1719 0 58.9228 4.75093 58.9228 10.6115V48.3113C58.9228 54.1719 54.1719 58.9228 48.3113 58.9228H10.6115C4.75093 58.9228 0 54.1719 0 48.3113V10.6115C0 4.75093 4.75093 0 10.6115 0Z" fill="white"/>
</mask>
<g mask="url(#mask0)">
<path d="M10.6115 0H48.3113C54.1719 0 58.9228 4.75093 58.9228 10.6115V48.3113C58.9228 54.1719 54.1719 58.9228 48.3113 58.9228H10.6115C4.75093 58.9228 0 54.1719 0 48.3113V10.6115C0 4.75093 4.75093 0 10.6115 0Z" fill="url(#paint0_linear)"/>
</g>
<path d="M33.8401 13.1912C35.2327 13.1912 36.3699 14.2849 36.4397 15.6602L36.443 15.7942L36.4432 36.9183L42.4884 30.8727C43.4759 29.8853 45.0594 29.857 46.0809 30.7881L46.1695 30.8727C47.157 31.8602 47.1852 33.4437 46.2542 34.4652L46.1695 34.5538L35.6807 45.0427C34.0687 46.6547 31.3319 45.5597 31.2396 43.3191L31.2372 43.2022V15.7942C31.2372 14.3566 32.4025 13.1912 33.8401 13.1912ZM27.7605 15.6809L27.7629 15.7979V43.2059C27.7629 44.6434 26.5975 45.8088 25.1599 45.8088C23.7673 45.8088 22.6301 44.7151 22.5604 43.3398L22.557 43.2059L22.5569 22.0817L16.5116 28.1273C15.5241 29.1148 13.9407 29.143 12.9191 28.2119L12.8305 28.1273C11.843 27.1398 11.8148 25.5564 12.7459 24.5348L12.8305 24.4462L23.3194 13.9573C24.9314 12.3453 27.6682 13.4403 27.7605 15.6809Z" fill="white"/>
<defs>
<linearGradient id="paint0_linear" x1="1.86806" y1="-7.53908e-08" x2="62.967" y2="64.2686" gradientUnits="userSpaceOnUse">
<stop stop-color="#1AA5F0"/>
<stop offset="1" stop-color="#26D894"/>
</linearGradient>
</defs>
</svg>
