<?xml version="1.0" encoding="UTF-8"?>
<svg width="87px" height="87px" viewBox="0 0 87 87" version="1.1" xmlns="http://www.w3.org/2000/svg" xmlns:xlink="http://www.w3.org/1999/xlink">
    <title>labels</title>
    <g id="Page-1" stroke="none" stroke-width="1" fill="none" fill-rule="evenodd">
        <g id="labels" fill="#1890FF" fill-rule="nonzero">
            <path d="M70.7515226,0 C79.5880786,0 86.7515226,7.163444 86.7515226,16 L86.7515226,70.7515226 C86.7515226,79.5880786 79.5880786,86.7515226 70.7515226,86.7515226 L16,86.7515226 C7.163444,86.7515226 0,79.5880786 0,70.7515226 L0,16 C0,7.163444 7.163444,0 16,0 L70.7515226,0 Z M46.22747,15.5 L46.19977,15.5 C45.97787,15.5 45.80457,15.56934 45.67277,15.70107 L13.20277,48.17111 C13.13849,48.23521 13.08749,48.31141 13.0527,48.39531 C13.01791,48.47921 13,48.56911 13,48.65991 C13,48.75071 13.01791,48.84061 13.0527,48.92451 C13.08749,49.00841 13.13849,49.08461 13.20277,49.14871 L38.42717,74.37311 C38.49177,74.43771 38.56857,74.48871 38.65307,74.52331 C38.73757,74.55781 38.82817,74.57511 38.91947,74.5742744 C39.10667,74.5742744 39.27997,74.50491 39.41177,74.37311 L71.88177,41.90311 C72.02047,41.75751 72.08977,41.55641 72.07587,41.34841 L70.02357,19.67401 C69.91957,18.55078 69.02517,17.66328 67.90187,17.55234 L46.22747,15.5 Z M54.18807,27.28711 C57.55087,27.28711 60.28967,30.02591 60.28967,33.38871 C60.28967,36.75151 57.55087,39.49021 54.18807,39.49021 C50.82527,39.49021 48.08657,36.75151 48.08657,33.38871 C48.08657,30.02591 50.82527,27.28711 54.18807,27.28711 Z" id="Combined-Shape"></path>
        </g>
    </g>
</svg>