<svg width="71" height="71" viewBox="0 0 71 71" fill="none" xmlns="http://www.w3.org/2000/svg">
<path d="M40.8387 11.4127L13.1251 39.1263L31.8736 57.8748L59.5871 30.1611L57.9647 13.0351L40.8387 11.4127ZM47.1483 29.9531C43.7855 29.9531 41.0467 27.2143 41.0467 23.8515C41.0467 20.4887 43.7855 17.75 47.1483 17.75C50.5111 17.75 53.2498 20.4887 53.2498 23.8515C53.2498 27.2143 50.5111 29.9531 47.1483 29.9531Z" fill="#E6F7FF"/>
<path d="M47.1484 17.75C43.7856 17.75 41.0469 20.4888 41.0469 23.8516C41.0469 27.2144 43.7856 29.9531 47.1484 29.9531C50.5112 29.9531 53.25 27.2144 53.25 23.8516C53.25 20.4888 50.5112 17.75 47.1484 17.75ZM47.1484 26.0703C45.9212 26.0703 44.9297 25.0788 44.9297 23.8516C44.9297 22.6243 45.9212 21.6328 47.1484 21.6328C48.3757 21.6328 49.3672 22.6243 49.3672 23.8516C49.3672 25.0788 48.3757 26.0703 47.1484 26.0703Z" fill="#4091F7"/>
<path d="M65.0362 31.8113L62.9839 10.1369C62.8799 9.01367 61.9855 8.12617 60.8622 8.01523L39.1878 5.96289H39.1601C38.9382 5.96289 38.7649 6.03223 38.6331 6.16396L6.1631 38.634C6.09882 38.6981 6.04782 38.7743 6.01303 38.8582C5.97824 38.9421 5.96033 39.032 5.96033 39.1228C5.96033 39.2136 5.97824 39.3035 6.01303 39.3874C6.04782 39.4713 6.09882 39.5475 6.1631 39.6116L31.3875 64.836C31.4521 64.9006 31.5289 64.9516 31.6134 64.9862C31.6979 65.0207 31.7885 65.038 31.8798 65.0371C32.067 65.0371 32.2403 64.9678 32.3721 64.836L64.8421 32.366C64.9808 32.2204 65.0501 32.0193 65.0362 31.8113ZM31.8729 57.8747L13.1244 39.1263L40.838 11.4127L57.964 13.0352L59.5864 30.1611L31.8729 57.8747Z" fill="#4091F7"/>
</svg>
