<?xml version="1.0" encoding="UTF-8"?>
<svg width="64px" height="64px" viewBox="0 0 64 64" version="1.1" xmlns="http://www.w3.org/2000/svg" xmlns:xlink="http://www.w3.org/1999/xlink">
    <title>Combined Shape</title>
    <g id="Page-1" stroke="none" stroke-width="1" fill="none" fill-rule="evenodd">
        <g id="Artboard" transform="translate(-41.000000, -13.000000)" fill="#FFFFFF">
            <g id="Group-Copy-4" transform="translate(41.000000, 13.000000)">
                <path d="M31.9999331,3.62466234e-12 C49.6730851,3.62466234e-12 64,14.3269149 64,32.0000669 C64,49.6730838 49.6730851,64 31.9999331,64 C14.3269162,64 2.9756006e-12,49.6730838 2.9756006e-12,32.0000669 C2.9756006e-12,14.3269149 14.3269162,3.62466234e-12 31.9999331,3.62466234e-12 Z M38.8092088,14.9499243 C37.7599733,15.9995628 37.1009427,17.2910116 36.8303669,18.6448302 C31.7026082,16.7147789 25.8211916,17.940904 21.9057122,21.8567864 C17.9867395,25.7757591 16.7618247,31.6638972 18.6991331,36.7948813 C17.3365779,37.0625007 16.0357206,37.7236817 14.9800315,38.7792356 C12.1522308,41.6070362 12.1522308,46.1921652 14.9800315,49.0199672 C17.8079686,51.8477678 22.3928286,51.8477678 25.2207644,49.0199672 C26.2825001,47.9580963 26.9454297,46.6485011 27.2099562,45.2774785 C28.7984606,45.8701091 30.4580701,46.1629981 32.1094787,46.1629981 C35.777906,46.1629981 39.4014363,44.7378066 42.0941526,42.0450916 C45.9956523,38.1438611 47.2282284,32.2906704 45.3278824,27.1758149 C46.691648,26.9085999 47.9935805,26.2471498 49.0499418,25.190656 C51.8778763,22.362854 51.8778763,17.7778602 49.0499418,14.9499243 C46.2221385,12.1221224 41.6371446,12.1221224 38.8092088,14.9499243 Z M47.2689545,16.6467654 C49.1335471,18.5113566 49.1335471,21.5452141 47.2689545,23.4098053 C46.1947186,24.4844442 44.7152256,24.9770717 43.2073687,24.7622783 C43.1353224,24.7520623 43.0651599,24.754617 42.99607,24.7626813 C42.5503545,24.7047486 42.0839366,24.7655038 41.6462842,24.9683352 C41.0230082,25.2569208 40.5780975,25.7729366 40.3627659,26.3718856 C40.151198,26.9602155 40.1612801,27.6286561 40.4446239,28.2406422 C42.0500644,31.7087914 41.3121321,35.8554633 38.6083952,38.559199 C35.9043891,41.2626682 31.7575846,42.0018108 28.2884941,40.395026 C27.6681745,40.1077833 26.989787,40.1007928 26.3955417,40.3213663 C25.806944,40.5397895 25.3007399,40.9814734 25.0161871,41.5962833 C24.8344585,41.9885032 24.765639,42.4038424 24.7945371,42.8065462 C24.783918,42.8859847 24.7808265,42.9671719 24.7945371,43.0506419 C25.0473707,44.5719389 24.547888,46.1306041 23.4590015,47.2202979 C21.5945442,49.084217 18.5606867,49.084217 16.6958277,47.2202979 C15.7925661,46.3166332 15.2950984,45.115779 15.2950984,43.8385764 C15.2950984,42.5609722 15.7925661,41.3599841 16.6958277,40.4568563 C17.7697945,39.3824852 19.2500962,38.8906638 20.8332235,39.1074735 C20.9930419,39.1397337 21.1550106,39.1620455 21.3196678,39.1620455 C21.6663214,39.1620455 22.0186212,39.0883871 22.3535806,38.9334077 C22.9619382,38.651676 23.3999936,38.1530006 23.6209688,37.5721981 C23.8485315,36.9737874 23.8453074,36.2881416 23.5551057,35.6611006 C21.9499343,32.1928162 22.6878665,28.0462795 25.3914709,25.3426778 C28.0954757,22.6386717 32.2425493,21.9003364 35.7113707,23.5067168 C36.3292708,23.7930196 37.0051063,23.8012179 37.5978707,23.583199 C38.1892922,23.365448 38.6979145,22.9225537 38.983679,22.3054596 C39.2051938,21.8272149 39.2585554,21.3146937 39.1702451,20.8165566 C38.9175467,19.2945861 39.4168942,17.7357884 40.5060525,16.6467654 C42.3705072,14.7819064 45.4044999,14.7819064 47.2689545,16.6467654 Z M28.288628,28.239567 C26.2198638,30.3084665 26.2198638,33.662768 28.288628,35.7315336 C30.3575288,37.8005669 33.7119629,37.8005669 35.7807298,35.7315336 C37.8496292,33.662768 37.8496292,30.3084665 35.7807298,28.239567 C33.7119629,26.1708028 30.3575288,26.1708028 28.288628,28.239567 Z" id="Combined-Shape"></path>
            </g>
        </g>
    </g>
</svg>