<?xml version="1.0" encoding="UTF-8"?>
<svg width="83px" height="26px" viewBox="0 0 83 26" version="1.1" xmlns="http://www.w3.org/2000/svg" xmlns:xlink="http://www.w3.org/1999/xlink">
    <!-- Generator: Sketch 45.1 (43504) - http://www.bohemiancoding.com/sketch -->
    <title>Combined Shape</title>
    <desc>Created with Sketch.</desc>
    <defs></defs>
    <g id="For-Derek" stroke="none" stroke-width="1" fill="none" fill-rule="evenodd">
        <g id="Landing-Page-1" transform="translate(-19.000000, -23.000000)" fill="#FFFFFF">
            <path d="M38.6975099,33.442315 C38.2836031,33.8562217 37.7735684,34.1153624 37.2392488,34.2200407 C37.9837851,36.2240051 37.5008686,38.5171628 35.9723329,40.0456479 C34.9173538,41.1006269 33.4976957,41.6589786 32.0604816,41.6589786 C31.4134898,41.6589786 30.7633107,41.5442322 30.1409074,41.3120073 C30.0372916,41.8492108 29.7775438,42.3622811 29.3615627,42.7782622 C28.2536627,43.8861622 26.4573853,43.8861622 25.3494347,42.7782622 C24.2415347,41.6703622 24.2415347,39.8740342 25.3494347,38.7661342 C25.7630379,38.352531 26.2726678,38.0934915 26.8065322,37.9886614 C26.047526,35.9784234 26.5274069,33.6715548 28.0628234,32.1361384 C29.5968232,30.6019868 31.9011115,30.1216 33.910034,30.8777728 C34.0160278,30.3473489 34.2742578,29.8413617 34.6853819,29.430187 C35.7932819,28.322287 37.5896099,28.322287 38.6975099,29.430187 C39.8054099,30.538087 39.8054099,32.334415 38.6975099,33.442315 M32.0175781,23.5730094 C38.9416243,23.5730094 44.5546875,29.1860726 44.5546875,36.1101187 C44.5546875,43.0341649 38.9416243,48.6472281 32.0175781,48.6472281 C25.093532,48.6472281 19.4804687,43.0341649 19.4804687,36.1101187 C19.4804687,29.1860726 25.093532,23.5730094 32.0175781,23.5730094 Z M33.4988391,37.5721187 C32.6882781,38.3826798 31.3741077,38.3826798 30.5635466,37.5721187 C29.7530362,36.7615577 29.7530362,35.4473873 30.5635466,34.6368262 C31.3741077,33.8263158 32.6882781,33.8263158 33.4988391,34.6368262 C34.3094002,35.4473873 34.3094002,36.7615577 33.4988391,37.5721187 Z M35.3501118,30.094932 C34.9234048,30.5215884 34.7277592,31.1323551 34.826771,31.728652 C34.8271251,31.7307769 34.8268721,31.7328007 34.8271757,31.7349256 C34.861377,31.9237917 34.8404818,32.1245474 34.7537137,32.3119463 C34.6417499,32.5537334 34.4424615,32.7272191 34.2107425,32.81252 C33.9785176,32.8979727 33.713761,32.8947347 33.4716703,32.7825685 C32.1126234,32.153234 30.4878585,32.442478 29.4284778,33.5018586 C28.3692489,34.5610875 28.0801568,36.18565 28.709036,37.5444946 C28.8227199,37.7901268 28.8239848,38.0587286 28.7348387,38.2932302 C28.648273,38.5207499 28.4766087,38.7161426 28.238262,38.8264874 C28.107022,38.8872504 27.9690025,38.9160888 27.8332091,38.9160888 C27.7687022,38.9160888 27.7052071,38.907336 27.6426228,38.8946876 C27.6327064,38.8941817 27.6229418,38.89489 27.6129243,38.8934734 C27.0223951,38.8097915 26.4424399,39.0024521 26.0216524,39.4233914 C25.6677498,39.7772435 25.472863,40.2477645 25.472863,40.7482876 C25.472863,41.2486589 25.6677498,41.71918 26.0216524,42.0731838 C26.7522755,42.8034528 27.9408724,42.8034528 28.6713437,42.0731838 C29.098,41.6462745 29.2936457,41.035609 29.1946339,40.4395651 C29.1892204,40.4069322 29.1904347,40.3750582 29.1946339,40.3439431 C29.183301,40.186192 29.2102674,40.0234828 29.2814527,39.8698299 C29.3929611,39.6289029 29.5912377,39.4558725 29.8218436,39.3703186 C30.0546756,39.2839047 30.3204441,39.2866367 30.563496,39.399157 C31.9225936,40.0286434 33.5472572,39.7390958 34.6066885,38.6799681 C35.6659174,37.620638 35.9550602,35.996025 35.3260798,34.6372816 C35.2150773,34.3974676 35.211131,34.1355948 35.2940034,33.9050901 C35.3783431,33.6704367 35.5526888,33.4682644 35.7968538,33.3552382 C35.9683157,33.2757556 36.1510601,33.2519765 36.3257094,33.2746425 C36.3527264,33.2715057 36.3802493,33.2704938 36.4084806,33.2744907 C36.9992122,33.358628 37.5788638,33.1656132 37.9997524,32.7446233 C38.7302743,32.0141014 38.7302743,30.8254539 37.9997524,30.094932 C37.2692812,29.3643596 36.0805831,29.3643596 35.3501118,30.094932 Z M51.9436225,42.4323793 L49.8103293,42.4323793 L49.8103293,29.1176871 L51.9436225,29.1176871 L51.9436225,34.3405774 C52.2501317,33.9482457 52.6363275,33.6631964 53.1022214,33.4854211 C53.5681154,33.3076458 54.0340023,33.2187594 54.4998963,33.2187594 C55.0516128,33.2187594 55.532825,33.3107108 55.9435473,33.4946163 C56.3542696,33.6785218 56.6944897,33.9329206 56.9642178,34.2578204 C57.2339459,34.5827201 57.4362389,34.9597207 57.5711029,35.3888336 C57.705967,35.8179464 57.773398,36.2777033 57.773398,36.768118 L57.773398,42.4323793 L55.6401047,42.4323793 L55.6401047,37.1359272 C55.6401047,36.5842106 55.5021777,36.1152586 55.2263194,35.7290571 C54.9504611,35.3428555 54.475379,35.1497576 53.8010588,35.1497576 C53.2125612,35.1497576 52.7619995,35.3428555 52.4493601,35.7290571 C52.1367208,36.1152586 51.9681432,36.5964708 51.9436225,37.1727081 L51.9436225,42.4323793 Z M67.832979,39.8761056 C67.7103753,40.2684373 67.5326027,40.6362428 67.2996557,40.9795331 C67.0667087,41.3228234 66.7785944,41.6231979 66.4353041,41.8806656 C66.0920138,42.1381333 65.699688,42.3404263 65.2583147,42.4875507 C64.8169415,42.6346751 64.3265342,42.7082362 63.787078,42.7082362 C63.1740597,42.7082362 62.591701,42.6009596 62.0399844,42.3864032 C61.4882679,42.1718468 61.0039907,41.8592121 60.5871382,41.4484898 C60.1702857,41.0377675 59.8361957,40.5351 59.5848582,39.9404722 C59.3335206,39.3458443 59.2078538,38.6684692 59.2078538,37.9083265 C59.2078538,37.1972251 59.3273905,36.5535655 59.5664677,35.9773283 C59.8055449,35.401091 60.1273747,34.9076186 60.5319668,34.4968963 C60.9365589,34.086174 61.4024459,33.7674093 61.9296417,33.5405925 C62.4568375,33.3137757 63.0024156,33.200369 63.5663925,33.200369 C64.2529731,33.200369 64.8690473,33.3107106 65.4146336,33.5313972 C65.96022,33.7520838 66.4199769,34.0647185 66.7939181,34.4693106 C67.1678593,34.8739028 67.4529085,35.361245 67.6490744,35.9313521 C67.8452403,36.5014592 67.9433217,37.1420538 67.9433217,37.8531551 C67.9433217,38.0248002 67.9371917,38.1749875 67.9249313,38.3037213 C67.9126709,38.4324552 67.9004107,38.5090813 67.8881504,38.5336021 L61.341147,38.5336021 C61.3534074,38.8768923 61.4269685,39.189527 61.5618325,39.4715155 C61.6966965,39.7535039 61.8744692,39.9987076 62.0951558,40.2071338 C62.3158424,40.4155601 62.5702412,40.5780075 62.8583599,40.694481 C63.1464785,40.8109545 63.4560481,40.8691903 63.787078,40.8691903 C64.4368775,40.8691903 64.93648,40.7190031 65.2859004,40.4186241 C65.6353209,40.1182451 65.8835896,39.7473745 66.030714,39.3060013 L67.832979,39.8761056 Z M65.7916381,36.970413 C65.7793777,36.7129453 65.7272719,36.4646766 65.6353192,36.2255995 C65.5433664,35.9865223 65.4054393,35.7750341 65.2215338,35.5911286 C65.0376283,35.4072231 64.8108149,35.2601009 64.5410868,35.1497576 C64.2713588,35.0394143 63.952594,34.9842435 63.584783,34.9842435 C63.2537531,34.9842435 62.9564436,35.0424794 62.6928457,35.1589528 C62.4292478,35.2754263 62.2054995,35.4286786 62.021594,35.6187143 C61.8376885,35.80875 61.6905663,36.0233032 61.580223,36.2623804 C61.4698797,36.5014575 61.4085787,36.7374661 61.3963184,36.970413 L65.7916381,36.970413 Z M69.5249012,42.4323793 L69.5249012,29.1176871 L71.6581944,29.1176871 L71.6581944,42.4323793 L69.5249012,42.4323793 Z M73.9570018,42.4323793 L73.9570018,33.4762259 L76.0719046,33.4762259 L76.0719046,42.4323793 L73.9570018,42.4323793 Z M73.6259735,30.3314574 C73.6259735,29.9391256 73.7608356,29.6081007 74.0305636,29.3383726 C74.3002917,29.0686445 74.6251866,28.9337825 75.005258,28.9337825 C75.3975897,28.9337825 75.7286147,29.0686445 75.9983427,29.3383726 C76.2680708,29.6081007 76.4029328,29.9391256 76.4029328,30.3314574 C76.4029328,30.7237891 76.2680708,31.051749 75.9983427,31.3153469 C75.7286147,31.5789448 75.3975897,31.7107418 75.005258,31.7107418 C74.6251866,31.7107418 74.3002917,31.5789448 74.0305636,31.3153469 C73.7608356,31.051749 73.6259735,30.7237891 73.6259735,30.3314574 Z M84.2004874,41.4392946 C83.9798008,41.8438867 83.6334506,42.1534563 83.1614265,42.3680127 C82.6894023,42.5825692 82.1897999,42.6898458 81.6626041,42.6898458 C81.1231479,42.6898458 80.6450008,42.5978944 80.2281483,42.4139889 C79.8112958,42.2300834 79.4588155,41.9756846 79.1706969,41.6507848 C78.8825783,41.3258851 78.661895,40.9488845 78.5086404,40.5197716 C78.3553858,40.0906588 78.2787596,39.6247718 78.2787596,39.1220967 L78.2787596,33.4762259 L80.4120529,33.4762259 L80.4120529,38.7358971 C80.4120529,39.0178855 80.4457684,39.2814795 80.5132004,39.5266868 C80.5806324,39.7718942 80.687909,39.9864474 80.8350334,40.1703529 C80.9821578,40.3542584 81.1691256,40.5013806 81.3959424,40.6117239 C81.6227592,40.7220672 81.8955483,40.777238 82.2143178,40.777238 C82.8395966,40.777238 83.3085486,40.5902702 83.6211879,40.216329 C83.9338273,39.8423878 84.0901447,39.3611756 84.0901447,38.772678 L84.0901447,33.4762259 L86.2234379,33.4762259 L86.2234379,40.7956285 C86.2234379,41.1634395 86.232633,41.4852693 86.2510236,41.7611276 C86.2694141,42.0369859 86.2908694,42.2607342 86.3153902,42.4323793 L84.2740492,42.4323793 C84.2495285,42.3342964 84.2311382,42.1902393 84.2188779,42.0002036 C84.2066175,41.8101679 84.2004874,41.6232001 84.2004874,41.4392946 Z M88.5222452,42.4323793 L88.5222452,33.4762259 L90.5635862,33.4762259 L90.5635862,34.6164343 C90.8210539,34.1628007 91.2011196,33.8164505 91.7037946,33.5773734 C92.2064697,33.3382962 92.7091372,33.2187594 93.2118123,33.2187594 C93.8003099,33.2187594 94.3336279,33.3505564 94.8117822,33.6141543 C95.2899365,33.8777522 95.6516119,34.2731431 95.8968193,34.8003389 C96.2523699,34.2118413 96.6784113,33.8011251 97.1749562,33.5681781 C97.671501,33.3352312 98.2140141,33.2187594 98.8025118,33.2187594 C99.2071039,33.2187594 99.5994298,33.2861904 99.9795011,33.4210545 C100.359573,33.5559185 100.696728,33.7612766 100.990976,34.0371348 C101.285225,34.3129931 101.521234,34.6654734 101.699009,35.0945862 C101.876784,35.5236991 101.965671,36.0324967 101.965671,36.6209943 L101.965671,42.4323793 L99.9059393,42.4323793 L99.9059393,36.970413 C99.9059393,36.4432173 99.7680122,36.0049157 99.492154,35.6554952 C99.2162957,35.3060748 98.7779942,35.1313672 98.1772362,35.1313672 C97.6132593,35.1313672 97.1626975,35.324465 96.8255374,35.7106666 C96.4883773,36.0968682 96.3197998,36.5658202 96.3197998,37.1175367 L96.3197998,42.4323793 L94.2232875,42.4323793 L94.2232875,36.970413 C94.2232875,36.4554776 94.0884255,36.0202411 93.8186974,35.6646905 C93.5489693,35.3091398 93.1076027,35.1313672 92.4945844,35.1313672 C91.9183471,35.1313672 91.4647203,35.3183349 91.1336904,35.6922762 C90.8026605,36.0662174 90.637148,36.5412995 90.637148,37.1175367 L90.637148,42.4323793 L88.5222452,42.4323793 Z" id="Combined-Shape"></path>
        </g>
    </g>
</svg>