<svg width="6" height="9" viewBox="0 0 6 9" fill="none" xmlns="http://www.w3.org/2000/svg">
<path fill-rule="evenodd" clip-rule="evenodd" d="M4.7914 1.09614C4.94081 1.2456 5.02475 1.44828 5.02475 1.65961C5.02475 1.87094 4.94081 2.07362 4.7914 2.22308L2.16692 4.84756L4.7914 7.47204C4.93658 7.62235 5.01691 7.82367 5.01509 8.03264C5.01328 8.24161 4.92946 8.4415 4.78169 8.58927C4.63392 8.73704 4.43403 8.82086 4.22506 8.82267C4.01609 8.82449 3.81477 8.74416 3.66446 8.59898L0.476511 5.41103C0.327099 5.26157 0.243164 5.05889 0.243164 4.84756C0.243164 4.63623 0.327099 4.43355 0.476511 4.28409L3.66446 1.09614C3.81392 0.946728 4.0166 0.862793 4.22793 0.862793C4.43926 0.862793 4.64194 0.946728 4.7914 1.09614Z" fill="#12CB9E"/>
</svg>
