<?xml version="1.0" encoding="UTF-8"?>
<svg width="138px" height="138px" viewBox="0 0 138 138" version="1.1" xmlns="http://www.w3.org/2000/svg" xmlns:xlink="http://www.w3.org/1999/xlink">
    <!-- Generator: Sketch 63.1 (92452) - https://sketch.com -->
    <title>Group 31 Copy</title>
    <desc>Created with Sketch.</desc>
    <defs>
        <linearGradient x1="89.3797632%" y1="11.5746277%" x2="0%" y2="100%" id="linearGradient-1">
            <stop stop-color="#5D1DDB" offset="0%"></stop>
            <stop stop-color="#B671D0" offset="100%"></stop>
        </linearGradient>
    </defs>
    <g id="Page-2" stroke="none" stroke-width="1" fill="none" fill-rule="evenodd">
        <g id="Group-31-Copy">
            <path d="M24.8043956,0 L112.927825,0 C126.626914,0 137.73222,11.1053062 137.73222,24.8043956 L137.73222,112.927825 C137.73222,126.626914 126.626914,137.73222 112.927825,137.73222 L24.8043956,137.73222 C11.1053062,137.73222 0,126.626914 0,112.927825 L0,24.8043956 C0,11.1053062 11.1053062,0 24.8043956,0 Z" id="Rectangle-Copy-51" fill="url(#linearGradient-1)"></path>
            <path d="M68.8661101,27.7240797 C91.588226,27.7240797 110.00814,46.1439941 110.00814,68.8661101 C110.00814,91.588226 91.588226,110.00814 68.8661101,110.00814 C46.1439941,110.00814 27.7240797,91.588226 27.7240797,68.8661101 C27.7240797,46.1439941 46.1439941,27.7240797 68.8661101,27.7240797 Z M68.8661101,35.9922115 C50.7103572,35.9922115 35.9922115,50.7103572 35.9922115,68.8661101 C35.9922115,87.0218629 50.7103572,101.740009 68.8661101,101.740009 C87.0218629,101.740009 101.740009,87.0218629 101.740009,68.8661101 C101.740009,50.7103572 87.0218629,35.9922115 68.8661101,35.9922115 Z M68.8661101,46.3616924 C81.2949568,46.3616924 91.3705278,56.4372634 91.3705278,68.8661101 C91.3705278,81.2949568 81.2949568,91.3705278 68.8661101,91.3705278 C56.4372634,91.3705278 46.3616924,81.2949568 46.3616924,68.8661101 C46.3616924,56.4372634 56.4372634,46.3616924 68.8661101,46.3616924 Z M68.8661101,54.6298242 C61.0036265,54.6298242 54.6298242,61.0036265 54.6298242,68.8661101 C54.6298242,76.7285936 61.0036265,83.1023959 68.8661101,83.1023959 C76.7285936,83.1023959 83.1023959,76.7285936 83.1023959,68.8661101 C83.1023959,61.0036265 76.7285936,54.6298242 68.8661101,54.6298242 Z" id="Combined-Shape" fill="#FFFFFF" fill-rule="nonzero"></path>
            <circle id="Oval-Copy-47" fill="#FFFFFF" cx="68.8661101" cy="68.8661101" r="5.58139273"></circle>
        </g>
    </g>
</svg>