<?xml version="1.0" encoding="UTF-8"?>
<svg width="84px" height="84px" viewBox="0 0 84 84" version="1.1" xmlns="http://www.w3.org/2000/svg" xmlns:xlink="http://www.w3.org/1999/xlink">
    <!-- Generator: Sketch 63.1 (92452) - https://sketch.com -->
    <title>Group 19</title>
    <desc>Created with Sketch.</desc>
    <defs>
        <path d="M15.25,0 L68.5410156,0 C76.8252869,0 83.5410156,6.71572875 83.5410156,15 L83.5410156,68.2910156 C83.5410156,76.5752869 76.8252869,83.2910156 68.5410156,83.2910156 L15.25,83.2910156 C6.96572875,83.2910156 0.25,76.5752869 0.25,68.2910156 L0.25,15 C0.25,6.71572875 6.96572875,0 15.25,0 Z" id="path-1"></path>
        <polygon id="path-3" points="2.88579701e-05 -2.81646967e-05 61.7922439 -2.81646967e-05 61.7922439 35.8567024 2.88579701e-05 35.8567024"></polygon>
    </defs>
    <g id="Page-2" stroke="none" stroke-width="1" fill="none" fill-rule="evenodd">
        <g id="Desktop-HD-Copy-7" transform="translate(-1989.000000, -2040.000000)">
            <g id="Group-4" transform="translate(1353.500000, 1676.000000)">
                <g id="Group-19" transform="translate(634.500000, 364.000000)">
                    <g id="Group-30-Copy-2">
                        <g id="Rectangle-Copy-53" transform="translate(0.750000, 0.000000)">
                            <mask id="mask-2" fill="white">
                                <use xlink:href="#path-1"></use>
                            </mask>
                            <use id="Mask" fill="#041A2D" xlink:href="#path-1"></use>
                        </g>
                    </g>
                    <g id="Group-3" transform="translate(13.000000, 26.000000)">
                        <mask id="mask-4" fill="white">
                            <use xlink:href="#path-3"></use>
                        </mask>
                        <g id="Clip-2"></g>
                        <path d="M44.8684244,28.6182439 C44.6489122,28.5971707 44.4346683,28.5343902 44.2340341,28.5633659 C42.6513512,28.7956098 41.0537415,28.9681463 39.4995951,29.3290244 C38.9099854,29.465561 38.4239854,30.0472683 37.8905707,30.4265854 C38.3475951,30.9867805 38.6935463,31.7559512 39.281839,32.0694146 C41.5436927,33.2749756 44.1032049,31.6742927 44.8684244,28.6182439 M8.70554634,3.6017561 C12.5553512,-0.810878049 18.528278,0.613317073 19.1279854,5.9562439 C19.5551561,5.54707317 19.8901317,5.21165854 20.2404732,4.89336585 C22.4123268,2.92170732 24.9152049,2.09370732 27.8035463,2.85365854 C29.6790585,3.34712195 30.6918878,4.73663415 30.8104244,6.67360976 C31.0040341,9.82229268 30.0351073,12.7786829 29.3849122,15.7934634 C29.2413512,16.4599024 29.4371561,17.1987805 29.4762293,17.9047317 C30.1439854,17.6119024 30.9342293,17.4582439 31.4549122,16.9990244 C32.7983268,15.8136585 34.2725707,14.652878 35.2134,13.175561 C35.9496439,12.0200488 36.0497415,10.4189268 36.2802293,8.99121951 C36.6217902,6.87204878 36.7767659,4.72258537 37.1306195,2.60560976 C37.2153512,2.10117073 37.6912537,1.55546341 38.1381805,1.24726829 C38.5908146,0.934682927 39.2203756,0.820536585 39.7893512,0.745463415 C42.0617415,0.44604878 42.9450585,1.30609756 43.1812537,3.59253659 C43.5021805,6.69380488 42.2742293,9.49126829 41.6920829,12.4160488 C41.4651073,13.5561951 41.2319854,14.6998537 41.099839,15.8527317 C40.9246683,17.3774634 41.7601317,18.2458537 43.3046195,18.2076585 C44.7029122,18.1729756 45.9506195,17.6461463 46.4906195,16.3347805 C47.3374976,14.2801463 48.0140341,12.1513171 48.6813512,10.0286341 C49.540522,7.29790244 50.2807171,4.52941463 51.1451561,1.80043902 C51.7650585,-0.157170732 53.3108634,-0.458780488 54.6858878,1.07517073 C56.0767171,2.62712195 56.7712537,4.39331707 56.2163268,6.51556098 C55.1183268,10.7130732 54.0392049,14.9158537 52.9552537,19.116878 C52.8152049,19.6599512 52.691839,20.2069756 52.474961,21.1104878 C56.164522,18.6449268 58.3938878,15.2170244 61.4262293,12.2856585 C62.0377902,13.9302439 61.816522,15.2130732 61.2545707,16.4440976 C59.6424732,19.9751707 57.1580341,22.8582439 53.8412049,24.7583415 C51.4731073,26.1153659 50.0893024,27.7933171 49.2384732,30.3760976 C47.4077415,35.9345854 41.8536439,36.576 38.1531073,35.3037073 C36.2003268,34.632439 34.7159854,33.390878 34.0780829,31.3270244 C33.4068146,29.1556098 33.9661317,27.4982927 36.0642293,26.6869756 C38.2619854,25.8370244 40.6011073,25.3505854 42.882278,24.7192683 C43.3551073,24.588439 43.8459366,24.5217073 44.3279854,24.4224878 C46.6578878,23.9430732 47.5359366,22.5926341 47.1715463,20.052 C41.8514488,24.0396585 37.5674488,23.849122 34.3827659,19.3763415 C33.9402293,19.7569756 33.5126195,20.1376098 33.0714,20.502439 C31.4514,21.8419024 29.6838878,22.841561 27.5173024,22.9583415 C25.3915463,23.0729268 24.4164732,22.4179024 23.9383756,20.3663415 C23.3369122,17.7826829 23.6016439,15.2078049 24.142522,12.6421463 C24.3813512,11.5085854 24.6566195,10.3636098 24.7114976,9.2142439 C24.7861317,7.64034146 23.4523756,6.8742439 22.0668146,7.614 C21.7191073,7.79970732 21.3753512,8.06136585 21.1338878,8.37 C18.7916927,11.3645854 17.1514976,14.5400488 18.4417902,18.522439 C18.7592049,19.5019024 19.480522,20.7741951 18.4114976,21.5187805 C17.0606195,22.4600488 15.4599366,23.076878 13.8996439,23.652439 C13.6151561,23.7573659 12.784522,23.0799512 12.6018878,22.6097561 C12.2695463,21.7558537 12.064522,20.7781463 12.1044732,19.8654146 C12.2721805,16.0612683 12.5588634,12.2632683 12.7805707,8.46131707 C12.8139366,7.88795122 12.840278,7.27770732 12.6848634,6.73770732 C12.3951073,5.72882927 11.6070585,5.44039024 10.6693024,5.78853659 C10.2272049,5.95229268 9.78554634,6.27804878 9.48920488,6.64726829 C6.80413171,9.99087805 5.10027805,13.6031707 6.27993659,18.0640976 C7.13208293,21.2882927 6.85725366,21.7584878 3.87013171,23.1010244 C1.34486341,24.2359024 0.375936585,23.7174146 0.1854,20.9484878 C-0.132453659,16.3308293 -0.1566,11.6929756 1.05642439,7.19692683 C1.60783902,5.15239024 2.62857073,3.20356098 3.64710732,1.32585366 C4.58179024,-0.396 5.9634,-0.41795122 7.15974146,1.12697561 C7.72652195,1.85926829 8.15061951,2.7017561 8.70554634,3.6017561" id="Fill-1" fill="#FFFFFF" mask="url(#mask-4)"></path>
                    </g>
                </g>
            </g>
        </g>
    </g>
</svg>