<svg width="13" height="12" viewBox="0 0 13 12" fill="none" xmlns="http://www.w3.org/2000/svg">
<path fill-rule="evenodd" clip-rule="evenodd" d="M5.4399 0.990703C6.05036 -0.0945572 7.61202 -0.0945572 8.22168 0.990703L12.6744 8.90672C13.2729 9.97123 12.5045 11.2847 11.2843 11.2847H2.37803C1.15712 11.2847 0.388658 9.97123 0.987146 8.90672L5.4399 0.990703ZM7.62878 8.89155C7.62878 9.10319 7.5447 9.30616 7.39505 9.45582C7.2454 9.60547 7.04243 9.68954 6.83079 9.68954C6.61915 9.68954 6.41618 9.60547 6.26653 9.45582C6.11688 9.30616 6.03281 9.10319 6.03281 8.89155C6.03281 8.67992 6.11688 8.47694 6.26653 8.32729C6.41618 8.17764 6.61915 8.09357 6.83079 8.09357C7.04243 8.09357 7.2454 8.17764 7.39505 8.32729C7.5447 8.47694 7.62878 8.67992 7.62878 8.89155ZM6.83079 2.50767C6.61915 2.50767 6.41618 2.59175 6.26653 2.7414C6.11688 2.89105 6.03281 3.09402 6.03281 3.30566V5.69961C6.03281 5.91125 6.11688 6.11422 6.26653 6.26387C6.41618 6.41353 6.61915 6.4976 6.83079 6.4976C7.04243 6.4976 7.2454 6.41353 7.39505 6.26387C7.5447 6.11422 7.62878 5.91125 7.62878 5.69961V3.30566C7.62878 3.09402 7.5447 2.89105 7.39505 2.7414C7.2454 2.59175 7.04243 2.50767 6.83079 2.50767Z" fill="#F18F47"/>
</svg>
