<svg width="66" height="47" viewBox="0 0 66 47" fill="none" xmlns="http://www.w3.org/2000/svg">
<g clip-path="url(#clip0)">
<path d="M59.5663 0H6.23368C2.79092 0 0 2.79092 0 6.23368V40.7663C0 44.2091 2.79092 47 6.23368 47H59.5663C63.0091 47 65.8 44.2091 65.8 40.7663V6.23368C65.8 2.79092 63.0091 0 59.5663 0Z" fill="#353A48"/>
<path fill-rule="evenodd" clip-rule="evenodd" d="M41.5579 10.761C48.6347 10.761 54.3716 16.5713 54.3716 23.7387C54.3716 30.906 48.6347 36.7163 41.5579 36.7163C38.3862 36.7163 35.4835 35.5491 33.2459 33.6157C31.009 35.5492 28.1064 36.7163 24.9348 36.7163C17.858 36.7163 12.1211 30.906 12.1211 23.7387C12.1211 16.5713 17.858 10.761 24.9348 10.761C28.1064 10.761 31.009 11.9281 33.2465 13.8614C35.4835 11.9282 38.3862 10.761 41.5579 10.761Z" fill="#FF5E00"/>
<path fill-rule="evenodd" clip-rule="evenodd" d="M24.9348 10.761C28.1064 10.761 31.009 11.9281 33.2465 13.8614C30.4911 16.2419 28.7443 19.7837 28.7443 23.7387C28.7443 27.6936 30.4911 31.2354 33.2459 33.6157C31.009 35.5492 28.1064 36.7163 24.9348 36.7163C17.858 36.7163 12.1211 30.906 12.1211 23.7387C12.1211 16.5713 17.858 10.761 24.9348 10.761Z" fill="#ED0006"/>
<path fill-rule="evenodd" clip-rule="evenodd" d="M41.5579 10.761C48.6347 10.761 54.3716 16.5713 54.3716 23.7387C54.3716 30.906 48.6347 36.7163 41.5579 36.7163C38.3859 36.7163 35.4831 35.549 33.2455 33.6154C36.0018 31.2351 37.7484 27.6934 37.7484 23.7387C37.7484 19.7839 36.0018 16.2423 33.2471 13.8619C35.4831 11.9283 38.3859 10.761 41.5579 10.761Z" fill="#F9A000"/>
</g>
<defs>
<clipPath id="clip0">
<rect width="65.8" height="47" fill="white"/>
</clipPath>
</defs>
</svg>
