<svg width="66" height="47" viewBox="0 0 66 47" fill="none" xmlns="http://www.w3.org/2000/svg">
<g clip-path="url(#clip0)">
<path d="M59.5663 0H6.23368C2.79092 0 0 2.79092 0 6.23368V40.7663C0 44.2091 2.79092 47 6.23368 47H59.5663C63.0091 47 65.8 44.2091 65.8 40.7663V6.23368C65.8 2.79092 63.0091 0 59.5663 0Z" fill="#007ECD"/>
<path fill-rule="evenodd" clip-rule="evenodd" d="M57.8012 31.9389H54.9126V30.4842H57.4337C57.4337 30.4842 58.3529 30.591 58.3529 29.9838C58.3529 29.4147 56.9786 29.459 56.9786 29.459C56.9786 29.459 54.7389 29.6516 54.7389 27.5774C54.7389 25.5141 56.7622 25.6318 56.7622 25.6318H59.8693V27.107H57.3685C57.3685 27.107 56.5025 26.9348 56.5025 27.557C56.5025 28.0784 57.6822 28.0042 57.6822 28.0042C57.6822 28.0042 60.1599 27.8231 60.1599 29.7258C60.1599 31.7653 58.5636 31.9471 57.9972 31.9471C57.8754 31.9471 57.8012 31.9389 57.8012 31.9389ZM43.3895 31.9491V25.6427H48.4519V27.107H45.0221V28.0784H48.3665V29.5121H45.0221V30.5822H48.4519V31.9491H43.3895ZM52.0778 31.9389H49.1885V30.4842H51.7208C51.7208 30.4842 52.6295 30.591 52.6295 29.9838C52.6295 29.4147 51.2552 29.459 51.2552 29.459C51.2552 29.459 49.0155 29.6516 49.0155 27.5774C49.0155 25.5141 51.0389 25.6318 51.0389 25.6318H54.1564V27.107H51.6458C51.6458 27.107 50.7791 26.9348 50.7791 27.557C50.7791 28.0784 51.9574 28.0042 51.9574 28.0042C51.9574 28.0042 54.4365 27.8231 54.4365 29.7258C54.4365 31.7653 52.8402 31.9471 52.2738 31.9471C52.1513 31.9471 52.0778 31.9389 52.0778 31.9389ZM30.1882 31.9498H28.7712L27.0503 30.0778L25.3196 31.9498H24.3346H19.2819V25.6216H24.3346H25.1894L27.0503 27.6312L28.9224 25.6325H30.1672V25.6216H34.1053C34.1053 25.6216 36.1615 25.397 36.1615 27.4801C36.1615 29.3405 35.4782 29.9185 33.3807 29.9185H31.79V31.9498H30.1882ZM28.1544 28.8402L30.1672 31.041V26.6475L28.1544 28.8402ZM20.9159 30.5815H24.3346L25.9364 28.8402L24.3346 27.1077H20.9159V28.0791H24.2484V29.5127H20.9159V30.5815ZM31.79 28.2711H33.4668C33.9541 28.2711 34.3545 28.0042 34.3545 27.6727C34.3545 27.3425 33.9541 27.0743 33.4668 27.0743H31.79V28.2711ZM41.0091 31.96V30.7306C41.0091 30.7306 40.9426 29.7687 39.9253 29.7687H38.3473V31.96H36.723V25.6427H40.6625C40.6625 25.6427 42.718 25.397 42.718 27.4916C42.718 28.5822 41.8093 28.9668 41.8093 28.9668C41.8093 28.9668 42.5885 29.3303 42.5885 30.3984V31.96H41.0091ZM38.3473 28.2826H40.024C40.5113 28.2826 40.9111 28.0158 40.9111 27.6843C40.9111 27.3528 40.5113 27.0859 40.024 27.0859H38.3473V28.2826ZM37.1242 23.3126H38.7568V16.9749H37.1242V23.3126ZM24.5509 23.2908V16.9742H29.6148V18.4487H26.1849V19.4214H29.5287V20.8537H26.1849V21.9238H29.6148V23.2908H24.5509ZM22.0081 23.2915V18.93L19.9743 23.2915H18.6434L16.5983 18.9511V23.2915H15.1806H14.9643H13.3953L12.8325 21.9661H9.86819L9.2948 23.2915H7.52002L10.214 16.9735H12.4971L14.9643 22.7782V16.9735H17.5288L19.3141 20.8966L21.0881 16.9735H23.6527V23.2915H22.0081ZM10.5606 20.3513H12.14L11.3503 18.4705L10.5606 20.3513ZM53.8946 23.2915L51.321 19.0688V23.2915H49.925H49.6638H48.1397L47.5663 21.9661H44.6013L44.0378 23.2915H42.5444H42.2742H41.495C41.495 23.2915 39.3106 22.981 39.3106 20.3091C39.3106 16.8026 41.7883 16.9415 41.8737 16.9204L43.8753 16.9735V18.3956L42.2322 18.4167C42.2322 18.4167 41.1603 18.4167 41.0294 19.7959C41.0154 19.9551 41.0077 20.0995 41.0091 20.2349C41.0154 22.3704 42.8847 21.7081 42.9463 21.6876L44.9584 16.9735H47.2296L49.6638 22.7033V16.9735H51.9581L54.5009 21.1321V16.9735H56.1357V23.2915H53.8946ZM45.2937 20.3513H46.8739L46.0947 18.4705L45.2937 20.3513ZM34.7431 23.2915V22.062C34.7431 22.062 34.6787 21.1002 33.6614 21.1002H32.082V23.2915H30.4584V16.9735H34.3972C34.3972 16.9735 36.4528 16.7278 36.4528 18.8231C36.4528 19.9136 35.544 20.2982 35.544 20.2982C35.544 20.2982 36.3337 20.6618 36.3337 21.7305V23.2915H34.7431ZM32.082 19.6141H33.7587C34.246 19.6141 34.6458 19.3466 34.6458 19.015C34.6458 18.6842 34.246 18.4167 33.7587 18.4167H32.082V19.6141Z" fill="white"/>
</g>
<defs>
<clipPath id="clip0">
<rect width="65.8" height="47" fill="white"/>
</clipPath>
</defs>
</svg>
