<svg width="66" height="47" viewBox="0 0 66 47" fill="none" xmlns="http://www.w3.org/2000/svg">
<g clip-path="url(#clip0)">
<path d="M59.4866 0H6.31343C2.82662 0 0 2.82662 0 6.31343V40.6866C0 44.1734 2.82662 47 6.31343 47H59.4866C62.9734 47 65.8 44.1734 65.8 40.6866V6.31343C65.8 2.82662 62.9734 0 59.4866 0Z" fill="#FFA200"/>
<path fill-rule="evenodd" clip-rule="evenodd" d="M57.5061 23.29H56.9954V20.5628H57.5061C58.6296 20.5628 59.1402 21.0678 59.1402 21.8759C59.1402 22.7849 58.6296 23.29 57.5061 23.29ZM60.9787 21.7749C60.9787 20.0578 59.8552 19.1487 57.8125 19.1487H55.2591V28.1383H56.9954V24.5021H57.1996L59.5488 28.1383H61.6936L58.936 24.401C60.1616 24.199 61.0808 23.088 60.9787 21.7749ZM49.233 28.1383H54.1356V26.6232H50.9693V24.199H54.0334V22.6839H50.9693V20.6638H54.1356V19.1487H49.233V28.1383ZM44.1262 25.2091L41.7771 19.1487H39.9386L43.7177 28.3403H44.6369L48.4159 19.1487H46.5775L44.1262 25.2091ZM23.3925 23.694C23.3925 26.2192 25.4353 28.3403 27.9887 28.3403C28.8058 28.3403 29.5207 28.1383 30.2357 27.8353V25.8151C29.725 26.4212 29.01 26.8252 28.1929 26.8252C26.5588 26.8252 25.231 25.6131 25.231 23.997V23.795C25.1289 22.1789 26.4566 20.7648 28.0908 20.6638C28.9079 20.6638 29.725 21.0678 30.2357 21.6739V19.6537C29.6229 19.2497 28.8058 19.1487 28.0908 19.1487C25.4353 18.9467 23.3925 21.0678 23.3925 23.694ZM20.2263 22.5829C19.205 22.1789 18.8985 21.9769 18.8985 21.4719C19.0007 20.8658 19.5114 20.3608 20.1242 20.4618C20.6349 20.4618 21.1455 20.7648 21.5541 21.1688L22.4733 19.9568C21.7584 19.3507 20.8391 18.9467 19.9199 18.9467C18.49 18.8457 17.2644 19.9568 17.1622 21.3708V21.4719C17.1622 22.6839 17.6729 23.391 19.3071 23.896C19.7156 23.997 20.1242 24.199 20.5327 24.401C20.8391 24.6031 21.0434 24.9061 21.0434 25.3101C21.0434 26.0172 20.4306 26.6232 19.8178 26.6232H19.7156C18.8985 26.6232 18.1836 26.1182 17.8772 25.4111L16.7537 26.5222C17.3665 27.6333 18.5921 28.2393 19.8178 28.2393C21.4519 28.3403 22.7797 27.1282 22.8819 25.5121V25.2091C22.7797 23.997 22.269 23.391 20.2263 22.5829ZM14.3024 28.1383H16.0387V19.1487H14.3024V28.1383ZM10.8298 25.9161C10.217 26.4212 9.29773 26.7242 8.48064 26.6232H7.96996V20.6638H8.48064C9.29773 20.5628 10.217 20.8658 10.8298 21.3708C11.4426 21.9769 11.749 22.7849 11.749 23.593C11.749 24.5021 11.4426 25.3101 10.8298 25.9161ZM8.78705 19.1487H6.23364V28.1383H8.78705C9.91055 28.2393 11.034 27.8353 11.9533 27.1282C12.9746 26.2192 13.5875 25.0071 13.5875 23.694C13.6896 21.2698 11.749 19.2497 9.29773 19.1487H8.78705ZM35.4446 18.9403C32.8912 18.9403 30.7464 20.9604 30.7464 23.5866C30.7464 26.1118 32.7891 28.2329 35.4446 28.3339C38.1002 28.4349 40.1429 26.3138 40.245 23.6876C40.1429 21.0614 38.1002 18.9403 35.4446 18.9403Z" fill="white"/>
</g>
<defs>
<clipPath id="clip0">
<rect width="65.8" height="47" fill="white"/>
</clipPath>
</defs>
</svg>
