<svg width="66" height="47" viewBox="0 0 66 47" fill="none" xmlns="http://www.w3.org/2000/svg">
<g clip-path="url(#clip0)">
<path d="M59.5663 0H6.23368C2.79092 0 0 2.79092 0 6.23368V40.7663C0 44.2091 2.79092 47 6.23368 47H59.5663C63.0091 47 65.8 44.2091 65.8 40.7663V6.23368C65.8 2.79092 63.0091 0 59.5663 0Z" fill="#2183CB"/>
<path fill-rule="evenodd" clip-rule="evenodd" d="M48.88 23.9709V24.0894C48.6434 31.5558 42.6078 37.6 35.0338 37.6H30.1817C22.8444 37.4815 16.9272 31.4373 16.9272 24.0894C16.6905 16.7415 22.371 10.5787 29.59 10.3417H35.0338C42.6078 10.2232 48.7617 16.3859 48.88 23.9709ZM30.5367 12.712C24.3828 12.712 19.2941 17.8081 19.2941 23.9709C19.2941 30.1336 24.3828 35.2297 30.5367 35.2297C36.6906 35.2297 41.7794 30.1336 41.7794 23.9709C41.7794 17.8081 36.6906 12.712 30.5367 12.712ZM32.3119 16.5045C36.4539 17.5711 39.0575 21.7191 37.9924 25.8671C37.2823 28.7114 35.1521 30.8447 32.3119 31.5558V16.5045ZM28.7616 16.5045V31.5558C24.6195 30.4892 22.1343 26.2226 23.1994 22.0746C23.9095 19.3488 26.0397 17.2155 28.7616 16.5045Z" fill="white"/>
</g>
<defs>
<clipPath id="clip0">
<rect width="65.8" height="47" fill="white"/>
</clipPath>
</defs>
</svg>
