<svg width="66" height="47" viewBox="0 0 66 47" fill="none" xmlns="http://www.w3.org/2000/svg">
<path d="M59.7474 0H6.25263C2.7994 0 0 2.79092 0 6.23368V40.7663C0 44.2091 2.7994 47 6.25263 47H59.7474C63.2006 47 66 44.2091 66 40.7663V6.23368C66 2.79092 63.2006 0 59.7474 0Z" fill="#224DBA"/>
<path fill-rule="evenodd" clip-rule="evenodd" d="M22.3934 30.9102H18.5582L15.6824 19.9718C15.5459 19.4686 15.256 19.0238 14.8297 18.8141C13.7657 18.2873 12.5933 17.868 11.3143 17.6565V17.2354H17.4924C18.3451 17.2354 18.9846 17.868 19.0912 18.6027L20.5833 26.4929L24.4166 17.2354H28.1451L22.3934 30.9102ZM30.2768 30.9102H26.6548L29.6373 17.2354H33.2592L30.2768 30.9102ZM37.9452 21.0237C38.0517 20.2872 38.6912 19.8661 39.4373 19.8661C40.6097 19.7603 41.8869 19.9718 42.9527 20.4968L43.5922 17.5526C42.5264 17.1315 41.354 16.92 40.29 16.92C36.7746 16.92 34.2166 18.8141 34.2166 21.443C34.2166 23.4429 36.0285 24.493 37.3075 25.1256C38.6912 25.7564 39.2242 26.1775 39.1176 26.8083C39.1176 27.7544 38.0517 28.1756 36.9878 28.1756C35.7088 28.1756 34.4298 27.8602 33.2592 27.3333L32.6197 30.2794C33.8987 30.8044 35.2825 31.0159 36.5615 31.0159C40.5032 31.1198 42.9527 29.2275 42.9527 26.3871C42.9527 22.8103 37.9452 22.6006 37.9452 21.0237ZM55.6286 30.9102L52.7527 17.2354H49.6637C49.0242 17.2354 48.3847 17.6565 48.1715 18.2873L42.8461 30.9102H46.5747L47.3189 28.9121H51.9001L52.3264 30.9102H55.6286ZM50.1966 20.918L51.2606 26.0718H48.2781L50.1966 20.918Z" fill="white"/>
</svg>
