<svg width="299" height="278" viewBox="0 0 299 278" fill="none" xmlns="http://www.w3.org/2000/svg">
<path fill-rule="evenodd" clip-rule="evenodd" d="M202 194C255.572 194 299 150.572 299 97C299 43.4284 255.572 0 202 0C148.428 0 105 43.4284 105 97C105 150.572 148.428 194 202 194ZM202 145C228.51 145 250 123.51 250 97C250 70.4903 228.51 49 202 49C175.49 49 154 70.4903 154 97C154 123.51 175.49 145 202 145Z" fill="#DCE5F2"/>
<path fill-rule="evenodd" clip-rule="evenodd" d="M123 278C107.536 278 95 265.464 95 250C95 234.536 107.536 222 123 222C138.464 222 151 234.536 151 250C151 265.464 138.464 278 123 278ZM123 263.856C115.348 263.856 109.144 257.652 109.144 250C109.144 242.348 115.348 236.144 123 236.144C130.652 236.144 136.856 242.348 136.856 250C136.856 257.652 130.652 263.856 123 263.856Z" fill="#DCE5F2"/>
<path fill-rule="evenodd" clip-rule="evenodd" d="M47.5 127C40.5964 127 35 132.596 35 139.5V162H12.5C5.59644 162 0 167.596 0 174.5C0 181.404 5.59644 187 12.5 187H35V209.5C35 216.404 40.5964 222 47.5 222C54.4036 222 60 216.404 60 209.5V187H82.5C89.4036 187 95 181.404 95 174.5C95 167.596 89.4036 162 82.5 162H60V139.5C60 132.596 54.4036 127 47.5 127Z" fill="#DCE5F2"/>
</svg>
