<svg width="27" height="36" viewBox="0 0 27 36" fill="none" xmlns="http://www.w3.org/2000/svg">
<path fill-rule="evenodd" clip-rule="evenodd" d="M1.9671 25.2722C0.707947 24.0135 0.000366211 22.3061 0 20.5257V6.71359C0 4.93304 0.707336 3.2254 1.96637 1.96637C3.2254 0.707336 4.93304 0 6.71362 0H20.1408C21.9214 0 23.629 0.707336 24.8881 1.96637C26.1471 3.2254 26.8544 4.93304 26.8544 6.71359V20.5257C26.8535 22.3054 26.1459 24.0118 24.8873 25.27L15.0094 35.1502C14.5897 35.5697 14.0206 35.8054 13.4272 35.8054C12.8338 35.8054 12.2647 35.5697 11.845 35.1502L1.9671 25.2722ZM17.3324 7.60997C17.0884 7.71479 16.8677 7.86716 16.6832 8.05818L15.8902 8.85118L18.7182 11.6792L19.5112 10.8862C19.7022 10.7017 19.8546 10.481 19.9594 10.237C20.0642 9.99298 20.1194 9.73054 20.1217 9.46498C20.124 9.19942 20.0734 8.93606 19.9728 8.69027C19.8722 8.44448 19.7237 8.22117 19.536 8.03339C19.3482 7.8456 19.1249 7.6971 18.8791 7.59653C18.6333 7.49597 18.3699 7.44537 18.1044 7.44768C17.8388 7.44998 17.5764 7.50516 17.3324 7.60997ZM14.4757 10.2657L14.4762 10.2652H14.4752L14.4757 10.2657ZM14.4757 10.2657L6.09717 18.6442V21.4722H8.92517L17.3052 13.0932L14.4757 10.2657Z" fill="#A6B8CC"/>
</svg>
