<?xml version="1.0" encoding="UTF-8"?>
<svg width="296px" height="296px" viewBox="0 0 296 296" version="1.1" xmlns="http://www.w3.org/2000/svg" xmlns:xlink="http://www.w3.org/1999/xlink">
    <!-- Generator: Sketch 54.1 (76490) - https://sketchapp.com -->
    <title>Combined Shape Copy 26</title>
    <desc>Created with Sketch.</desc>
    <g id="Page-1" stroke="none" stroke-width="1" fill="none" fill-rule="evenodd">
        <g id="Artboard" transform="translate(-106.000000, -79.000000)" fill="#38A2FF">
            <g id="Group-35" transform="translate(106.000000, 79.000000)">
                <path d="M147.99969,0 C229.738019,0 296,66.2619813 296,148.00031 C296,229.738013 229.738019,296 147.99969,296 C66.2619874,296 -1.70530257e-13,229.738013 -1.70530257e-13,148.00031 C-1.70530257e-13,66.2619813 66.2619874,0 147.99969,0 Z M226.855981,116.506784 C239.935178,103.4282 239.935178,82.2226034 226.855981,69.1434001 C213.77739,56.064816 192.571794,56.064816 179.492591,69.1434001 C174.639877,73.9979781 171.59186,79.9709285 170.340447,86.2323398 C146.624563,77.3058522 119.423011,82.9766811 101.313919,101.087637 C83.1886703,119.212886 77.5234394,146.445524 86.4834905,170.176326 C80.181673,171.414066 74.1652076,174.472028 69.2826455,179.353964 C56.2040676,192.432542 56.2040676,213.638764 69.2826455,226.717348 C82.361855,239.795926 103.566832,239.795926 116.646036,226.717348 C121.556563,221.806195 124.622612,215.749317 125.846047,209.408338 C133.19288,212.149255 140.868574,213.503866 148.506339,213.503866 C165.472815,213.503866 182.231643,206.912355 194.685456,194.458549 C212.729892,176.415358 218.430556,149.34435 209.641456,125.688144 C215.948872,124.452274 221.97031,121.393068 226.855981,116.506784 Z M187.340493,76.9912899 C195.963596,68.3663171 209.995812,68.3663171 218.618915,76.9912899 C227.242655,85.6150242 227.242655,99.6466151 218.618915,108.270349 C213.650573,113.240555 206.807918,115.518956 199.83408,114.525537 C199.500866,114.478288 199.176365,114.490103 198.856824,114.527401 C196.79539,114.259462 194.638207,114.540455 192.614064,115.47855 C189.731413,116.813259 187.673701,119.199832 186.677792,121.969971 C185.699291,124.690997 185.745921,127.782534 187.056385,130.61297 C194.481548,146.65316 191.068611,165.831518 178.563828,178.336295 C166.057799,190.83984 146.878829,194.258375 130.834285,186.826995 C127.965307,185.498498 124.827765,185.466167 122.079381,186.486319 C119.357116,187.496526 117.015922,189.539314 115.699865,192.38281 C114.859371,194.196827 114.54108,196.117771 114.674734,197.980276 C114.625621,198.347679 114.611322,198.72317 114.674734,199.109219 C115.844089,206.145218 113.533982,213.354044 108.497882,218.393878 C99.8747668,227.014503 85.8431759,227.014503 77.2182031,218.393878 C73.040618,214.214429 70.7398301,208.660478 70.7398301,202.753416 C70.7398301,196.844496 73.040618,191.289926 77.2182031,187.11296 C82.1852996,182.143994 89.031695,179.86932 96.3536588,180.872065 C97.0928187,181.021268 97.8419238,181.124461 98.6034636,181.124461 C100.206736,181.124461 101.836123,180.783791 103.38531,180.06701 C106.198964,178.764001 108.224971,176.457628 109.246981,173.771416 C110.299458,171.003767 110.284547,167.832655 108.942364,164.932591 C101.518446,148.891775 104.931383,129.714043 117.435553,117.209885 C129.941575,104.703856 149.121791,101.289056 165.165089,108.718565 C168.022877,110.042716 171.148617,110.080633 173.890152,109.072295 C176.625477,108.065197 178.977855,106.016811 180.299515,103.16275 C181.324021,100.950869 181.570819,98.5804583 181.162384,96.2765741 C179.993654,89.2374607 182.303136,82.0280215 187.340493,76.9912899 Z M165.485875,165.258343 C175.054535,155.690302 175.054535,140.176657 165.485875,130.607998 C155.917828,121.039963 140.403571,121.039963 130.834904,130.607998 C121.26687,140.176657 121.26687,155.690302 130.834904,165.258343 C140.403571,174.827622 155.917828,174.827622 165.485875,165.258343 Z" id="Combined-Shape-Copy-26"></path>
            </g>
        </g>
    </g>
</svg>