<svg width="34" height="34" viewBox="0 0 34 34" fill="none" xmlns="http://www.w3.org/2000/svg">
<circle cx="16.7335" cy="17.3849" r="16.5" fill="#3E4249"/>
<path d="M15.0978 18.5345C15.0978 19.2641 15.3631 19.9052 15.8937 20.4137L17.8393 19.7726C17.5518 19.5294 17.3529 19.1314 17.3529 18.7777C17.3529 17.8934 18.1267 17.3628 18.9668 16.7437C20.0722 15.9699 21.3103 15.0856 21.3103 13.2506C21.3103 11.2608 19.6079 9.77957 16.8223 9.77957C14.8325 9.77957 13.1302 10.5976 12.0026 11.9683L13.4839 13.6264C14.2356 12.6979 15.2083 12.0788 16.557 12.0788C17.994 12.0788 18.6573 12.8084 18.6573 13.6707C18.6573 14.5329 17.9277 15.0414 17.1097 15.6162C16.159 16.3016 15.0978 17.0532 15.0978 18.5345ZM15.142 23.4426C15.142 24.2827 15.8495 24.9902 16.6896 24.9902C17.5297 24.9902 18.2372 24.2827 18.2372 23.4426C18.2372 22.6025 17.5297 21.895 16.6896 21.895C15.8495 21.895 15.142 22.6025 15.142 23.4426Z" fill="white"/>
</svg>
