<svg width="32" height="32" viewBox="0 0 32 32" fill="none" xmlns="http://www.w3.org/2000/svg">
<path fill-rule="evenodd" clip-rule="evenodd" d="M16 32C24.8365 32 32 24.8365 32 16C32 7.16345 24.8365 0 16 0C7.16345 0 0 7.16345 0 16C0 24.8365 7.16345 32 16 32ZM16.0001 11.5035C14.387 11.5035 13.0793 12.8112 13.0793 14.4243C13.0793 16.0374 14.387 17.345 16.0001 17.345H16.0034C17.6149 17.3432 18.9208 16.0362 18.9208 14.4243C18.9208 12.8112 17.6132 11.5035 16.0001 11.5035ZM10.5758 14.4243C10.5758 16.1019 11.3375 17.6017 12.5339 18.5967C11.3375 19.5917 10.5758 21.0915 10.5758 22.7692H13.0793C13.0793 21.1574 14.3849 19.8506 15.9962 19.8485H16.0001C17.6132 19.8485 18.9208 21.1561 18.9208 22.7692H21.4243C21.4243 21.0915 20.6626 19.5917 19.4662 18.5967C20.6626 17.6017 21.4243 16.1019 21.4243 14.4243C21.4243 11.4285 18.9958 9 16.0001 9C13.0043 9 10.5758 11.4285 10.5758 14.4243Z" fill="#4E5357"/>
</svg>
