<?xml version="1.0" encoding="UTF-8"?>
<svg width="33px" height="32px" viewBox="0 0 33 32" version="1.1" xmlns="http://www.w3.org/2000/svg" xmlns:xlink="http://www.w3.org/1999/xlink">
    <title>topbar-pf-active</title>
    <g id="Page-1" stroke="none" stroke-width="1" fill="none" fill-rule="evenodd">
        <g id="topbar-pf-active" fill="#329CFF">
            <path d="M16.9008,32 C25.7373,32 32.9008,24.8366 32.9008,16 C32.9008,7.16344 25.7373,0 16.9008,0 C8.0642,0 0.900757,7.16344 0.900757,16 C0.900757,24.8366 8.0642,32 16.9008,32 Z M16.9008,11.5035 C15.2877,11.5035 13.9801,12.8112 13.9801,14.4242 C13.9801,16.0373 15.2877,17.345 16.9008,17.345 L16.9041,17.345 C18.5157,17.3432 19.8216,16.0362 19.8216,14.4242 C19.8216,12.8112 18.5139,11.5035 16.9008,11.5035 Z M11.4766,14.4242 C11.4766,16.1019 12.2382,17.6018 13.4347,18.5967 C12.2382,19.5917 11.4766,21.0915 11.4766,22.7692 L13.9801,22.7692 C13.9801,21.1574 15.2856,19.8506 16.897,19.8485 L16.9008,19.8485 C18.5139,19.8485 19.8216,21.1561 19.8216,22.7692 L22.325,22.7692 C22.325,21.0915 21.5634,19.5917 20.367,18.5967 C21.5634,17.6018 22.325,16.1019 22.325,14.4242 C22.325,11.4285 19.8965,9 16.9008,9 C13.9051,9 11.4766,11.4285 11.4766,14.4242 Z" id="Shape"></path>
        </g>
    </g>
</svg>