<svg width="33" height="32" viewBox="0 0 33 32" fill="none" xmlns="http://www.w3.org/2000/svg">
<path fill-rule="evenodd" clip-rule="evenodd" d="M16.9008 32C25.7373 32 32.9008 24.8366 32.9008 16C32.9008 7.16344 25.7373 0 16.9008 0C8.0642 0 0.900757 7.16344 0.900757 16C0.900757 24.8366 8.0642 32 16.9008 32ZM16.9008 11.5035C15.2877 11.5035 13.9801 12.8112 13.9801 14.4242C13.9801 16.0373 15.2877 17.345 16.9008 17.345L16.9041 17.345C18.5157 17.3432 19.8216 16.0362 19.8216 14.4242C19.8216 12.8112 18.5139 11.5035 16.9008 11.5035ZM11.4766 14.4242C11.4766 16.1019 12.2382 17.6018 13.4347 18.5967C12.2382 19.5917 11.4766 21.0915 11.4766 22.7692H13.9801C13.9801 21.1574 15.2856 19.8506 16.897 19.8485H16.9008C18.5139 19.8485 19.8216 21.1561 19.8216 22.7692H22.325C22.325 21.0915 21.5634 19.5917 20.367 18.5967C21.5634 17.6018 22.325 16.1019 22.325 14.4242C22.325 11.4285 19.8965 9 16.9008 9C13.9051 9 11.4766 11.4285 11.4766 14.4242Z" fill="#40A9FF"/>
</svg>
