<svg width="101" height="101" viewBox="0 0 101 101" fill="none" xmlns="http://www.w3.org/2000/svg">
<rect x="0.668213" y="0.938843" width="100" height="100" rx="20" fill="#138DF3"/>
<path d="M41.0021 50.8492C41.017 45.5748 45.4396 41.1778 50.6969 41.2119C55.9649 41.2459 60.3321 45.6515 60.3257 50.9258C60.3214 56.198 55.9372 60.6015 50.6735 60.6206C45.3779 60.6419 40.9872 56.2065 41.0021 50.8492Z" fill="white" fill-opacity="0.38"/>
<path d="M50.7139 33.7188C45.6589 33.723 41.8176 30.5099 41.824 26.2853C41.8325 22.3248 45.9272 18.9243 50.6798 18.9285C55.4367 18.9328 59.5037 22.3269 59.5144 26.3045C59.525 30.4865 55.6944 33.7145 50.7139 33.7188Z" fill="white" fill-opacity="0.38"/>
<path d="M50.6842 68.1158C55.6391 68.118 59.4953 71.3545 59.4953 75.511C59.4953 79.4928 55.4688 82.9019 50.714 82.9487C45.9528 82.9955 41.8475 79.5397 41.8539 75.4876C41.8581 71.3311 45.7122 68.1137 50.6842 68.1158Z" fill="white"/>
<path d="M33.3898 50.8364C33.3961 55.8722 30.1489 59.8307 26.0244 59.8179C22.0852 59.803 18.7145 55.7062 18.7102 50.9301C18.706 46.154 22.0639 42.0423 25.9925 42.0104C30.0957 41.9742 33.3834 45.8964 33.3898 50.8364Z" fill="white"/>
<path d="M67.9551 50.9024C67.9593 45.8602 71.1299 42.0231 75.297 42.0231C79.2 42.0231 82.6304 46.1945 82.6261 50.9343C82.6219 55.6657 79.166 59.8328 75.265 59.8136C71.1065 59.7923 67.9508 55.9446 67.9551 50.9024Z" fill="white"/>
<path d="M71.1299 80.6426C67.459 80.6512 65.7172 78.0044 66.7648 74.0034C67.7336 70.2941 71.658 66.983 75.4929 66.6424C78.5059 66.3741 80.6331 68.5183 80.4861 71.6761C80.2881 75.8517 75.2991 80.6341 71.1299 80.6426Z" fill="white"/>
<path d="M30.1831 21.1877C33.5964 21.1792 35.5213 23.6386 34.776 27.0604C33.8434 31.3446 30.1597 34.677 25.7945 35.1795C22.9945 35.5032 20.78 33.3057 20.8652 30.2884C20.9844 26.0915 25.9926 21.1984 30.1831 21.1877Z" fill="white"/>
<path d="M71.0468 21.1899C75.1457 21.1856 80.254 26.0149 80.4818 30.1117C80.6798 33.657 78.2971 35.7012 74.7326 35.0453C70.2632 34.2213 66.5411 30.0649 66.473 25.8211C66.4261 22.9274 68.1402 21.1941 71.0468 21.1899Z" fill="white"/>
<path d="M30.151 80.6469C25.9435 80.6299 20.9652 75.7388 20.8651 71.527C20.7863 68.2202 23.1413 66.2293 26.4545 66.7957C30.907 67.558 34.81 71.7655 34.8803 75.8772C34.9314 78.9882 33.2726 80.6618 30.151 80.6469Z" fill="white"/>
</svg>
