<svg width="62" height="63" viewBox="0 0 62 63" fill="none" xmlns="http://www.w3.org/2000/svg">
<path d="M57.864 52.6641L32.6765 8.36719C32.3011 7.70889 31.6532 7.38281 30.9993 7.38281C30.3454 7.38281 29.6915 7.70889 29.3222 8.36719L4.13469 52.6641C3.38996 53.9807 4.32238 55.6172 5.81184 55.6172H56.1868C57.6763 55.6172 58.6087 53.9807 57.864 52.6641ZM10.4255 50.9476L30.9993 14.7595L51.5732 50.9476H10.4255Z" fill="#F5222D"/>
<path d="M10.4287 50.9478H51.5764L31.0025 14.7598L10.4287 50.9478ZM33.9088 44.2972C33.8933 45.0699 33.5802 45.8058 33.0369 46.3467C32.4936 46.8876 31.7632 47.1906 31.0025 47.1906C30.2419 47.1906 29.5115 46.8876 28.9682 46.3467C28.4248 45.8058 28.1118 45.0699 28.0963 44.2972C28.1118 43.5244 28.4248 42.7886 28.9682 42.2476C29.5115 41.7067 30.2419 41.4037 31.0025 41.4037C31.7632 41.4037 32.4936 41.7067 33.0369 42.2476C33.5802 42.7886 33.8933 43.5244 33.9088 44.2972ZM32.94 25.594V36.9144C32.94 37.1851 32.7221 37.4065 32.4557 37.4065H29.5494C29.283 37.4065 29.065 37.1851 29.065 36.9144V25.594C29.065 25.3233 29.283 25.1019 29.5494 25.1019H32.4557C32.7221 25.1019 32.94 25.3233 32.94 25.594Z" fill="#FFF1F0"/>
<path d="M28.0938 44.2969C28.0938 45.0801 28.3999 45.8312 28.945 46.385C29.49 46.9389 30.2292 47.25 31 47.25C31.7708 47.25 32.51 46.9389 33.055 46.385C33.6001 45.8312 33.9062 45.0801 33.9062 44.2969C33.9062 43.5137 33.6001 42.7625 33.055 42.2087C32.51 41.6549 31.7708 41.3438 31 41.3438C30.2292 41.3438 29.49 41.6549 28.945 42.2087C28.3999 42.7625 28.0938 43.5137 28.0938 44.2969ZM29.0625 25.5938V36.9141C29.0625 37.1848 29.2805 37.4062 29.5469 37.4062H32.4531C32.7195 37.4062 32.9375 37.1848 32.9375 36.9141V25.5938C32.9375 25.323 32.7195 25.1016 32.4531 25.1016H29.5469C29.2805 25.1016 29.0625 25.323 29.0625 25.5938Z" fill="#F5222D"/>
</svg>
