<svg width="49" height="49" viewBox="0 0 49 49" fill="none" xmlns="http://www.w3.org/2000/svg">
<rect width="48.81" height="48.8106" rx="24.405" fill="#2C79EE"/>
<path fill-rule="evenodd" clip-rule="evenodd" d="M16.0935 15.4949C16.0935 14.6693 16.6959 14 17.4389 14C26.0334 14 33 21.7407 33 31.2901C33 32.1157 32.3976 32.785 31.6546 32.785C30.9116 32.785 30.3092 32.1157 30.3092 31.2901C30.3092 23.3919 24.5473 16.9898 17.4389 16.9898C16.6959 16.9898 16.0935 16.3205 16.0935 15.4949ZM16.0935 22.785C16.0935 21.9594 16.6959 21.2901 17.4389 21.2901C19.8259 21.2901 22.115 22.3437 23.8029 24.219C25.4907 26.0944 26.4389 28.6379 26.4389 31.2901C26.4389 32.1157 25.8366 32.785 25.0935 32.785C24.3505 32.785 23.7481 32.1157 23.7481 31.2901C23.7481 29.4309 23.0834 27.6478 21.9002 26.3331C20.717 25.0184 19.1122 24.2799 17.4389 24.2799C16.6959 24.2799 16.0935 23.6106 16.0935 22.785ZM17.4389 31.57C17.5057 31.57 17.5698 31.5405 17.617 31.488C17.6643 31.4355 17.6908 31.3643 17.6908 31.2901C17.6908 31.2159 17.6643 31.1447 17.617 31.0922C17.5698 31.0397 17.5057 31.0102 17.4389 31.0102C17.3721 31.0102 17.308 31.0397 17.2608 31.0922C17.2136 31.1447 17.187 31.2159 17.187 31.2901C17.187 31.3643 17.2136 31.4355 17.2608 31.488C17.308 31.5405 17.3721 31.57 17.4389 31.57ZM15.7143 29.3739C16.1717 28.8657 16.7921 28.5802 17.4389 28.5802C18.0858 28.5802 18.7061 28.8657 19.1635 29.3739C19.6209 29.8821 19.8778 30.5714 19.8778 31.2901C19.8778 32.0088 19.6209 32.6981 19.1635 33.2063C18.7061 33.7145 18.0858 34 17.4389 34C16.7921 34 16.1717 33.7145 15.7143 33.2063C15.257 32.6981 15 32.0088 15 31.2901C15 30.5714 15.257 29.8821 15.7143 29.3739Z" fill="white"/>
</svg>
