<svg width="18" height="20" viewBox="0 0 18 20" fill="none" xmlns="http://www.w3.org/2000/svg">
<path fill-rule="evenodd" clip-rule="evenodd" d="M1.09351 1.49489C1.09351 0.669285 1.69587 0 2.43892 0C11.0334 0 18 7.74068 18 17.2901C18 18.1157 17.3976 18.785 16.6546 18.785C15.9116 18.785 15.3092 18.1157 15.3092 17.2901C15.3092 9.39189 9.5473 2.98978 2.43892 2.98978C1.69587 2.98978 1.09351 2.3205 1.09351 1.49489ZM1.09351 8.78498C1.09351 7.95938 1.69587 7.29009 2.43892 7.29009C4.82586 7.29009 7.11505 8.34366 8.80288 10.219C10.4907 12.0944 11.4389 14.6379 11.4389 17.2901C11.4389 18.1157 10.8366 18.785 10.0935 18.785C9.35047 18.785 8.74811 18.1157 8.74811 17.2901C8.74811 15.4309 8.0834 13.6478 6.90019 12.3331C5.71699 11.0184 4.11222 10.2799 2.43892 10.2799C1.69587 10.2799 1.09351 9.61059 1.09351 8.78498ZM2.43892 17.57C2.50572 17.57 2.56979 17.5405 2.61703 17.488C2.66427 17.4355 2.6908 17.3643 2.6908 17.2901C2.6908 17.2159 2.66427 17.1447 2.61703 17.0922C2.56979 17.0397 2.50572 17.0102 2.43892 17.0102C2.37211 17.0102 2.30804 17.0397 2.2608 17.0922C2.21357 17.1447 2.18703 17.2159 2.18703 17.2901C2.18703 17.3643 2.21357 17.4355 2.2608 17.488C2.30804 17.5405 2.37211 17.57 2.43892 17.57ZM0.714342 15.3739C1.17173 14.8657 1.79208 14.5802 2.43892 14.5802C3.08575 14.5802 3.7061 14.8657 4.16349 15.3739C4.62087 15.8821 4.87783 16.5714 4.87783 17.2901C4.87783 18.0088 4.62087 18.6981 4.16349 19.2063C3.7061 19.7145 3.08575 20 2.43892 20C1.79208 20 1.17173 19.7145 0.714342 19.2063C0.256956 18.6981 0 18.0088 0 17.2901C0 16.5714 0.256956 15.8821 0.714342 15.3739Z" fill="white"/>
</svg>
