<svg width="20" height="20" viewBox="0 0 20 20" fill="none" xmlns="http://www.w3.org/2000/svg">
<path d="M0 10C0 4.47722 4.47709 0 9.99987 0V0C15.5227 0 19.9997 4.47722 19.9997 10V10C19.9997 15.5228 15.5227 20 9.99987 20V20C4.47709 20 0 15.5228 0 10V10Z" fill="white"/>
<path fill-rule="evenodd" clip-rule="evenodd" d="M6.26043 5.73242C6.26043 5.31821 6.59622 4.98242 7.01043 4.98242C11.8015 4.98242 15.685 8.86599 15.685 13.657C15.685 14.0712 15.3492 14.407 14.935 14.407C14.5208 14.407 14.185 14.0712 14.185 13.657C14.185 9.69442 10.973 6.48242 7.01043 6.48242C6.59622 6.48242 6.26043 6.14664 6.26043 5.73242ZM6.26043 9.38993C6.26043 8.97571 6.59622 8.63993 7.01043 8.63993C8.34105 8.63993 9.61716 9.16851 10.5581 10.1094C11.4989 11.0503 12.0275 12.3264 12.0275 13.657C12.0275 14.0712 11.6917 14.407 11.2775 14.407C10.8633 14.407 10.5275 14.0712 10.5275 13.657C10.5275 12.7242 10.157 11.8296 9.49739 11.1701C8.83781 10.5105 7.94322 10.1399 7.01043 10.1399C6.59622 10.1399 6.26043 9.80414 6.26043 9.38993ZM7.01043 13.7974C7.04767 13.7974 7.08339 13.7826 7.10972 13.7563C7.13605 13.73 7.15085 13.6943 7.15085 13.657C7.15085 13.6198 7.13605 13.5841 7.10972 13.5577C7.08339 13.5314 7.04767 13.5166 7.01043 13.5166C6.97319 13.5166 6.93748 13.5314 6.91114 13.5577C6.88481 13.5841 6.87002 13.6198 6.87002 13.657C6.87002 13.6943 6.88481 13.73 6.91114 13.7563C6.93748 13.7826 6.97319 13.7974 7.01043 13.7974ZM6.04906 12.6956C6.30403 12.4407 6.64985 12.2974 7.01043 12.2974C7.37102 12.2974 7.71683 12.4407 7.9718 12.6956C8.22678 12.9506 8.37002 13.2964 8.37002 13.657C8.37002 14.0176 8.22678 14.3634 7.9718 14.6184C7.71683 14.8734 7.37102 15.0166 7.01043 15.0166C6.64985 15.0166 6.30403 14.8734 6.04906 14.6184C5.79409 14.3634 5.65085 14.0176 5.65085 13.657C5.65085 13.2964 5.79409 12.9506 6.04906 12.6956Z" fill="#12CB9E"/>
</svg>
