<svg width="33" height="32" viewBox="0 0 33 32" fill="none" xmlns="http://www.w3.org/2000/svg">
<rect x="0.858948" y="0.300354" width="31.5206" height="31.5206" rx="6" fill="#2C79EE"/>
<path fill-rule="evenodd" clip-rule="evenodd" d="M9.15747 11.2638C9.15747 10.4156 9.49439 9.60223 10.0941 9.00251C10.6938 8.40278 11.5072 8.06586 12.3554 8.06586H23.0151C23.2131 8.06586 23.4071 8.12098 23.5755 8.22506C23.7439 8.32913 23.88 8.47805 23.9686 8.65511C24.0571 8.83218 24.0946 9.0304 24.0768 9.22756C24.059 9.42472 23.9867 9.61304 23.8679 9.77141L21.1497 13.3957L23.8679 17.02C23.9867 17.1784 24.059 17.3667 24.0768 17.5639C24.0946 17.761 24.0571 17.9593 23.9686 18.1363C23.88 18.3134 23.7439 18.4623 23.5755 18.5664C23.4071 18.6705 23.2131 18.7256 23.0151 18.7256H12.3554C12.0727 18.7256 11.8015 18.8379 11.6016 19.0378C11.4017 19.2377 11.2894 19.5088 11.2894 19.7916V22.9895C11.2894 23.2722 11.1771 23.5433 10.9772 23.7432C10.7773 23.9431 10.5062 24.0555 10.2234 24.0555C9.94073 24.0555 9.6696 23.9431 9.46969 23.7432C9.26978 23.5433 9.15747 23.2722 9.15747 22.9895V11.2638Z" fill="white"/>
</svg>
