<svg width="55" height="31" viewBox="0 0 55 31" fill="none" xmlns="http://www.w3.org/2000/svg">
<rect x="0.836487" y="5.44818" width="25.7341" height="25.7341" rx="6" transform="rotate(-10 0.836487 5.44818)" fill="#2C79EE"/>
<path fill-rule="evenodd" clip-rule="evenodd" d="M9.06293 13.0865C8.94269 12.4046 9.09826 11.7028 9.49543 11.1356C9.8926 10.5684 10.4988 10.1822 11.1807 10.0619L19.7514 8.55071C19.9106 8.52265 20.0744 8.53946 20.2245 8.59927C20.3747 8.65907 20.5052 8.75951 20.6015 8.88932C20.6978 9.01913 20.756 9.17319 20.7697 9.33423C20.7833 9.49528 20.7519 9.65695 20.6788 9.80112L19.0071 13.1005L21.7065 15.6291C21.8244 15.7396 21.9093 15.8808 21.9515 16.0368C21.9938 16.1928 21.9917 16.3575 21.9457 16.5124C21.8996 16.6673 21.8113 16.8063 21.6906 16.9139C21.57 17.0215 21.4218 17.0933 21.2626 17.1214L12.692 18.6326C12.4647 18.6727 12.2626 18.8014 12.1302 18.9905C11.9978 19.1795 11.946 19.4135 11.986 19.6408L12.4394 22.212C12.4795 22.4393 12.4276 22.6732 12.2952 22.8623C12.1629 23.0513 11.9608 23.1801 11.7335 23.2201C11.5062 23.2602 11.2722 23.2084 11.0832 23.076C10.8941 22.9436 10.7654 22.7415 10.7253 22.5142L9.06293 13.0865Z" fill="white"/>
<mask id="mask0_2322_3996" style="mask-type:alpha" maskUnits="userSpaceOnUse" x="1" y="1" width="29" height="29">
<rect x="0.836487" y="5.44812" width="25.7341" height="25.7341" rx="6" transform="rotate(-10 0.836487 5.44812)" fill="#2C79EE"/>
</mask>
<g mask="url(#mask0_2322_3996)">
<g filter="url(#filter0_f_2322_3996)">
<rect x="29.0981" y="0.979492" width="25.7341" height="25.7341" rx="6" transform="rotate(10 29.0981 0.979492)" fill="#013077"/>
</g>
</g>
<path fill-rule="evenodd" clip-rule="evenodd" d="M35.007 2.02138C31.7436 1.44596 28.6317 3.62498 28.0563 6.88834L25.6713 20.4138C25.0959 23.6772 27.2749 26.7892 30.5383 27.3646L44.0638 29.7495C47.3272 30.3249 50.4391 28.1459 51.0145 24.8825L53.3994 11.357C53.9749 8.09366 51.7958 4.98171 48.5325 4.40629L35.007 2.02138ZM34.2491 10.7833C34.3752 10.0682 34.7802 9.43256 35.375 9.01608C35.9697 8.59961 36.7056 8.43647 37.4207 8.56256L46.4079 10.1472C46.5748 10.1767 46.7302 10.252 46.8567 10.3648C46.9832 10.4776 47.0758 10.6233 47.1241 10.7858C47.1724 10.9482 47.1746 11.1209 47.1303 11.2845C47.086 11.4481 46.997 11.5961 46.8733 11.712L44.0428 14.3635L45.7957 17.8233C45.8723 17.9745 45.9053 18.144 45.891 18.3128C45.8767 18.4817 45.8156 18.6433 45.7146 18.7794C45.6137 18.9155 45.4768 19.0208 45.3193 19.0835C45.1619 19.1462 44.9901 19.1639 44.8232 19.1344L35.836 17.5498C35.5976 17.5077 35.3523 17.5621 35.1541 17.7009C34.9558 17.8398 34.8208 18.0517 34.7788 18.29L34.3034 20.9862C34.2614 21.2245 34.1264 21.4364 33.9281 21.5753C33.7299 21.7141 33.4846 21.7685 33.2462 21.7264C33.0079 21.6844 32.796 21.5494 32.6571 21.3511C32.5183 21.1529 32.4639 20.9076 32.506 20.6692L34.2491 10.7833ZM40.1 10.7033L40.703 12.6803L42.6578 13.3519L40.9638 14.5363L40.9292 16.6029L39.2793 15.3578L37.3031 15.9635L37.9774 14.0097L36.7907 12.3174L38.8573 12.3549L40.1 10.7033Z" fill="#2BCC4F"/>
<defs>
<filter id="filter0_f_2322_3996" x="18.5792" y="-5.0708" width="41.9124" height="41.9124" filterUnits="userSpaceOnUse" color-interpolation-filters="sRGB">
<feFlood flood-opacity="0" result="BackgroundImageFix"/>
<feBlend mode="normal" in="SourceGraphic" in2="BackgroundImageFix" result="shape"/>
<feGaussianBlur stdDeviation="3.5" result="effect1_foregroundBlur_2322_3996"/>
</filter>
</defs>
</svg>
