<svg width="32" height="32" viewBox="0 0 32 32" fill="none" xmlns="http://www.w3.org/2000/svg">
<rect width="31.5206" height="31.5206" rx="6" fill="#2C79EE"/>
<path d="M8.14111 11.7832C8.14111 11.2528 8.35183 10.7441 8.7269 10.369C9.10197 9.99392 9.61068 9.7832 10.1411 9.7832H15.1411L17.1411 11.7832H22.1411C22.6715 11.7832 23.1803 11.9939 23.5553 12.369C23.9304 12.7441 24.1411 13.2528 24.1411 13.7832V19.7832C24.1411 20.3136 23.9304 20.8223 23.5553 21.1974C23.1803 21.5725 22.6715 21.7832 22.1411 21.7832H10.1411C9.61068 21.7832 9.10197 21.5725 8.7269 21.1974C8.35183 20.8223 8.14111 20.3136 8.14111 19.7832V11.7832Z" fill="white"/>
</svg>
