<svg width="8" height="10" viewBox="0 0 8 10" fill="none" xmlns="http://www.w3.org/2000/svg">
<path fill-rule="evenodd" clip-rule="evenodd" d="M1.21175 1.92573C1.85076 1.28673 2.71744 0.927734 3.62113 0.927734C4.52483 0.927734 5.39151 1.28673 6.03051 1.92573C6.66952 2.56474 7.02851 3.43142 7.02851 4.33511C7.02851 5.23881 6.66952 6.10549 6.03051 6.74449L3.62113 9.15387L1.21175 6.74449C0.895329 6.4281 0.644325 6.05248 0.473075 5.63907C0.301826 5.22567 0.213684 4.78258 0.213684 4.33511C0.213684 3.88764 0.301826 3.44456 0.473075 3.03115C0.644325 2.61775 0.895329 2.24213 1.21175 1.92573ZM3.62113 5.3086C3.87932 5.3086 4.12693 5.20604 4.30949 5.02347C4.49206 4.84091 4.59462 4.5933 4.59462 4.33511C4.59462 4.07693 4.49206 3.82932 4.30949 3.64675C4.12693 3.46419 3.87932 3.36163 3.62113 3.36163C3.36295 3.36163 3.11534 3.46419 2.93278 3.64675C2.75021 3.82932 2.64765 4.07693 2.64765 4.33511C2.64765 4.5933 2.75021 4.84091 2.93278 5.02347C3.11534 5.20604 3.36295 5.3086 3.62113 5.3086Z" fill="#2C79EE"/>
</svg>
