<svg width="10" height="10" viewBox="0 0 10 10" fill="none" xmlns="http://www.w3.org/2000/svg">
<path fill-rule="evenodd" clip-rule="evenodd" d="M4.8281 0.595459C4.67167 0.595459 4.52164 0.657601 4.41103 0.768215C4.30042 0.878828 4.23827 1.02885 4.23827 1.18528V1.77511C4.23827 1.93154 4.30042 2.08157 4.41103 2.19218C4.52164 2.30279 4.67167 2.36493 4.8281 2.36493C4.98453 2.36493 5.13455 2.30279 5.24517 2.19218C5.35578 2.08157 5.41792 1.93154 5.41792 1.77511V1.18528C5.41792 1.02885 5.35578 0.878828 5.24517 0.768215C5.13455 0.657601 4.98453 0.595459 4.8281 0.595459ZM1.28915 1.77511H3.05862C3.05862 2.2444 3.24505 2.69448 3.57689 3.02632C3.90873 3.35816 4.3588 3.54458 4.8281 3.54458C5.29739 3.54458 5.74747 3.35816 6.07931 3.02632C6.41115 2.69448 6.59757 2.2444 6.59757 1.77511H8.36705C8.67991 1.77511 8.97996 1.89939 9.20119 2.12062C9.42242 2.34185 9.5467 2.6419 9.5467 2.95476V8.26319C9.5467 8.57605 9.42242 8.8761 9.20119 9.09733C8.97996 9.31855 8.67991 9.44284 8.36705 9.44284H1.28915C0.976285 9.44284 0.676236 9.31855 0.455009 9.09733C0.233781 8.8761 0.109497 8.57605 0.109497 8.26319V2.95476C0.109497 2.6419 0.233781 2.34185 0.455009 2.12062C0.676236 1.89939 0.976285 1.77511 1.28915 1.77511ZM2.76371 5.90389C2.99836 5.90389 3.22339 5.81067 3.38931 5.64475C3.55524 5.47883 3.64845 5.2538 3.64845 5.01915C3.64845 4.7845 3.55524 4.55946 3.38931 4.39354C3.22339 4.22762 2.99836 4.13441 2.76371 4.13441C2.52906 4.13441 2.30403 4.22762 2.13811 4.39354C1.97219 4.55946 1.87897 4.7845 1.87897 5.01915C1.87897 5.2538 1.97219 5.47883 2.13811 5.64475C2.30403 5.81067 2.52906 5.90389 2.76371 5.90389ZM4.20878 8.26319C4.25227 8.04903 4.24761 7.82788 4.19515 7.61574C4.14268 7.4036 4.04372 7.20577 3.90542 7.03657C3.76713 6.86737 3.59295 6.73102 3.3955 6.63739C3.19804 6.54376 2.98224 6.49519 2.76371 6.49519C2.54518 6.49519 2.32938 6.54376 2.13193 6.63739C1.93447 6.73102 1.76029 6.86737 1.622 7.03657C1.4837 7.20577 1.38474 7.4036 1.33227 7.61574C1.27981 7.82788 1.27515 8.04903 1.31864 8.26319H4.20878ZM6.00775 4.72424C5.85132 4.72424 5.70129 4.78638 5.59068 4.89699C5.48007 5.00761 5.41792 5.15763 5.41792 5.31406C5.41792 5.47049 5.48007 5.62052 5.59068 5.73113C5.70129 5.84174 5.85132 5.90389 6.00775 5.90389H7.77723C7.93366 5.90389 8.08368 5.84174 8.19429 5.73113C8.30491 5.62052 8.36705 5.47049 8.36705 5.31406C8.36705 5.15763 8.30491 5.00761 8.19429 4.89699C8.08368 4.78638 7.93366 4.72424 7.77723 4.72424H6.00775ZM5.41792 7.08354C5.41792 6.9271 5.48007 6.77708 5.59068 6.66647C5.70129 6.55585 5.85132 6.49371 6.00775 6.49371H7.1874C7.34383 6.49371 7.49386 6.55585 7.60447 6.66647C7.71508 6.77708 7.77723 6.9271 7.77723 7.08354C7.77723 7.23997 7.71508 7.38999 7.60447 7.50061C7.49386 7.61122 7.34383 7.67336 7.1874 7.67336H6.00775C5.85132 7.67336 5.70129 7.61122 5.59068 7.50061C5.48007 7.38999 5.41792 7.23997 5.41792 7.08354Z" fill="#2C79EE"/>
</svg>
