<svg width="12" height="12" viewBox="0 0 12 12" fill="none" xmlns="http://www.w3.org/2000/svg">
<path fill-rule="evenodd" clip-rule="evenodd" d="M1.49566 0.746149C1.06066 1.18115 0.816284 1.77113 0.816284 2.38631V10.8913C0.816284 11.0963 0.897744 11.293 1.04274 11.438C1.18774 11.583 1.3844 11.6645 1.58946 11.6645C1.79452 11.6645 1.99118 11.583 2.13618 11.438C2.28118 11.293 2.36264 11.0963 2.36264 10.8913V8.57174C2.36264 8.36668 2.4441 8.17002 2.5891 8.02502C2.7341 7.88002 2.93076 7.79856 3.13582 7.79856H10.8676C11.0112 7.79856 11.1519 7.75858 11.2741 7.68309C11.3962 7.6076 11.4949 7.49959 11.5592 7.37116C11.6234 7.24273 11.6506 7.09895 11.6377 6.95595C11.6248 6.81294 11.5723 6.67634 11.4862 6.56147L9.51455 3.93267L11.4862 1.30386C11.5723 1.18899 11.6248 1.0524 11.6377 0.909387C11.6506 0.766379 11.6234 0.622605 11.5592 0.494175C11.4949 0.365746 11.3962 0.257735 11.2741 0.182246C11.1519 0.106757 11.0112 0.0667725 10.8676 0.0667725H3.13582C2.52064 0.0667725 1.93066 0.311152 1.49566 0.746149ZM6.48029 3.01967L5.68637 1.45876L4.89244 3.01967L3.1626 3.29239L4.40177 4.5298L4.12659 6.25925L5.68637 5.46312L7.24614 6.25925L6.97097 4.5298L8.21013 3.29239L6.48029 3.01967Z" fill="#2BCC4F"/>
</svg>
