<svg width="12" height="12" viewBox="0 0 12 12" fill="none" xmlns="http://www.w3.org/2000/svg">
<path fill-rule="evenodd" clip-rule="evenodd" d="M0.816284 2.34034C0.816284 1.72517 1.06066 1.13518 1.49566 0.700188C1.93066 0.265192 2.52064 0.020813 3.13582 0.020813H10.8676C11.0112 0.020813 11.1519 0.0607976 11.2741 0.136286C11.3962 0.211775 11.4949 0.319786 11.5591 0.448215C11.6234 0.576644 11.6505 0.720418 11.6376 0.863426C11.6247 1.00643 11.5723 1.14303 11.4861 1.2579L9.51453 3.8867L11.4861 6.5155C11.5723 6.63037 11.6247 6.76696 11.6376 6.90997C11.6505 7.05298 11.6234 7.19675 11.5591 7.32518C11.4949 7.45361 11.3962 7.56162 11.2741 7.63711C11.1519 7.7126 11.0112 7.75258 10.8676 7.75258H3.13582C2.93076 7.75258 2.7341 7.83404 2.5891 7.97904C2.4441 8.12404 2.36264 8.3207 2.36264 8.52576V10.8453C2.36264 11.0504 2.28118 11.247 2.13618 11.392C1.99118 11.537 1.79452 11.6185 1.58946 11.6185C1.3844 11.6185 1.18774 11.537 1.04274 11.392C0.897744 11.247 0.816284 11.0504 0.816284 10.8453V2.34034Z" fill="#E2E3E6"/>
</svg>
