<svg width="49" height="50" viewBox="0 0 49 50" fill="none" xmlns="http://www.w3.org/2000/svg">
<path fill-rule="evenodd" clip-rule="evenodd" d="M24.405 0.750488C10.9265 0.750488 0 11.6773 0 25.1558C0 38.6343 10.9265 49.5611 24.405 49.5611C37.8835 49.5611 48.81 38.6343 48.81 25.1558C48.81 11.6773 37.8835 0.750488 24.405 0.750488ZM31.405 34.1558H29.405V28.1558H31.405V34.1558ZM19.405 34.1558H17.405V24.1558H19.405V34.1558ZM31.405 24.1558H33.405V26.1558H27.405V24.1558H29.405V16.1558H31.405V24.1558ZM23.405 30.1558H21.405V28.1558H27.405V30.1558H25.405V34.1558H23.405V30.1558ZM23.405 16.1558H25.405V26.1558H23.405V16.1558ZM21.405 20.1558V22.1558H15.405V20.1558H17.405V16.1558H19.405V20.1558H21.405Z" fill="#2C79EE"/>
</svg>
