<svg width="19" height="19" viewBox="0 0 19 19" fill="none" xmlns="http://www.w3.org/2000/svg">
<path d="M14.8901 18.6943L16.8901 18.6943L16.8901 12.6943L14.8901 12.6943L14.8901 18.6943ZM2.89014 18.6943L4.89014 18.6943L4.89014 8.69434L2.89014 8.69434L2.89014 18.6943ZM18.8901 8.69434L16.8901 8.69434L16.8901 0.694336L14.8901 0.694336L14.8901 8.69434L12.8901 8.69434L12.8901 10.6943L18.8901 10.6943L18.8901 8.69434ZM6.89014 14.6943L8.89014 14.6943L8.89014 18.6943L10.8901 18.6943L10.8901 14.6943L12.8901 14.6943L12.8901 12.6943L6.89014 12.6943L6.89014 14.6943ZM10.8901 0.694336L8.89014 0.694336L8.89014 10.6943L10.8901 10.6943L10.8901 0.694336ZM6.89014 6.69434L6.89014 4.69434L4.89014 4.69434L4.89014 0.694337L2.89014 0.694337L2.89014 4.69434L0.890137 4.69434L0.890137 6.69434L6.89014 6.69434Z" fill="#3C6B95"/>
</svg>
