<svg width="21" height="21" viewBox="0 0 21 21" fill="none" xmlns="http://www.w3.org/2000/svg">
<path fill-rule="evenodd" clip-rule="evenodd" d="M10.2123 0.523438C4.6895 0.523438 0.212402 5.00066 0.212402 10.5234C0.212402 16.0462 4.6895 20.5234 10.2123 20.5234C15.7351 20.5234 20.2121 16.0462 20.2121 10.5234C20.2121 5.00066 15.7351 0.523438 10.2123 0.523438ZM8.68361 17.4028H7.15491L7.15491 9.75931H8.68361V17.4028ZM11.741 14.3454H10.2123V12.8167H14.7984V14.3454H13.2697V17.4028H11.741V14.3454ZM11.741 3.64453H13.2697V11.288H11.741L11.741 3.64453ZM10.2123 6.70192V8.23061H5.62622V6.70192H7.15491L7.15491 3.64453H8.68361V6.70192H10.2123Z" fill="white"/>
</svg>
