<svg width="49" height="50" viewBox="0 0 49 50" fill="none" xmlns="http://www.w3.org/2000/svg">
<path fill-rule="evenodd" clip-rule="evenodd" d="M24.405 0.750488C10.9265 0.750488 0 11.6773 0 25.1558C0 38.6343 10.9265 49.5611 24.405 49.5611C37.8835 49.5611 48.81 38.6343 48.81 25.1558C48.81 11.6773 37.8835 0.750488 24.405 0.750488ZM20.2808 13.9219C19.9162 13.9219 19.5665 14.0667 19.3087 14.3245C19.0509 14.5823 18.9061 14.932 18.9061 15.2966C18.9061 15.6612 19.0509 16.0108 19.3087 16.2686C19.5665 16.5265 19.9162 16.6713 20.2808 16.6713H28.5291C28.8937 16.6713 29.2433 16.5265 29.5011 16.2686C29.7589 16.0108 29.9038 15.6612 29.9038 15.2966C29.9038 14.932 29.7589 14.5823 29.5011 14.3245C29.2433 14.0667 28.8937 13.9219 28.5291 13.9219H20.2808ZM16.1566 19.4207C16.1566 19.0561 16.3015 18.7065 16.5593 18.4487C16.8171 18.1909 17.1668 18.046 17.5314 18.046H31.2785C31.6431 18.046 31.9928 18.1909 32.2506 18.4487C32.5084 18.7065 32.6532 19.0561 32.6532 19.4207C32.6532 19.7853 32.5084 20.135 32.2506 20.3928C31.9928 20.6506 31.6431 20.7954 31.2785 20.7954H17.5314C17.1668 20.7954 16.8171 20.6506 16.5593 20.3928C16.3015 20.135 16.1566 19.7853 16.1566 19.4207ZM13.4072 24.9196C13.4072 24.1904 13.6969 23.4911 14.2125 22.9754C14.7281 22.4598 15.4275 22.1702 16.1566 22.1702H32.6532C33.3824 22.1702 34.0817 22.4598 34.5974 22.9754C35.113 23.4911 35.4026 24.1904 35.4026 24.9196V32.6733C35.4026 33.4026 35.113 34.1019 34.5974 34.6175C34.0817 35.1331 33.3824 35.4228 32.6532 35.4228H16.1566C15.4275 35.4228 14.7281 35.1331 14.2125 34.6175C13.6969 34.1019 13.4072 33.4026 13.4072 32.6733V24.9196ZM24.4049 24.6724C23.9097 24.6724 23.5082 25.0738 23.5082 25.569V27.7487H21.3286C20.8333 27.7487 20.4319 28.1501 20.4319 28.6454C20.4319 29.1406 20.8333 29.5421 21.3286 29.5421H23.5082V31.7217C23.5082 32.2169 23.9097 32.6183 24.4049 32.6183C24.9001 32.6183 25.3016 32.2169 25.3016 31.7217V29.5421H27.4812C27.9764 29.5421 28.3779 29.1406 28.3779 28.6454C28.3779 28.1501 27.9764 27.7487 27.4812 27.7487H25.3016V25.569C25.3016 25.0738 24.9001 24.6724 24.4049 24.6724Z" fill="#2C79EE"/>
</svg>
