<svg width="16" height="14" viewBox="0 0 16 14" fill="none" xmlns="http://www.w3.org/2000/svg">
<path d="M5.02284 0.741211C4.77746 0.741211 4.54213 0.838689 4.36861 1.0122C4.1951 1.18572 4.09762 1.42105 4.09762 1.66643C4.09762 1.91182 4.1951 2.14715 4.36861 2.32067C4.54213 2.49418 4.77746 2.59166 5.02284 2.59166H10.5742C10.8196 2.59166 11.0549 2.49418 11.2284 2.32067C11.4019 2.14715 11.4994 1.91182 11.4994 1.66643C11.4994 1.42105 11.4019 1.18572 11.2284 1.0122C11.0549 0.838689 10.8196 0.741211 10.5742 0.741211H5.02284ZM2.24717 4.4421C2.24717 4.19672 2.34465 3.96139 2.51817 3.78787C2.69168 3.61436 2.92701 3.51688 3.1724 3.51688H12.4246C12.67 3.51688 12.9053 3.61436 13.0789 3.78787C13.2524 3.96139 13.3499 4.19672 13.3499 4.4421C13.3499 4.68749 13.2524 4.92282 13.0789 5.09634C12.9053 5.26985 12.67 5.36733 12.4246 5.36733H3.1724C2.92701 5.36733 2.69168 5.26985 2.51817 5.09634C2.34465 4.92282 2.24717 4.68749 2.24717 4.4421ZM0.396729 8.143C0.396729 7.65223 0.591686 7.18156 0.938712 6.83453C1.28574 6.48751 1.75641 6.29255 2.24717 6.29255H13.3499C13.8406 6.29255 14.3113 6.48751 14.6583 6.83453C15.0053 7.18156 15.2003 7.65223 15.2003 8.143V11.8439C15.2003 12.3347 15.0053 12.8053 14.6583 13.1524C14.3113 13.4994 13.8406 13.6943 13.3499 13.6943H2.24717C1.75641 13.6943 1.28574 13.4994 0.938712 13.1524C0.591686 12.8053 0.396729 12.3347 0.396729 11.8439V8.143Z" fill="#3C6B95"/>
</svg>
