<svg width="21" height="21" viewBox="0 0 21 21" fill="none" xmlns="http://www.w3.org/2000/svg">
<path fill-rule="evenodd" clip-rule="evenodd" d="M10.1568 0.538086C4.63402 0.538086 0.156921 5.01531 0.156921 10.5381C0.156921 16.0609 4.63402 20.5381 10.1568 20.5381C15.6796 20.5381 20.1567 16.0609 20.1567 10.5381C20.1567 5.01531 15.6796 0.538086 10.1568 0.538086ZM8.06861 6.10017C8.17424 5.99453 8.31752 5.93518 8.46691 5.93518H11.8466C11.996 5.93518 12.1393 5.99453 12.2449 6.10017C12.3506 6.2058 12.4099 6.34908 12.4099 6.49847C12.4099 6.64786 12.3506 6.79113 12.2449 6.89677C12.1393 7.00241 11.996 7.06175 11.8466 7.06175H8.46691C8.31752 7.06175 8.17424 7.00241 8.06861 6.89677C7.96297 6.79113 7.90362 6.64786 7.90362 6.49847C7.90362 6.34908 7.96297 6.2058 8.06861 6.10017ZM6.94204 7.79002C6.8364 7.89566 6.77705 8.03893 6.77705 8.18832C6.77705 8.33771 6.8364 8.48099 6.94204 8.58662C7.04767 8.69226 7.19095 8.75161 7.34034 8.75161H12.9732C13.1226 8.75161 13.2659 8.69226 13.3715 8.58662C13.4771 8.48099 13.5365 8.33771 13.5365 8.18832C13.5365 8.03893 13.4771 7.89566 13.3715 7.79002C13.2659 7.68438 13.1226 7.62504 12.9732 7.62504H7.34034C7.19095 7.62504 7.04767 7.68438 6.94204 7.79002ZM5.98045 9.64486C5.76918 9.85613 5.65049 10.1427 5.65049 10.4415V13.6185C5.65049 13.9173 5.76918 14.2039 5.98045 14.4151C6.19172 14.6264 6.47827 14.7451 6.77705 14.7451H13.5365C13.8353 14.7451 14.1218 14.6264 14.3331 14.4151C14.5443 14.2039 14.663 13.9173 14.663 13.6185V10.4415C14.663 10.1427 14.5443 9.85613 14.3331 9.64486C14.1218 9.43358 13.8353 9.31489 13.5365 9.31489H6.77705C6.47827 9.31489 6.19172 9.43358 5.98045 9.64486Z" fill="white"/>
</svg>
