<svg width="23" height="23" viewBox="0 0 23 23" fill="none" xmlns="http://www.w3.org/2000/svg">
<path fill-rule="evenodd" clip-rule="evenodd" d="M6.69764 1.09698C6.95545 0.839171 7.30511 0.694336 7.66971 0.694336H15.918C16.2826 0.694336 16.6322 0.839171 16.8901 1.09698C17.1479 1.35479 17.2927 1.70445 17.2927 2.06905C17.2927 2.43365 17.1479 2.78331 16.8901 3.04112C16.6322 3.29893 16.2826 3.44376 15.918 3.44376H7.66971C7.30511 3.44376 6.95545 3.29893 6.69764 3.04112C6.43983 2.78331 6.29499 2.43365 6.29499 2.06905C6.29499 1.70445 6.43983 1.35479 6.69764 1.09698ZM3.94821 5.22112C3.6904 5.47893 3.54557 5.82859 3.54557 6.19319C3.54557 6.55778 3.6904 6.90745 3.94821 7.16526C4.20602 7.42307 4.55568 7.5679 4.92028 7.5679H18.6674C19.032 7.5679 19.3817 7.42307 19.6395 7.16526C19.8973 6.90745 20.0421 6.55778 20.0421 6.19319C20.0421 5.82859 19.8973 5.47893 19.6395 5.22112C19.3817 4.96331 19.032 4.81847 18.6674 4.81847H4.92028C4.55568 4.81847 4.20602 4.96331 3.94821 5.22112ZM1.60143 9.7479C1.08581 10.2635 0.796143 10.9628 0.796143 11.692V19.4458C0.796143 20.175 1.08581 20.8743 1.60143 21.3899C2.11705 21.9056 2.81638 22.1952 3.54557 22.1952H20.0421C20.7713 22.1952 21.4706 21.9056 21.9863 21.3899C22.5019 20.8743 22.7915 20.175 22.7915 19.4458V11.692C22.7915 10.9628 22.5019 10.2635 21.9863 9.7479C21.4706 9.23228 20.7713 8.94261 20.0421 8.94261H3.54557C2.81638 8.94261 2.11705 9.23228 1.60143 9.7479ZM10.8971 12.3415C10.8971 11.8463 11.2986 11.4448 11.7938 11.4448C12.289 11.4448 12.6905 11.8463 12.6905 12.3415V14.5212H14.8701C15.3653 14.5212 15.7668 14.9226 15.7668 15.4178C15.7668 15.9131 15.3653 16.3145 14.8701 16.3145H12.6905V18.4941C12.6905 18.9894 12.289 19.3908 11.7938 19.3908C11.2986 19.3908 10.8971 18.9894 10.8971 18.4941V16.3145H8.71748C8.22225 16.3145 7.8208 15.9131 7.8208 15.4178C7.8208 14.9226 8.22225 14.5212 8.71748 14.5212H10.8971V12.3415Z" fill="#3C6B95"/>
</svg>
