<svg width="29" height="22" viewBox="0 0 29 22" fill="none" xmlns="http://www.w3.org/2000/svg">
<path fill-rule="evenodd" clip-rule="evenodd" d="M26.8424 20.0643C25.702 21.1474 24.1899 21.7522 22.6171 21.7542H8.56669C7.48247 21.7553 6.40959 21.5333 5.41481 21.1021C4.42003 20.6707 3.52464 20.0394 2.78434 19.2472C2.04402 18.455 1.47462 17.519 1.11155 16.4974C0.748487 15.4757 0.5995 14.3903 0.673902 13.3086C0.748273 12.2269 1.04445 11.1721 1.54396 10.2098C2.04347 9.24744 2.73567 8.39818 3.57744 7.71483C4.41923 7.03146 5.39262 6.52863 6.43709 6.23756C7.48155 5.94652 8.57469 5.87347 9.6486 6.02301C10.109 4.21733 11.2679 2.66852 12.8703 1.7173C14.4727 0.766068 16.3873 0.490357 18.193 0.950791C19.9987 1.41124 21.5475 2.57013 22.4987 4.17252C23.45 5.77492 23.7257 7.68954 23.2652 9.49522C24.829 9.6631 26.2689 10.424 27.2887 11.6212C28.3085 12.8185 28.8306 14.3611 28.7476 15.9317C28.6645 17.5022 27.9827 18.9812 26.8424 20.0643ZM15.6186 18.0088H13.786V14.3165H10.1005V12.4839H13.786V8.79834H15.6186V12.4839H19.311V14.3165H15.6186V18.0088Z" fill="#0CA47F"/>
</svg>
