<svg width="26" height="19" viewBox="0 0 26 19" fill="none" xmlns="http://www.w3.org/2000/svg">
<path d="M19.8664 18.6969C21.2459 18.6951 22.5723 18.1646 23.5725 17.2146C24.5728 16.2645 25.1709 14.9673 25.2437 13.5897C25.3165 12.2121 24.8586 10.859 23.964 9.80878C23.0695 8.75859 21.8065 8.0912 20.4349 7.94395C20.8388 6.3601 20.5969 4.68069 19.7626 3.27516C18.9282 1.86963 17.5697 0.853113 15.9858 0.449236C14.402 0.0453589 12.7226 0.287203 11.317 1.12157C9.91149 1.95593 8.89498 3.31446 8.4911 4.89831C7.54914 4.76715 6.59028 4.83121 5.67414 5.08651C4.758 5.3418 3.90419 5.78287 3.16582 6.38228C2.42745 6.98168 1.8203 7.72661 1.38216 8.57071C0.944012 9.41481 0.684233 10.34 0.61898 11.2888C0.553728 12.2376 0.684399 13.1897 1.00286 14.0859C1.32133 14.982 1.82078 15.803 2.47014 16.4979C3.1195 17.1927 3.90489 17.7465 4.77745 18.1248C5.65002 18.5031 6.59109 18.6979 7.54213 18.6969H19.8664Z" fill="#0CA47F"/>
</svg>
