<svg width="301" height="301" viewBox="0 0 301 301" fill="none" xmlns="http://www.w3.org/2000/svg">
<rect width="300" height="300" transform="translate(0.809082 0.5)" fill="#2C2C2C"/>
<path d="M174.109 49.3564H92.705C86.0207 49.3564 80.6021 54.7751 80.6021 61.4594V229.748C80.6021 236.432 86.0207 241.851 92.705 241.851H208.913C215.598 241.851 221.016 236.432 221.016 229.748V96.2632L174.109 49.3564Z" fill="#5AC25C"/>
<path fill-rule="evenodd" clip-rule="evenodd" d="M221.016 96.6533H172.902V49.3569H174.109L221.016 96.264V96.6533Z" fill="#43933C"/>
<path fill-rule="evenodd" clip-rule="evenodd" d="M195.485 121.527H106.133V184.819H195.485V121.527ZM155.931 133.267H183.566V148.535H155.931V133.267ZM155.931 157.811H183.566V173.079H155.931V157.811ZM145.688 157.811H118.052V173.079H145.688V157.811ZM118.052 133.268H145.688V148.535H118.052V133.268Z" fill="white"/>
</svg>
