<svg width="12" height="14" viewBox="0 0 12 14" fill="none" xmlns="http://www.w3.org/2000/svg">
<path d="M5.84834 0C4.5188 0 3.24373 0.528155 2.3036 1.46828C1.36348 2.4084 0.835324 3.68348 0.835324 5.01301V8.00913L0.244624 8.59983C0.127813 8.71667 0.0482678 8.86553 0.0160446 9.02758C-0.0161787 9.18963 0.00036674 9.35759 0.0635892 9.51024C0.126812 9.66288 0.233873 9.79336 0.371237 9.88517C0.508602 9.97697 0.670104 10.026 0.835324 10.026H10.8614C11.0266 10.026 11.1881 9.97697 11.3254 9.88517C11.4628 9.79336 11.5699 9.66288 11.6331 9.51024C11.6963 9.35759 11.7129 9.18963 11.6806 9.02758C11.6484 8.86553 11.5689 8.71667 11.4521 8.59983L10.8614 8.00913V5.01301C10.8614 3.68348 10.3332 2.4084 9.39308 1.46828C8.45295 0.528155 7.17787 0 5.84834 0ZM5.84834 13.368C5.18357 13.368 4.54603 13.104 4.07597 12.6339C3.60591 12.1638 3.34183 11.5263 3.34183 10.8615H8.35485C8.35485 11.5263 8.09077 12.1638 7.62071 12.6339C7.15065 13.104 6.51311 13.368 5.84834 13.368Z" fill="#3C6B95"/>
</svg>
