<svg width="49" height="49" viewBox="0 0 49 49" fill="none" xmlns="http://www.w3.org/2000/svg">
<rect width="48.81" height="48.8106" rx="24.405" fill="#9E59F6"/>
<path d="M24.405 14.5684C22.4483 14.5684 20.5718 15.3457 19.1882 16.7292C17.8046 18.1128 17.0273 19.9894 17.0273 21.9461V26.3555L16.158 27.2248C15.9861 27.3968 15.869 27.6158 15.8216 27.8543C15.7742 28.0928 15.7985 28.34 15.8916 28.5647C15.9846 28.7893 16.1422 28.9813 16.3443 29.1164C16.5465 29.2516 16.7842 29.3237 17.0273 29.3238H31.7827C32.0259 29.3237 32.2636 29.2516 32.4657 29.1164C32.6679 28.9813 32.8254 28.7893 32.9185 28.5647C33.0115 28.34 33.0359 28.0928 32.9885 27.8543C32.941 27.6158 32.824 27.3968 32.6521 27.2248L31.7827 26.3555V21.9461C31.7827 19.9894 31.0054 18.1128 29.6218 16.7292C28.2383 15.3457 26.3617 14.5684 24.405 14.5684ZM24.405 34.2422C23.4267 34.2422 22.4884 33.8536 21.7966 33.1618C21.1048 32.47 20.7162 31.5317 20.7162 30.5534H28.0939C28.0939 31.5317 27.7052 32.47 27.0134 33.1618C26.3216 33.8536 25.3834 34.2422 24.405 34.2422Z" fill="white"/>
</svg>
