<svg width="20" height="20" viewBox="0 0 20 20" fill="none" xmlns="http://www.w3.org/2000/svg">
<path fill-rule="evenodd" clip-rule="evenodd" d="M9.99987 0C4.47709 0 0 4.47722 0 10C0 15.5228 4.47709 20 9.99987 20C15.5227 20 19.9997 15.5228 19.9997 10C19.9997 4.47722 15.5227 0 9.99987 0ZM7.07097 5.69071C7.84775 4.91393 8.90129 4.47754 9.99983 4.47754C11.0984 4.47754 12.1519 4.91393 12.9287 5.69071C13.7055 6.4675 14.1419 7.52104 14.1419 8.61958V11.0951L14.6299 11.5832C14.7265 11.6797 14.7922 11.8027 14.8188 11.9366C14.8454 12.0705 14.8318 12.2093 14.7795 12.3354C14.7273 12.4616 14.6388 12.5694 14.5253 12.6452C14.4118 12.7211 14.2784 12.7616 14.1419 12.7616H5.85779C5.72128 12.7616 5.58784 12.7211 5.47434 12.6452C5.36084 12.5694 5.27238 12.4616 5.22014 12.3354C5.16791 12.2093 5.15423 12.0705 5.18086 11.9366C5.20748 11.8027 5.27321 11.6797 5.36972 11.5832L5.85779 11.0951V8.61958C5.85779 7.52104 6.29419 6.4675 7.07097 5.69071ZM8.5354 14.9164C8.92379 15.3048 9.45056 15.523 9.99983 15.523C10.5491 15.523 11.0759 15.3048 11.4643 14.9164C11.8527 14.528 12.0708 14.0012 12.0708 13.452H7.92881C7.92881 14.0012 8.14701 14.528 8.5354 14.9164Z" fill="white"/>
</svg>
