<svg width="46" height="46" viewBox="0 0 46 46" fill="none" xmlns="http://www.w3.org/2000/svg">
<circle cx="22.5967" cy="22.5967" r="22.5967" fill="#E7F2FE"/>
<path d="M22.5967 16.5967V14.5967M22.5967 16.5967C22.0663 16.5967 21.5576 16.8074 21.1825 17.1825C20.8075 17.5575 20.5967 18.0662 20.5967 18.5967C20.5967 19.1271 20.8075 19.6358 21.1825 20.0109C21.5576 20.386 22.0663 20.5967 22.5967 20.5967M22.5967 16.5967C23.1272 16.5967 23.6359 16.8074 24.011 17.1825C24.386 17.5575 24.5967 18.0662 24.5967 18.5967C24.5967 19.1271 24.386 19.6358 24.011 20.0109C23.6359 20.386 23.1272 20.5967 22.5967 20.5967M22.5967 20.5967V30.5967M16.5967 28.5967C17.1272 28.5967 17.6359 28.386 18.011 28.0109C18.386 27.6358 18.5967 27.1271 18.5967 26.5967C18.5967 26.0662 18.386 25.5575 18.011 25.1825C17.6359 24.8074 17.1272 24.5967 16.5967 24.5967M16.5967 28.5967C16.0663 28.5967 15.5576 28.386 15.1825 28.0109C14.8075 27.6358 14.5967 27.1271 14.5967 26.5967C14.5967 26.0662 14.8075 25.5575 15.1825 25.1825C15.5576 24.8074 16.0663 24.5967 16.5967 24.5967M16.5967 28.5967V30.5967M16.5967 24.5967V14.5967M28.5967 28.5967C29.1272 28.5967 29.6359 28.386 30.011 28.0109C30.386 27.6358 30.5967 27.1271 30.5967 26.5967C30.5967 26.0662 30.386 25.5575 30.011 25.1825C29.6359 24.8074 29.1272 24.5967 28.5967 24.5967M28.5967 28.5967C28.0663 28.5967 27.5576 28.386 27.1825 28.0109C26.8075 27.6358 26.5967 27.1271 26.5967 26.5967C26.5967 26.0662 26.8075 25.5575 27.1825 25.1825C27.5576 24.8074 28.0663 24.5967 28.5967 24.5967M28.5967 28.5967V30.5967M28.5967 24.5967V14.5967" stroke="#2C79EE" stroke-width="2" stroke-linecap="round" stroke-linejoin="round"/>
</svg>
