<svg width="18" height="20" viewBox="0 0 18 20" fill="none" xmlns="http://www.w3.org/2000/svg">
<path d="M8.60705 0C6.65036 0 4.77382 0.777291 3.39023 2.16088C2.00664 3.54446 1.22935 5.42101 1.22935 7.3777V11.7871L0.360015 12.6564C0.188104 12.8284 0.0710362 13.0475 0.0236129 13.286C-0.0238104 13.5244 0.000539741 13.7716 0.0935848 13.9963C0.18663 14.2209 0.344192 14.413 0.546353 14.5481C0.748514 14.6832 0.986197 14.7553 1.22935 14.7554H15.9847C16.2279 14.7553 16.4656 14.6832 16.6677 14.5481C16.8699 14.413 17.0275 14.2209 17.1205 13.9963C17.2136 13.7716 17.2379 13.5244 17.1905 13.286C17.1431 13.0475 17.026 12.8284 16.8541 12.6564L15.9847 11.7871V7.3777C15.9847 5.42101 15.2075 3.54446 13.8239 2.16088C12.4403 0.777291 10.5637 0 8.60705 0V0ZM8.60705 19.6739C7.62871 19.6739 6.69043 19.2852 5.99864 18.5934C5.30685 17.9016 4.9182 16.9634 4.9182 15.985H12.2959C12.2959 16.9634 11.9073 17.9016 11.2155 18.5934C10.5237 19.2852 9.58539 19.6739 8.60705 19.6739Z" fill="#3C6B95"/>
<path fill-rule="evenodd" clip-rule="evenodd" d="M8.60703 3.88379C8.1118 3.88379 7.71035 4.28525 7.71035 4.78047V6.96012H5.53071C5.03549 6.96012 4.63403 7.36158 4.63403 7.8568C4.63403 8.35202 5.03549 8.75348 5.53071 8.75348H7.71035V10.9331C7.71035 11.4283 8.1118 11.8298 8.60703 11.8298C9.10225 11.8298 9.50371 11.4283 9.50371 10.9331V8.75348H11.6833C12.1786 8.75348 12.58 8.35203 12.58 7.8568C12.58 7.36158 12.1786 6.96012 11.6833 6.96012H9.50371V4.78047C9.50371 4.28525 9.10225 3.88379 8.60703 3.88379Z" fill="#ACC6DD"/>
</svg>
