<svg width="15" height="15" viewBox="0 0 15 15" fill="none" xmlns="http://www.w3.org/2000/svg">
<rect x="0.5" y="0.5" width="13.6643" height="13.6645" rx="6.83214" fill="white" stroke="#9E59F6"/>
<mask id="path-2-inside-1" fill="white">
<path d="M7.33214 2.93604C6.45767 2.93604 5.61901 3.28342 5.00067 3.90176C4.38233 4.5201 4.03495 5.35875 4.03495 6.23322V8.20384L3.64643 8.59236C3.5696 8.66921 3.51728 8.76712 3.49609 8.8737C3.47489 8.98028 3.48578 9.09076 3.52736 9.19116C3.56894 9.29156 3.63936 9.37737 3.72971 9.43776C3.82006 9.49814 3.92628 9.53039 4.03495 9.53041H10.6293C10.738 9.53039 10.8442 9.49814 10.9346 9.43776C11.0249 9.37737 11.0953 9.29156 11.1369 9.19116C11.1785 9.09076 11.1894 8.98028 11.1682 8.8737C11.147 8.76712 11.0947 8.66921 11.0178 8.59236L10.6293 8.20384V6.23322C10.6293 5.35875 10.2819 4.5201 9.6636 3.90176C9.04526 3.28342 8.2066 2.93604 7.33214 2.93604V2.93604ZM7.33214 11.7285C6.8949 11.7285 6.47558 11.5548 6.1664 11.2457C5.85723 10.9365 5.68354 10.5172 5.68354 10.0799H8.98073C8.98073 10.5172 8.80704 10.9365 8.49787 11.2457C8.1887 11.5548 7.76937 11.7285 7.33214 11.7285Z"/>
</mask>
<path d="M7.33214 2.93604C6.45767 2.93604 5.61901 3.28342 5.00067 3.90176C4.38233 4.5201 4.03495 5.35875 4.03495 6.23322V8.20384L3.64643 8.59236C3.5696 8.66921 3.51728 8.76712 3.49609 8.8737C3.47489 8.98028 3.48578 9.09076 3.52736 9.19116C3.56894 9.29156 3.63936 9.37737 3.72971 9.43776C3.82006 9.49814 3.92628 9.53039 4.03495 9.53041H10.6293C10.738 9.53039 10.8442 9.49814 10.9346 9.43776C11.0249 9.37737 11.0953 9.29156 11.1369 9.19116C11.1785 9.09076 11.1894 8.98028 11.1682 8.8737C11.147 8.76712 11.0947 8.66921 11.0178 8.59236L10.6293 8.20384V6.23322C10.6293 5.35875 10.2819 4.5201 9.6636 3.90176C9.04526 3.28342 8.2066 2.93604 7.33214 2.93604V2.93604ZM7.33214 11.7285C6.8949 11.7285 6.47558 11.5548 6.1664 11.2457C5.85723 10.9365 5.68354 10.5172 5.68354 10.0799H8.98073C8.98073 10.5172 8.80704 10.9365 8.49787 11.2457C8.1887 11.5548 7.76937 11.7285 7.33214 11.7285Z" fill="#9E59F6"/>
<path d="M4.03495 6.23322H3.03495H4.03495ZM4.03495 8.20384L4.74206 8.91095L5.03495 8.61805V8.20384H4.03495ZM3.64643 8.59236L2.93932 7.88525L2.93922 7.88536L3.64643 8.59236ZM4.03495 9.53041L4.03474 10.5304H4.03495V9.53041ZM10.6293 9.53041L10.6293 10.5304L10.6295 10.5304L10.6293 9.53041ZM11.0178 8.59236L11.7251 7.88536L11.7249 7.88525L11.0178 8.59236ZM10.6293 8.20384H9.62932V8.61805L9.92222 8.91095L10.6293 8.20384ZM7.33214 11.7285L7.33214 12.7285L7.33214 11.7285ZM5.68354 10.0799V9.07994H4.68354V10.0799H5.68354ZM8.98073 10.0799H9.98073V9.07994H8.98073V10.0799ZM7.33214 1.93604C6.19245 1.93604 5.09944 2.38877 4.29357 3.19465L5.70778 4.60887C6.13859 4.17806 6.72288 3.93604 7.33214 3.93604L7.33214 1.93604ZM4.29357 3.19465C3.48769 4.00053 3.03495 5.09354 3.03495 6.23322L5.03495 6.23322C5.03495 5.62397 5.27697 5.03967 5.70778 4.60887L4.29357 3.19465ZM3.03495 6.23322V8.20384H5.03495V6.23322H3.03495ZM3.32784 7.49673L2.93932 7.88525L4.35354 9.29947L4.74206 8.91095L3.32784 7.49673ZM2.93922 7.88536C2.72258 8.10206 2.57505 8.37813 2.51529 8.67867L4.47688 9.06873C4.45951 9.1561 4.41662 9.23636 4.35364 9.29936L2.93922 7.88536ZM2.51529 8.67867C2.45553 8.97921 2.48621 9.29071 2.60347 9.57381L4.45125 8.8085C4.48534 8.8908 4.49426 8.98136 4.47688 9.06873L2.51529 8.67867ZM2.60347 9.57381C2.72072 9.85691 2.91928 10.0989 3.17403 10.2692L4.28538 8.60636C4.35944 8.65586 4.41716 8.7262 4.45125 8.8085L2.60347 9.57381ZM3.17403 10.2692C3.42879 10.4394 3.72832 10.5303 4.03474 10.5304L4.03516 8.53041C4.12424 8.53043 4.21132 8.55686 4.28538 8.60636L3.17403 10.2692ZM4.03495 10.5304H10.6293V8.53041H4.03495V10.5304ZM10.6295 10.5304C10.936 10.5303 11.2355 10.4394 11.4902 10.2692L10.3789 8.60636C10.453 8.55686 10.54 8.53043 10.6291 8.53041L10.6295 10.5304ZM11.4902 10.2692C11.745 10.0989 11.9436 9.85691 12.0608 9.57381L10.213 8.8085C10.2471 8.7262 10.3048 8.65586 10.3789 8.60636L11.4902 10.2692ZM12.0608 9.57381C12.1781 9.29071 12.2087 8.97921 12.149 8.67867L10.1874 9.06873C10.17 8.98136 10.1789 8.8908 10.213 8.8085L12.0608 9.57381ZM12.149 8.67867C12.0892 8.37814 11.9417 8.10207 11.7251 7.88536L10.3106 9.29936C10.2476 9.23636 10.2048 9.1561 10.1874 9.06873L12.149 8.67867ZM11.7249 7.88525L11.3364 7.49673L9.92222 8.91095L10.3107 9.29947L11.7249 7.88525ZM11.6293 8.20384V6.23322H9.62932V8.20384H11.6293ZM11.6293 6.23322C11.6293 5.09354 11.1766 4.00053 10.3707 3.19465L8.95649 4.60887C9.3873 5.03967 9.62932 5.62397 9.62932 6.23322H11.6293ZM10.3707 3.19465C9.56483 2.38877 8.47182 1.93604 7.33214 1.93604L7.33214 3.93604C7.94139 3.93604 8.52569 4.17806 8.95649 4.60887L10.3707 3.19465ZM7.33214 10.7285C7.16012 10.7285 6.99515 10.6602 6.87351 10.5386L5.4593 11.9528C5.956 12.4495 6.62968 12.7285 7.33214 12.7285L7.33214 10.7285ZM6.87351 10.5386C6.75188 10.4169 6.68354 10.252 6.68354 10.0799H4.68354C4.68354 10.7824 4.96259 11.4561 5.4593 11.9528L6.87351 10.5386ZM5.68354 11.0799H8.98073V9.07994H5.68354V11.0799ZM7.98073 10.0799C7.98073 10.252 7.91239 10.4169 7.79076 10.5386L9.20497 11.9528C9.70168 11.4561 9.98073 10.7824 9.98073 10.0799H7.98073ZM7.79076 10.5386C7.66913 10.6602 7.50415 10.7285 7.33214 10.7285L7.33214 12.7285C8.03459 12.7285 8.70827 12.4495 9.20497 11.9528L7.79076 10.5386Z" fill="#9E59F6" mask="url(#path-2-inside-1)"/>
</svg>
