<svg width="49" height="49" viewBox="0 0 49 49" fill="none" xmlns="http://www.w3.org/2000/svg">
<rect width="48.81" height="48.8106" rx="24.405" fill="#12CB9E"/>
<path fill-rule="evenodd" clip-rule="evenodd" d="M19.1882 16.7292C20.5718 15.3457 22.4483 14.5684 24.405 14.5684C26.3617 14.5684 28.2382 15.3457 29.6218 16.7292C31.0054 18.1128 31.7827 19.9894 31.7827 21.9461V26.3555L32.652 27.2248C32.824 27.3968 32.941 27.6158 32.9884 27.8543C33.0359 28.0928 33.0115 28.34 32.9185 28.5647C32.8254 28.7893 32.6679 28.9813 32.4657 29.1164C32.2635 29.2516 32.0259 29.3237 31.7827 29.3238H17.0273C16.7842 29.3237 16.5465 29.2516 16.3443 29.1164C16.1422 28.9813 15.9846 28.7893 15.8915 28.5647C15.7985 28.34 15.7741 28.0928 15.8216 27.8543C15.869 27.6158 15.9861 27.3968 16.158 27.2248L17.0273 26.3555V21.9461C17.0273 19.9894 17.8046 18.1128 19.1882 16.7292ZM21.7966 33.1618C22.4884 33.8536 23.4267 34.2422 24.405 34.2422C25.3834 34.2422 26.3216 33.8536 27.0134 33.1618C27.7052 32.47 28.0939 31.5317 28.0939 30.5534H20.7162C20.7162 31.5317 21.1048 32.47 21.7966 33.1618ZM23.5083 19.3488C23.5083 18.8536 23.9098 18.4521 24.405 18.4521C24.9002 18.4521 25.3017 18.8536 25.3017 19.3488V21.5285H27.4813C27.9765 21.5285 28.378 21.9299 28.378 22.4252C28.378 22.9204 27.9765 23.3218 27.4813 23.3218H25.3017V25.5015C25.3017 25.9967 24.9002 26.3981 24.405 26.3981C23.9098 26.3981 23.5083 25.9967 23.5083 25.5015V23.3218H21.3287C20.8334 23.3218 20.432 22.9204 20.432 22.4252C20.432 21.9299 20.8334 21.5285 21.3287 21.5285H23.5083V19.3488Z" fill="white"/>
</svg>
