<svg width="50" height="50" viewBox="0 0 50 50" fill="none" xmlns="http://www.w3.org/2000/svg">
<rect x="0.510498" y="0.418945" width="48.81" height="48.8106" rx="24.405" fill="#2C79EE"/>
<path fill-rule="evenodd" clip-rule="evenodd" d="M26.8225 21.1685C26.4308 21.1685 26.0553 21.0129 25.7784 20.736C25.5014 20.4591 25.3459 20.0835 25.3459 19.6919C25.3459 19.3003 25.5014 18.9247 25.7784 18.6478C26.0553 18.3709 26.4308 18.2153 26.8225 18.2153H34.2053C34.597 18.2153 34.9725 18.3709 35.2494 18.6478C35.5264 18.9247 35.6819 19.3003 35.6819 19.6919V27.0748C35.6819 27.4664 35.5264 27.842 35.2494 28.1189C34.9725 28.3958 34.597 28.5514 34.2053 28.5514C33.8137 28.5514 33.4382 28.3958 33.1612 28.1189C32.8843 27.842 32.7288 27.4664 32.7288 27.0748V23.2564L26.3898 29.5953C26.1129 29.8721 25.7374 30.0276 25.3459 30.0276C24.9543 30.0276 24.5788 29.8721 24.3019 29.5953L20.9161 26.2095L14.5772 32.5485C14.2987 32.8174 13.9257 32.9663 13.5386 32.9629C13.1514 32.9595 12.7811 32.8042 12.5073 32.5305C12.2335 32.2567 12.0782 31.8864 12.0749 31.4992C12.0715 31.1121 12.2204 30.7391 12.4893 30.4606L19.8722 23.0777C20.1491 22.8009 20.5246 22.6454 20.9161 22.6454C21.3077 22.6454 21.6832 22.8009 21.9601 23.0777L25.3459 26.4635L30.6409 21.1685H26.8225Z" fill="white"/>
</svg>
