<svg width="12" height="7" viewBox="0 0 12 7" fill="none" xmlns="http://www.w3.org/2000/svg">
<path fill-rule="evenodd" clip-rule="evenodd" d="M7.16272 1.5635C6.98958 1.5635 6.82353 1.49471 6.7011 1.37228C6.57866 1.24985 6.50988 1.0838 6.50988 0.910654C6.50988 0.73751 6.57866 0.571457 6.7011 0.449025C6.82353 0.326594 6.98958 0.257812 7.16272 0.257812H10.4269C10.6001 0.257812 10.7661 0.326594 10.8886 0.449025C11.011 0.571457 11.0798 0.73751 11.0798 0.910654V4.17486C11.0798 4.348 11.011 4.51406 10.8886 4.63649C10.7661 4.75892 10.6001 4.8277 10.4269 4.8277C10.2538 4.8277 10.0877 4.75892 9.9653 4.63649C9.84287 4.51406 9.77409 4.348 9.77409 4.17486V2.48661L6.97144 5.28926C6.84902 5.41165 6.68299 5.4804 6.50988 5.4804C6.33677 5.4804 6.17075 5.41165 6.04832 5.28926L4.55136 3.79229L1.74871 6.59494C1.62558 6.71386 1.46068 6.77967 1.2895 6.77818C1.11833 6.77669 0.954589 6.70803 0.833547 6.58699C0.712505 6.46595 0.643846 6.30221 0.642359 6.13103C0.640871 5.95986 0.706674 5.79495 0.825594 5.67183L4.0898 2.40762C4.21223 2.28523 4.37825 2.21648 4.55136 2.21648C4.72447 2.21648 4.89049 2.28523 5.01292 2.40762L6.50988 3.90458L8.85097 1.5635H7.16272Z" fill="#2C79EE"/>
</svg>