<svg width="21" height="21" viewBox="0 0 21 21" fill="none" xmlns="http://www.w3.org/2000/svg">
<path fill-rule="evenodd" clip-rule="evenodd" d="M10.2123 0.523438C4.6895 0.523438 0.212402 5.00066 0.212402 10.5234C0.212402 16.0462 4.6895 20.5234 10.2123 20.5234C15.7351 20.5234 20.2121 16.0462 20.2121 10.5234C20.2121 5.00066 15.7351 0.523438 10.2123 0.523438ZM11.179 8.05298C11.3199 8.19387 11.511 8.27302 11.7102 8.27302H13.653L10.959 10.967L9.23634 9.24439C9.09546 9.10355 8.90441 9.02443 8.7052 9.02443C8.506 9.02443 8.31495 9.10355 8.17407 9.24439L4.4178 13.0007C4.28095 13.1423 4.20523 13.3321 4.20694 13.5291C4.20865 13.7261 4.28766 13.9145 4.42695 14.0538C4.56624 14.1931 4.75466 14.2721 4.95163 14.2738C5.14861 14.2755 5.33838 14.1998 5.48007 14.0629L8.7052 10.8378L10.4278 12.5604C10.5687 12.7013 10.7598 12.7804 10.959 12.7804C11.1582 12.7804 11.3492 12.7013 11.4901 12.5604L14.7152 9.33529V11.278C14.7152 11.4773 14.7944 11.6684 14.9353 11.8092C15.0762 11.9501 15.2672 12.0293 15.4665 12.0293C15.6657 12.0293 15.8568 11.9501 15.9977 11.8092C16.1386 11.6684 16.2177 11.4773 16.2177 11.278V7.52176C16.2177 7.32252 16.1386 7.13143 15.9977 6.99055C15.8568 6.84966 15.6657 6.77051 15.4665 6.77051H11.7102C11.511 6.77051 11.3199 6.84966 11.179 6.99055C11.0381 7.13143 10.959 7.32252 10.959 7.52176C10.959 7.72101 11.0381 7.91209 11.179 8.05298Z" fill="white"/>
</svg>
