<svg width="19" height="12" viewBox="0 0 19 12" fill="none" xmlns="http://www.w3.org/2000/svg">
<path fill-rule="evenodd" clip-rule="evenodd" d="M11.635 2.82768C11.3347 2.82768 11.0467 2.70838 10.8343 2.49603C10.6219 2.28367 10.5026 1.99565 10.5026 1.69534C10.5026 1.39502 10.6219 1.107 10.8343 0.894645C11.0467 0.682289 11.3347 0.562988 11.635 0.562988H17.2967C17.597 0.562988 17.8851 0.682289 18.0974 0.894645C18.3098 1.107 18.4291 1.39502 18.4291 1.69534V7.35707C18.4291 7.65739 18.3098 7.9454 18.0974 8.15776C17.8851 8.37012 17.597 8.48942 17.2967 8.48942C16.9964 8.48942 16.7084 8.37012 16.496 8.15776C16.2837 7.9454 16.1644 7.65739 16.1644 7.35707V4.42882L11.3032 9.28999C11.0909 9.50227 10.8029 9.62152 10.5026 9.62152C10.2024 9.62152 9.91442 9.50227 9.70208 9.28999L7.10561 6.69351L2.24444 11.5547C2.03088 11.7609 1.74484 11.8751 1.44795 11.8725C1.15105 11.8699 0.867043 11.7508 0.657096 11.5409C0.44715 11.3309 0.328062 11.0469 0.325482 10.75C0.322902 10.4531 0.437036 10.1671 0.643303 9.95354L6.30504 4.29181C6.51738 4.07952 6.80535 3.96027 7.10561 3.96027C7.40586 3.96027 7.69383 4.07952 7.90618 4.29181L10.5026 6.88828L14.5632 2.82768H11.635Z" fill="white"/>
</svg>
