<?xml version="1.0" encoding="UTF-8"?>
<svg width="130px" height="130px" viewBox="0 0 130 130" version="1.1" xmlns="http://www.w3.org/2000/svg" xmlns:xlink="http://www.w3.org/1999/xlink">
    <!-- Generator: Sketch 63.1 (92452) - https://sketch.com -->
    <title>Group 45</title>
    <desc>Created with Sketch.</desc>
    <defs>
        <path d="M23.1758453,0 L105.513468,0 C118.313134,0 128.689313,10.3761794 128.689313,23.1758453 L128.689313,105.513468 C128.689313,118.313134 118.313134,128.689313 105.513468,128.689313 L23.1758453,128.689313 C10.3761794,128.689313 1.26476607e-12,118.313134 1.26476607e-12,105.513468 L1.26476607e-12,23.1758453 C1.26476607e-12,10.3761794 10.3761794,0 23.1758453,0 Z" id="path-1"></path>
    </defs>
    <g id="Page-2" stroke="none" stroke-width="1" fill="none" fill-rule="evenodd">
        <g id="Group-30-Copy-3" transform="translate(0.000000, 0.784894)">
            <g id="Rectangle-Copy-53" transform="translate(0.158792, 0.000000)">
                <g id="Group-45" transform="translate(0.386264, 0.000000)">
                    <g id="Group-43">
                        <mask id="mask-2" fill="white">
                            <use xlink:href="#path-1"></use>
                        </mask>
                        <use id="Mask" fill="#0089D6" xlink:href="#path-1"></use>
                    </g>
                    <g id="Group-44" transform="translate(29.339090, 13.315106)">
                        <ellipse id="Oval" fill-opacity="0.155348558" fill="#000000" cx="35.6158537" cy="91.997561" rx="22.3957317" ry="6.03658537"></ellipse>
                        <path d="M35.6157791,6.84668582e-12 C55.2859166,6.84668582e-12 71.2317073,15.9457907 71.2317073,35.6159282 C71.2317073,50.7942868 61.7368698,63.7550932 48.362647,68.8828246 L38.3192918,89.7584302 C37.6010195,91.2514978 35.8083744,91.8795936 34.3153067,91.1613214 C33.7021057,90.8663279 33.207409,90.3716312 32.9124155,89.7584302 L25.9327488,75.2498012 C30.211305,75.1858324 34.2931814,74.1671758 38.1783781,72.1938315 C38.9954545,71.7788273 39.6450167,71.3634707 40.1270648,70.9477616 C38.6495787,71.135467 37.143918,71.2317073 35.6157791,71.2317073 C15.9457922,71.2317073 5.67013103e-12,55.2859151 5.67013103e-12,35.6159282 C5.67013103e-12,15.9457907 15.9457922,6.84668582e-12 35.6157791,6.84668582e-12 Z M43.1944719,16.6391974 C42.0266776,17.8074403 41.2931795,19.2448168 40.99203,20.7516108 C35.284858,18.6034724 28.7388681,19.9681441 24.3809575,24.3265033 C20.0191588,28.688302 18.6558343,35.2417727 20.8120496,40.9525347 C19.295532,41.2503938 17.8476837,41.9862852 16.6727065,43.1611118 C13.5253773,46.308441 13.5253773,51.4116687 16.6727065,54.5589993 C19.8201877,57.7063285 24.9231158,57.7063285 28.0705955,54.5589993 C29.2523025,53.3771418 29.9901401,51.9195683 30.2845568,50.3936266 C32.052555,51.0532216 33.8996928,51.3792057 35.737703,51.3792057 C39.8206457,51.3792057 43.8536184,49.7929741 46.8505993,46.7959947 C51.1929506,42.453943 52.5648022,35.9393684 50.4497259,30.2465577 C51.9675907,29.9491486 53.4166356,29.2129577 54.5923609,28.0370849 C57.7398391,24.8897542 57.7398391,19.7866771 54.5923609,16.6391974 C51.4450287,13.4918668 46.3419516,13.4918668 43.1944719,16.6391974 Z M52.6101302,18.5277737 C54.6854132,20.6030552 54.6854132,23.9797247 52.6101302,26.0550062 C51.4145105,27.2510745 49.7678416,27.7993665 48.0896038,27.5603025 C48.0094166,27.5489321 47.9313261,27.5517755 47.8544292,27.5607511 C47.35835,27.4962722 46.839229,27.5638925 46.3521238,27.7896429 C45.6584206,28.1108374 45.163237,28.6851606 44.9235739,29.351788 C44.6880998,30.0065966 44.6993211,30.7505679 45.0146814,31.4317056 C46.8015294,35.2917398 45.9802142,39.9069667 42.9709673,42.9162121 C39.9614208,45.925161 35.3460464,46.7478234 31.4849646,44.9594792 C30.7945517,44.6397794 30.0395095,44.631999 29.3781172,44.8774963 C28.7230107,45.1206003 28.1596078,45.6121925 27.8429018,46.2964731 C27.6406388,46.7330121 27.564043,47.1952827 27.5962064,47.6434901 C27.5843874,47.7319049 27.5809465,47.8222658 27.5962064,47.9151676 C27.877609,49.6083642 27.321687,51.3431513 26.1097614,52.5559756 C24.0346289,54.630509 20.6579594,54.630509 18.5823799,52.5559756 C17.5770538,51.550201 17.0233746,50.2136557 17.0233746,48.7921351 C17.0233746,47.3701674 17.5770538,46.0334731 18.5823799,45.0282961 C19.7777,43.8325259 21.4252691,43.2851309 23.1872825,43.5264392 C23.3651596,43.5623446 23.54543,43.5871776 23.7286928,43.5871776 C24.1145166,43.5871776 24.5066247,43.5051961 24.879433,43.3327047 C25.5565322,43.0191386 26.0440859,42.4641152 26.2900303,41.8176847 C26.5433065,41.1516563 26.5397181,40.3885357 26.2167249,39.6906419 C24.4301764,35.8304572 25.2514917,31.2153808 28.260591,28.2062845 C31.270136,25.196738 35.8858099,24.3749742 39.7465922,26.1628683 C40.4343123,26.481522 41.1865141,26.4906466 41.8462582,26.2479927 C42.5045076,26.0056367 43.0706019,25.5126974 43.3886565,24.8258745 C43.6352014,24.2935904 43.6945926,23.7231566 43.5963037,23.1687323 C43.3150515,21.4747861 43.870823,19.7398514 45.0830512,18.5277737 C47.1581807,16.4521942 50.5350007,16.4521942 52.6101302,18.5277737 Z M31.4851136,31.430509 C29.1825885,33.7331846 29.1825885,37.4665069 31.4851136,39.7690335 C33.7877907,42.0718581 37.5212605,42.0718581 39.8237886,39.7690335 C42.1264642,37.4665069 42.1264642,33.7331846 39.8237886,31.430509 C37.5212605,29.1279839 33.7877907,29.1279839 31.4851136,31.430509 Z" id="Combined-Shape" fill="#FFFFFF"></path>
                    </g>
                </g>
            </g>
        </g>
    </g>
</svg>